<?xml version="1.0" encoding="utf-8"?>
<!-- Generator: Adobe Illustrator 28.0.0, SVG Export Plug-In . SVG Version: 6.00 Build 0)  -->
<svg version="1.1" id="Layer_1" xmlns="http://www.w3.org/2000/svg" xmlns:xlink="http://www.w3.org/1999/xlink" x="0px" y="0px"
	 viewBox="0 0 191 29" style="enable-background:new 0 0 191 29;" xml:space="preserve">
<style type="text/css">
	.st0{fill:#429488;}
	.st1{fill:#6AB4AC;}
	.st2{fill:#CFCFCF;}
</style>
<path class="st0" d="M19.9,5.6h-6.7c-0.1,0-0.2,0.1-0.2,0.2v19.1c0,2.2,1.8,4,4,4h2.9c2.2,0,4-1.8,4-4V9.6
	C23.9,7.4,22.1,5.6,19.9,5.6z"/>
<path class="st0" d="M32.3,0h-6.7c-0.1,0-0.2,0.1-0.2,0.2v24.7c0,2.2,1.8,4,4,4h2.9c2.2,0,4-1.8,4-4V4C36.3,1.8,34.5,0,32.3,0z"/>
<path class="st1" d="M7.4,12.4H0.8c-0.1,0-0.2,0.1-0.2,0.2v12.3c0,2.2,1.8,4,4,4h2.9c2.2,0,4-1.8,4-4v-8.6
	C11.4,14.2,9.6,12.4,7.4,12.4z"/>
<path class="st1" d="M1.9,0H0.8C0.7,0,0.6,0.1,0.6,0.2v0.9c0,2.2,1.8,4,4,4h1.1c0.1,0,0.2-0.1,0.2-0.2V4C5.9,1.8,4.1,0,1.9,0z"/>
<g>
	<path class="st2" d="M59.6,8c-1.7,0-3.1,0.6-4.1,1.9C54.7,8.7,53.4,8,51.9,8s-2.7,0.6-3.5,1.8V9.1c0-0.4-0.2-0.7-0.7-0.7h-2.4
		c-0.4,0-0.7,0.3-0.7,0.7v13.1c0,0.4,0.2,0.7,0.7,0.7h2.4c0.4,0,0.7-0.3,0.7-0.7v-8.4c0-1.9,1.2-2.5,2.2-2.5s1.9,0.5,1.9,2v9
		c0,0.4,0.2,0.7,0.7,0.7h2.4c0.4,0,0.7-0.3,0.7-0.7v-8.4c0-1.9,1.2-2.5,2.2-2.5s1.9,0.5,1.9,2v9c0,0.4,0.2,0.7,0.7,0.7h2.4
		c0.4,0,0.7-0.3,0.7-0.7v-9.2C64.2,9.8,62.4,8,59.6,8z"/>
	<path class="st2" d="M59.6,8c-1.7,0-3.1,0.6-4.1,1.9C54.7,8.7,53.4,8,51.9,8s-2.7,0.6-3.5,1.8V9.1c0-0.4-0.2-0.7-0.7-0.7h-2.4
		c-0.4,0-0.7,0.3-0.7,0.7v13.1c0,0.4,0.2,0.7,0.7,0.7h2.4c0.4,0,0.7-0.3,0.7-0.7v-8.4c0-1.9,1.2-2.5,2.2-2.5s1.9,0.5,1.9,2v9
		c0,0.4,0.2,0.7,0.7,0.7h2.4c0.4,0,0.7-0.3,0.7-0.7v-8.4c0-1.9,1.2-2.5,2.2-2.5s1.9,0.5,1.9,2v9c0,0.4,0.2,0.7,0.7,0.7h2.4
		c0.4,0,0.7-0.3,0.7-0.7v-9.2C64.2,9.8,62.4,8,59.6,8z"/>
	<path class="st2" d="M90.4,8c-1.8,0-3.2,0.6-4.1,1.9V9.1c0-0.4-0.2-0.7-0.7-0.7h-2.4c-0.4,0-0.7,0.3-0.7,0.7v13.3
		c0,0.4,0.2,0.7,0.7,0.7h2.4c0.4,0,0.7-0.3,0.7-0.7v-7.8c0-2.2,1.2-3.1,2.7-3.1c1.4,0,2.4,0.8,2.4,2.5v8.4c0,0.4,0.2,0.7,0.7,0.7
		h2.4c0.4,0,0.7-0.3,0.7-0.7v-8.7C95.2,10.1,93.2,8,90.4,8z"/>
	<path class="st2" d="M90.4,8c-1.8,0-3.2,0.6-4.1,1.9V9.1c0-0.4-0.2-0.7-0.7-0.7h-2.4c-0.4,0-0.7,0.3-0.7,0.7v13.3
		c0,0.4,0.2,0.7,0.7,0.7h2.4c0.4,0,0.7-0.3,0.7-0.7v-7.8c0-2.2,1.2-3.1,2.7-3.1c1.4,0,2.4,0.8,2.4,2.5v8.4c0,0.4,0.2,0.7,0.7,0.7
		h2.4c0.4,0,0.7-0.3,0.7-0.7v-8.7C95.2,10.1,93.2,8,90.4,8z"/>
	<path class="st2" d="M105.2,7.9c-4.7,0-7.9,3.4-7.9,7.8c0,4.4,3.1,7.8,8,7.8c3,0,5.5-1.4,6.6-3.9c0.2-0.5-0.1-0.8-0.6-0.8h-2.4
		c-0.4,0-0.6,0.2-0.9,0.4c-0.6,0.7-1.6,1.1-2.7,1.1c-1.9,0-3.5-1-4-3.1h10.5c0.5,0,0.7-0.2,0.8-0.6v-0.9
		C112.6,11.4,109.6,8,105.2,7.9z M101.3,14.3c0.5-1.8,1.9-2.9,3.9-2.9c1.6,0,3.2,0.8,3.6,2.9H101.3z"/>
	<path class="st2" d="M105.2,7.9c-4.7,0-7.9,3.4-7.9,7.8c0,4.4,3.1,7.8,8,7.8c3,0,5.5-1.4,6.6-3.9c0.2-0.5-0.1-0.8-0.6-0.8h-2.4
		c-0.4,0-0.6,0.2-0.9,0.4c-0.6,0.7-1.6,1.1-2.7,1.1c-1.9,0-3.5-1-4-3.1h10.5c0.5,0,0.7-0.2,0.8-0.6v-0.9
		C112.6,11.4,109.6,8,105.2,7.9z M101.3,14.3c0.5-1.8,1.9-2.9,3.9-2.9c1.6,0,3.2,0.8,3.6,2.9H101.3z"/>
	<path class="st2" d="M126.4,8.4h-2.6c-0.4,0-0.7,0.1-0.8,0.7l-2.9,8.7l-3.3-8.7c-0.1-0.4-0.4-0.6-0.8-0.6h-2.6
		c-0.6,0-0.8,0.3-0.6,0.8l5.4,13.7l-1.8,5.3c-0.2,0.5,0.1,0.8,0.6,0.8h2.6c0.4,0,0.7-0.2,0.8-0.6L127,9.2
		C127.2,8.7,126.9,8.4,126.4,8.4z"/>
	<path class="st2" d="M126.4,8.4h-2.6c-0.4,0-0.7,0.1-0.8,0.7l-2.9,8.7l-3.3-8.7c-0.1-0.4-0.4-0.6-0.8-0.6h-2.6
		c-0.6,0-0.8,0.3-0.6,0.8l5.4,13.7l-1.8,5.3c-0.2,0.5,0.1,0.8,0.6,0.8h2.6c0.4,0,0.7-0.2,0.8-0.6L127,9.2
		C127.2,8.7,126.9,8.4,126.4,8.4z"/>
	<path class="st2" d="M143.7,8c-1.8,0-3.1,0.6-4,1.9c-0.8-1.2-2.1-1.9-3.6-1.9s-2.8,0.6-3.6,1.8V9.1c0-0.4-0.2-0.7-0.7-0.7h-2.4
		c-0.4,0-0.7,0.3-0.7,0.7v13.1c0,0.4,0.2,0.7,0.7,0.7h2.4c0.4,0,0.7-0.3,0.7-0.7v-8.4c0-1.9,1.2-2.5,2.2-2.5s1.9,0.5,1.9,2v9
		c0,0.4,0.2,0.7,0.7,0.7h2.4c0.4,0,0.7-0.3,0.7-0.7v-8.4c0-1.9,1.2-2.5,2.2-2.5s1.9,0.5,1.9,2v9c0,0.4,0.2,0.7,0.7,0.7h2.4
		c0.4,0,0.7-0.3,0.7-0.7v-9.2C148.3,9.8,146.5,8,143.7,8z"/>
	<path class="st2" d="M143.7,8c-1.8,0-3.1,0.6-4,1.9c-0.8-1.2-2.1-1.9-3.6-1.9s-2.8,0.6-3.6,1.8V9.1c0-0.4-0.2-0.7-0.7-0.7h-2.4
		c-0.4,0-0.7,0.3-0.7,0.7v13.1c0,0.4,0.2,0.7,0.7,0.7h2.4c0.4,0,0.7-0.3,0.7-0.7v-8.4c0-1.9,1.2-2.5,2.2-2.5s1.9,0.5,1.9,2v9
		c0,0.4,0.2,0.7,0.7,0.7h2.4c0.4,0,0.7-0.3,0.7-0.7v-8.4c0-1.9,1.2-2.5,2.2-2.5s1.9,0.5,1.9,2v9c0,0.4,0.2,0.7,0.7,0.7h2.4
		c0.4,0,0.7-0.3,0.7-0.7v-9.2C148.3,9.8,146.5,8,143.7,8z"/>
	<path class="st2" d="M158.3,7.9c-4.7,0-7.9,3.4-7.9,7.8c0,4.4,3.1,7.8,8,7.8c3,0,5.5-1.4,6.6-3.9c0.2-0.5-0.1-0.8-0.6-0.8H162
		c-0.4,0-0.6,0.2-0.9,0.4c-0.6,0.7-1.6,1.1-2.7,1.1c-1.9,0-3.5-1-4-3.1h10.5c0.5,0,0.7-0.2,0.8-0.6v-0.9
		C165.7,11.4,162.7,8,158.3,7.9z M154.4,14.3c0.5-1.8,1.9-2.9,3.9-2.9c1.6,0,3.2,0.8,3.6,2.9H154.4z"/>
	<path class="st2" d="M158.3,7.9c-4.7,0-7.9,3.4-7.9,7.8c0,4.4,3.1,7.8,8,7.8c3,0,5.5-1.4,6.6-3.9c0.2-0.5-0.1-0.8-0.6-0.8H162
		c-0.4,0-0.6,0.2-0.9,0.4c-0.6,0.7-1.6,1.1-2.7,1.1c-1.9,0-3.5-1-4-3.1h10.5c0.5,0,0.7-0.2,0.8-0.6v-0.9
		C165.7,11.4,162.7,8,158.3,7.9z M154.4,14.3c0.5-1.8,1.9-2.9,3.9-2.9c1.6,0,3.2,0.8,3.6,2.9H154.4z"/>
	<path class="st2" d="M175.9,8c-1.9,0-3.3,0.6-4.1,1.9V9.1c0-0.4-0.2-0.7-0.7-0.7h-2.4c-0.4,0-0.7,0.3-0.7,0.7v13.3
		c0,0.4,0.2,0.7,0.7,0.7h2.4c0.4,0,0.7-0.3,0.7-0.7v-7.8c0-2.2,1.2-3.1,2.7-3.1c1.4,0,2.4,0.8,2.4,2.5v8.4c0,0.4,0.2,0.7,0.7,0.7
		h2.4c0.4,0,0.7-0.3,0.7-0.7v-8.7C180.7,10.1,178.7,8,175.9,8z"/>
	<path class="st2" d="M175.9,8c-1.9,0-3.3,0.6-4.1,1.9V9.1c0-0.4-0.2-0.7-0.7-0.7h-2.4c-0.4,0-0.7,0.3-0.7,0.7v13.3
		c0,0.4,0.2,0.7,0.7,0.7h2.4c0.4,0,0.7-0.3,0.7-0.7v-7.8c0-2.2,1.2-3.1,2.7-3.1c1.4,0,2.4,0.8,2.4,2.5v8.4c0,0.4,0.2,0.7,0.7,0.7
		h2.4c0.4,0,0.7-0.3,0.7-0.7v-8.7C180.7,10.1,178.7,8,175.9,8z"/>
	<path class="st2" d="M190.3,8.4h-1.9v-4c0-0.4-0.2-0.7-0.7-0.7h-2.4c-0.4,0-0.7,0.3-0.7,0.7v4h-1.9c-0.4,0-0.7,0.3-0.7,0.7v2.2
		c0,0.4,0.2,0.7,0.7,0.7h1.9v10.5c0,0.4,0.2,0.7,0.7,0.7h2.4c0.4,0,0.7-0.3,0.7-0.7V12.1h1.9c0.4,0,0.7-0.3,0.7-0.7V9.1
		C191,8.6,190.7,8.4,190.3,8.4z"/>
	<path class="st2" d="M190.3,8.4h-1.9v-4c0-0.4-0.2-0.7-0.7-0.7h-2.4c-0.4,0-0.7,0.3-0.7,0.7v4h-1.9c-0.4,0-0.7,0.3-0.7,0.7v2.2
		c0,0.4,0.2,0.7,0.7,0.7h1.9v10.5c0,0.4,0.2,0.7,0.7,0.7h2.4c0.4,0,0.7-0.3,0.7-0.7V12.1h1.9c0.4,0,0.7-0.3,0.7-0.7V9.1
		C191,8.6,190.7,8.4,190.3,8.4z"/>
</g>
<path class="st0" d="M69.8,9.5h-2.7c-0.3,0-0.5,0.2-0.5,0.5v2.2c0,5.4,4.4,9.7,9.8,9.7h2.7c0.3,0,0.5-0.2,0.5-0.5v-2.2
	C79.6,13.8,75.2,9.5,69.8,9.5z"/>
</svg>
