<svg width="14" height="14" viewBox="0 0 14 14" fill="none" xmlns="http://www.w3.org/2000/svg">
<g clip-path="url(#clip0_2191_80305)">
<path d="M7.58325 5.24992L6.41659 5.24992L6.41659 4.08325L7.58325 4.08325L7.58325 5.24992ZM7.58325 9.91658L6.41659 9.91658L6.41659 6.41658L7.58325 6.41658L7.58325 9.91658ZM7.00575 12.8333C10.2258 12.8333 12.8333 10.2199 12.8333 6.99992C12.8333 3.77992 10.2258 1.16658 7.00575 1.16658C3.77992 1.16658 1.16658 3.77992 1.16658 6.99992C1.16658 10.2199 3.77992 12.8333 7.00575 12.8333ZM6.99992 2.33325C9.57825 2.33325 11.6666 4.42158 11.6666 6.99992C11.6666 9.57825 9.57825 11.6666 6.99992 11.6666C4.42159 11.6666 2.33325 9.57825 2.33325 6.99992C2.33325 4.42158 4.42159 2.33325 6.99992 2.33325Z" fill="#429488"/>
</g>
<defs>
<clipPath id="clip0_2191_80305">
<rect width="14" height="14" fill="white" transform="translate(14 14) rotate(-180)"/>
</clipPath>
</defs>
</svg>
