<?xml version="1.0" encoding="utf-8"?>
<!-- Generator: Adobe Illustrator 28.0.0, SVG Export Plug-In . SVG Version: 6.00 Build 0)  -->
<svg version="1.1" id="Layer_1" xmlns="http://www.w3.org/2000/svg" xmlns:xlink="http://www.w3.org/1999/xlink" x="0px" y="0px"
	 viewBox="0 0 26 25" style="enable-background:new 0 0 26 25;" xml:space="preserve">
<style type="text/css">
	.st0{fill:#212121;}
</style>
<g>
	<path class="st0" d="M8.7,8.1L7.4,6.8l-1,1l1.3,1.3L8.7,8.1z M6.7,12.3H4.5v1.5h2.2V12.3z M13.2,5h-1.5v2.2h1.5V5z M18.6,7.9l-1-1
		l-1.3,1.3l1,1L18.6,7.9z M16.3,17.9l1.3,1.3l1-1l-1.3-1.3L16.3,17.9z M18.3,12.3v1.5h2.2v-1.5H18.3z M12.5,8.6
		c-2.4,0-4.4,2-4.4,4.4s2,4.4,4.4,4.4s4.4-2,4.4-4.4S14.9,8.6,12.5,8.6z M11.8,21h1.5v-2.2h-1.5V21z M6.4,18.1l1,1l1.3-1.3l-1-1
		L6.4,18.1z"/>
	<path class="st0" d="M8.7,8.1L7.4,6.8l-1,1l1.3,1.3L8.7,8.1z M6.7,12.3H4.5v1.5h2.2V12.3z M13.2,5h-1.5v2.2h1.5V5z M18.6,7.9l-1-1
		l-1.3,1.3l1,1L18.6,7.9z M16.3,17.9l1.3,1.3l1-1l-1.3-1.3L16.3,17.9z M18.3,12.3v1.5h2.2v-1.5H18.3z M12.5,8.6
		c-2.4,0-4.4,2-4.4,4.4s2,4.4,4.4,4.4s4.4-2,4.4-4.4S14.9,8.6,12.5,8.6z M11.8,21h1.5v-2.2h-1.5V21z M6.4,18.1l1,1l1.3-1.3l-1-1
		L6.4,18.1z"/>
</g>
</svg>
