<svg width="388" height="290" viewBox="0 0 388 290" fill="none" xmlns="http://www.w3.org/2000/svg">
<path d="M230.926 42.1111C230.988 42.1864 231.042 42.2686 231.104 42.3439C230.967 42.4466 230.83 42.5493 230.693 42.6657C230.782 42.4877 230.857 42.3028 230.919 42.1111H230.926Z" fill="white"/>
<path d="M241.814 35.3177C241.732 35.6875 241.684 36.071 241.671 36.4545C241.534 36.2491 241.383 36.0505 241.219 35.845C241.417 35.7012 241.616 35.5232 241.814 35.3177Z" fill="white"/>
<path d="M196.727 279.044C195.591 279.044 194.584 278.975 193.557 278.838C191.852 278.606 190.146 278.4 188.441 278.188C183.429 277.578 178.245 276.948 173.136 275.668C171.472 275.25 169.904 274.743 168.384 274.25L167.651 274.011C167.418 273.935 167.178 273.874 166.952 273.812C165.638 273.463 163.433 272.881 161.878 270.566C159.276 266.69 160.248 262.314 160.967 259.116L161.036 258.822C161.166 258.226 161.344 257.665 161.501 257.165C161.625 256.767 161.81 256.185 161.844 255.911C161.81 255.795 161.741 255.651 161.611 255.384C161.289 254.713 160.796 253.7 160.68 252.268C160.488 250.009 160.508 247.79 160.522 245.653C160.536 244.229 160.543 242.887 160.495 241.531C160.454 240.387 160.426 239.237 160.392 238.093C160.235 232.601 160.077 226.917 159.18 221.569C158.838 219.542 158.591 217.679 158.968 215.392C159.132 214.399 159.009 213.201 158.879 212.153C158.735 210.955 158.742 209.729 158.755 208.64C158.755 208.599 158.755 208.565 158.755 208.524C155.441 209.229 152.085 210.057 148.812 210.859C146.573 211.407 144.251 211.975 141.964 212.509C141.944 212.523 141.923 212.53 141.896 212.543C141.498 212.749 140.91 213.057 140.115 213.221C139.766 213.29 139.417 213.324 139.061 213.324C138.725 213.324 138.431 213.297 138.184 213.255C138.15 213.29 138.122 213.317 138.088 213.351C137.225 214.187 136.349 214.652 135.568 214.899C135.657 215.68 135.753 216.474 135.849 217.275C135.986 218.398 136.116 219.535 136.239 220.699C136.253 220.788 136.321 221.09 136.369 221.309C136.746 222.932 137.444 225.958 135.287 228.314C133.466 230.307 130.836 230.307 129.973 230.307C129.343 230.307 128.741 230.266 128.254 230.225C127.974 230.204 127.72 230.184 127.508 230.184C127.056 230.184 126.611 230.218 126.173 230.238C125.604 230.273 125.015 230.307 124.385 230.307C123.365 230.307 121.824 230.225 120.222 229.499C117.743 228.383 116.681 226.205 116.045 224.904L115.887 224.582C114.107 221.021 113.223 217.378 112.374 213.858L112.121 212.81C111.217 209.133 110.395 205.476 110.176 201.217L110.162 200.984C110.018 198.238 109.847 194.821 111.292 191.698C112.586 188.904 114.791 188.069 116.25 187.514C116.75 187.322 117.277 187.11 117.811 186.898C118.695 186.542 119.606 186.172 120.516 185.857C123.139 184.939 125.878 184.261 128.508 183.686C128.748 183.316 129.083 182.905 129.556 182.529C131.535 180.926 133.842 180.837 135.363 180.776L135.657 180.762C137.205 180.693 138.472 180.57 139.766 180.365C140.684 180.221 141.567 180.166 142.341 180.118C142.779 180.091 143.21 180.07 143.642 180.022C145.867 179.789 148.079 179.728 150.216 179.666C151.003 179.646 151.791 179.618 152.578 179.591C154.338 179.522 155.804 179.454 157.078 179.385C157.064 179.18 157.043 178.968 157.023 178.755C156.968 178.146 156.913 177.523 156.893 176.865L156.852 175.653C156.804 174.174 156.756 172.709 156.694 171.243C156.66 170.483 156.646 169.743 156.626 169.011C156.598 167.929 156.571 166.902 156.502 165.82C156.461 165.231 156.509 164.683 156.571 164.197C156.406 164.197 156.215 164.19 155.996 164.19C155.715 164.19 155.441 164.19 155.174 164.197C154.873 164.197 154.578 164.203 154.297 164.203C153.606 164.203 152.791 164.183 151.983 164.019C150.695 163.765 147.668 163.163 146.326 160.067C145.463 158.074 145.587 156.171 145.683 154.774C145.703 154.466 145.724 154.164 145.731 153.87C145.758 152.418 145.792 150.994 145.826 149.569C145.874 147.693 145.922 145.83 145.95 143.927C145.977 142.18 146.169 140.516 146.347 138.9C146.545 137.181 146.73 135.558 146.696 133.99L146.682 133.49C146.621 130.6 146.559 127.615 146.669 124.622C144.327 127.238 141.759 129.744 138.841 132.271C137.616 133.333 136.362 134.476 135.15 135.579C133.534 137.051 131.863 138.571 130.151 140.01C128.665 141.256 127.138 142.502 125.611 143.742C124.132 144.947 122.653 146.145 121.228 147.344L120.578 147.892C118.298 149.816 115.935 151.809 112.812 153.048C112.429 153.199 112.045 153.363 111.655 153.521C109.58 154.383 107.224 155.37 104.506 155.37C103.561 155.37 102.629 155.246 101.732 155.007C97.555 153.884 90.7687 150.021 92.1931 136.77C93.0011 129.251 95.0076 122.828 97.1715 116.37C97.6167 115.035 98.2741 114.042 98.8014 113.248C99.0479 112.878 99.2602 112.556 99.4382 112.22C99.7738 111.597 100.109 110.837 100.459 110.036C100.739 109.399 101.013 108.769 101.308 108.16C102.807 105.058 104.54 102.188 106.485 99.0313C108.067 96.4633 109.943 94.0391 112.573 91.1698C113.066 90.6288 113.477 89.6153 113.812 88.6977C113.963 88.2868 113.901 87.7321 113.696 86.568C112.847 81.6922 111.737 76.9603 110.566 71.9544C110.162 70.2287 109.758 68.503 109.361 66.7637C108.882 64.6682 108.299 62.6754 107.683 60.5731C107.327 59.361 106.964 58.1215 106.601 56.8067C105.478 52.6979 105.697 49.5479 107.252 47.4387C108.341 45.9664 109.998 45.1172 111.922 45.0556H112.093C114.545 45.0556 116.277 46.6443 117.462 47.8359C117.804 46.747 118.38 45.7061 119.311 44.8022C120.461 43.686 121.886 43.1039 123.42 43.1039C124.666 43.1039 125.81 43.4874 126.823 44.09C126.851 44.001 126.878 43.9188 126.905 43.8298C128.186 40.0908 130.85 39.6936 131.939 39.6936C134.65 39.6936 136.917 41.7891 139.061 46.2814C141.327 51.0202 142.834 55.8206 144.292 60.4567C145.011 62.7507 145.758 65.1201 146.58 67.4211C146.943 67.3937 147.367 67.332 147.778 67.2773C147.778 67.2773 148.298 67.2088 148.34 67.2019C149.093 66.9759 149.846 66.8595 150.579 66.8595C152.332 66.8595 153.948 67.4758 155.393 68.6948C155.571 68.8454 155.749 69.0098 155.927 69.181C157.29 70.4136 157.879 71.8722 158.132 73.098C158.173 73.0843 158.646 72.92 158.646 72.92L159.057 72.8652C159.296 72.8378 159.83 72.5433 160.228 72.3311C160.734 72.0571 161.316 71.7421 161.981 71.523L162.138 71.1464C162.138 71.1464 162.145 71.0573 162.138 70.9478L162.125 70.5848L162.179 70.2287C162.193 70.1466 162.207 70.0575 162.214 69.9754C162.214 69.9206 162.22 69.8863 162.227 69.8452L162.241 69.3385L162.351 68.9687C161.371 68.0716 160.686 66.75 160.317 65.0106C160.317 65.0106 160.015 64.812 159.851 64.7093L158.584 63.8944L158.194 62.4426C158.105 62.1207 158.043 61.7783 158.002 61.4017C157.947 60.8881 157.934 60.395 157.934 59.9431C155.564 57.3135 156.701 54.2045 157.235 52.7322C157.358 52.3966 157.482 52.0542 157.598 51.6981C157.598 51.657 157.598 51.6159 157.605 51.5749C157.667 50.8284 157.728 50.3491 157.824 49.9245C157.851 49.8012 157.886 49.678 157.92 49.5547C157.749 49.0685 157.584 48.4042 157.612 47.5962C157.619 47.3634 157.639 47.1442 157.673 46.9388C157.488 46.6512 157.31 46.3225 157.173 45.9458C156.317 43.5422 157.249 41.4467 157.756 40.3236C157.817 40.1867 157.879 40.0497 157.934 39.9196C158.742 37.9542 159.947 36.5573 161.015 35.3246C161.166 35.1466 161.323 34.9685 161.474 34.7905C162.542 33.5305 163.857 31.9828 165.699 30.8529C165.987 30.1476 166.37 29.36 167.254 28.4424C168.911 26.7236 170.705 25.8539 172.581 25.8539C173.136 25.8539 173.684 25.9292 174.218 26.0867C174.382 26.1346 174.533 26.1826 174.677 26.2305C175.43 25.9018 176.204 25.7375 176.985 25.7375C177.45 25.7375 177.882 25.7922 178.286 25.895C179.101 25.354 180.114 24.9636 181.36 24.9636C181.73 24.9636 182.107 25.0047 182.484 25.0732C183.066 25.1896 183.552 25.4019 183.97 25.6553C184.791 25.2102 185.894 24.724 187.243 24.724C187.667 24.724 188.092 24.7719 188.503 24.8678C189.455 25.0938 190.523 25.58 191.324 26.5935C191.598 26.5661 191.879 26.5524 192.153 26.5524C193.557 26.5524 194.783 26.9427 195.782 27.7028C196.542 28.2781 197.083 28.9834 197.405 29.7983C198.768 30.0791 200.596 30.8324 201.569 33.0785C202.021 34.1194 202.048 35.1055 201.973 35.8725C202.849 36.523 203.822 37.6666 204.041 39.6936C204.151 40.7071 204.007 41.6316 203.883 42.4534C203.856 42.6314 203.822 42.8505 203.801 43.0491C204.178 43.5148 204.657 44.2064 204.931 45.1652C205.233 46.2197 205.13 47.2401 205.061 47.918C205.054 48.0071 205.041 48.0961 205.041 48.1646C204.986 49.2329 204.842 50.4107 204.178 51.7255C204.096 51.883 204.014 52.0268 203.931 52.1501C203.897 52.3076 203.849 52.4788 203.788 52.65C203.589 53.2184 203.315 53.684 203.041 54.047C203.048 54.1155 203.062 54.1908 203.069 54.2661C203.206 55.4645 203.253 56.6697 203.295 57.8339L203.322 58.6009C203.349 59.3062 203.445 60.0732 203.541 60.8881C203.801 63.0726 204.096 65.5516 203.356 68.2086C203.062 69.2632 202.671 70.2287 202.178 71.1053C204.308 71.0573 206.616 70.9272 209.17 70.7149L211.765 70.4958L214.573 75.9742C215.107 76.7206 215.662 77.4533 216.251 78.2272C216.675 78.7887 217.107 79.3502 217.531 79.9255C217.97 80.5144 218.401 81.117 218.839 81.7265C220.154 83.5549 221.387 85.2737 222.804 86.7666C226.674 90.848 230.68 95.0732 235.329 98.4218C240.322 102.024 244.691 104.427 249.073 105.996C249.375 106.105 249.676 106.194 249.984 106.27C249.025 105.64 248.087 105.037 247.163 104.462C246.156 103.839 245.149 103.243 244.143 102.647C243.403 102.209 242.67 101.77 241.931 101.325C241.739 101.209 241.527 101.099 241.308 100.99C237.425 98.9628 236.035 96.299 237.171 93.0667C238.069 90.5124 239.397 88.3759 240.684 86.3146C241.301 85.3217 241.883 84.3835 242.41 83.4179C243.746 80.9663 245.095 78.5216 246.464 76.0358L247.567 74.043C248.073 73.1254 248.573 72.2009 249.066 71.2765C251.36 67.0102 253.73 62.6069 257.051 58.6009C259.475 55.6768 262.358 54.1291 265.385 54.1291C266.837 54.1291 268.261 54.4853 269.624 55.1974C270.816 55.8138 272 56.4438 273.185 57.0738C274.986 58.0325 276.849 59.0186 278.677 59.9362L279.102 60.1485C282.354 61.7783 285.71 63.4629 288.75 65.4283C292.318 67.7361 291.49 70.8998 291.216 71.9407C291.175 72.0982 291.127 72.2694 291.092 72.4612C290.969 73.1871 290.791 73.9403 290.551 74.7484C292.311 76.7411 292.804 79.4461 293.099 81.0211L293.167 81.3978C293.373 82.4866 293.53 83.507 293.681 84.4931C293.955 86.2667 294.215 87.9444 294.694 89.5948C295.194 91.3136 295.441 92.8818 295.646 94.3404C295.735 94.9773 295.9 95.669 296.071 96.3948C296.311 97.422 296.584 98.5793 296.701 99.8257C297.091 103.77 296.605 107.29 295.222 110.591C292.654 116.706 288.552 121.212 281.909 125.218C278.999 126.971 276.027 128.436 272.288 129.957C272.404 130.333 272.521 130.744 272.63 131.23L273.678 135.956H271.172C270.192 136.935 268.857 137.469 267.378 137.469C266.358 137.469 265.337 137.209 264.433 136.723C264.228 136.613 264.043 136.497 263.879 136.387C263.488 136.49 263.009 136.599 262.468 136.647C259.934 136.866 257.674 136.976 255.558 136.976C253.757 136.976 252.066 136.901 250.402 136.743L249.71 136.681C246.375 136.373 242.931 136.051 239.527 135.1C236.343 134.216 233.042 132.97 229.433 131.292C229.372 131.265 229.31 131.23 229.242 131.203C229.413 131.45 229.625 131.73 229.851 132.018C231.104 133.661 233.001 136.154 232.59 139.571C232.104 143.66 228.276 145.721 225.989 146.953C225.646 147.138 225.318 147.309 225.03 147.481C223.695 148.261 222.517 148.761 221.373 149.241C221.147 149.336 220.921 149.432 220.688 149.528C220.798 149.72 220.901 149.891 220.976 150.028C221.38 150.72 221.729 151.309 221.976 151.918L222.38 152.918C223.565 155.828 224.585 158.335 225.372 161.444C225.9 163.546 226.283 165.614 226.66 167.614C226.941 169.107 227.201 170.517 227.516 171.942C227.646 172.537 227.79 173.126 227.927 173.715C228.57 176.448 229.228 179.276 229.324 182.426C229.351 183.268 229.467 184.206 229.598 185.213C229.919 187.713 230.276 190.554 229.399 193.458C227.968 198.19 223.38 199.779 220.921 200.628C215.258 202.593 209.56 203.12 204.048 203.634C203.363 203.696 202.671 203.764 201.98 203.833C199.398 204.086 197.234 204.346 194.748 204.716C194.509 204.75 194.269 204.771 194.043 204.791C194.043 205.079 194.043 205.346 194.036 205.593C193.974 207.003 193.872 208.366 193.776 209.681C193.653 211.359 193.529 212.947 193.495 214.563C193.433 217.44 193.297 220.514 193.043 224.541C192.975 225.582 192.906 226.63 192.831 227.67C192.666 230.095 192.495 232.594 192.406 234.984C192.372 236.011 192.351 237.025 192.324 238.038C192.269 240.456 192.215 242.948 191.982 245.482C191.872 246.632 191.811 247.79 191.749 249.009C191.639 251.09 191.523 253.234 191.167 255.412C191.201 255.432 192.078 255.939 192.078 255.939C193.207 256.596 194.187 257.171 195.282 257.692C196.241 258.151 197.234 258.527 198.282 258.931C200.028 259.596 201.836 260.287 203.753 261.438C203.973 261.568 204.198 261.698 204.431 261.835C206.684 263.136 210.889 265.567 210.745 270.511C210.649 273.641 208.218 275.01 207.301 275.524C207.205 275.579 207.109 275.627 207.02 275.688C206.602 276.901 205.774 277.64 205.061 278.065C203.664 278.914 202.124 279.023 200.932 279.023C200.535 279.023 200.131 279.01 199.754 278.996C199.521 278.989 199.302 278.975 199.104 278.975H199.021C198.145 279.017 197.412 279.037 196.693 279.037L196.727 279.044Z" fill="white"/>
<path fill-rule="evenodd" clip-rule="evenodd" d="M203.596 133.155C204.828 132.963 205.91 135.757 206.513 136.497C208.458 138.88 210.327 141.057 212.279 143.399C213.06 144.338 214.094 145.235 214.676 146.337C215.128 147.186 215.258 148.261 215.504 149.138C218.613 160.074 221.572 170.921 223.941 182.036C224.448 184.426 224.879 186.754 225.16 189.26C225.297 190.5 225.694 192.047 225.078 193.335C224.461 194.622 222.702 195.17 221.435 195.567C218.963 196.334 216.525 196.841 214.032 197.245C208.026 198.231 201.986 198.834 195.96 199.334C194.118 199.484 192.112 199.491 190.42 199.731C189.612 199.847 189.783 199.573 189.489 200.231C189.064 201.155 189.352 202.58 189.297 203.573C189.181 205.901 189.099 207.503 188.975 209.969C188.722 214.995 188.359 222.028 188.112 226.815C187.777 233.279 187.523 238.285 187.215 244.359C187.099 246.66 186.989 248.68 186.873 250.954C186.811 252.166 186.989 253.604 186.667 254.734C186.421 255.59 186.722 255.384 185.722 255.425C183.408 255.521 180.758 255.268 178.347 255.165C175.622 255.049 172.739 254.987 170.054 254.857C169.28 254.816 168.527 255.186 168.055 254.439C167.582 253.693 167.938 251.988 167.911 251.186C167.836 248.933 167.76 246.865 167.685 244.715C167.473 238.805 167.267 232.937 167.055 227.047C166.767 219.015 166.473 210.989 166.185 202.956C163.097 203.579 160.029 204.196 156.934 204.812C152.366 205.723 147.839 206.634 143.245 207.558C141.142 207.983 138.684 208.893 136.568 208.585C134.452 208.277 133.609 207.435 133.397 205.346C133.185 203.264 133.315 200.984 133.322 198.827C133.335 195.293 133.5 191.698 133.603 188.158C139.697 187.589 145.778 187.076 151.873 186.507C155.112 186.206 158.344 185.994 161.604 185.61C162.343 185.521 163.966 186.083 164.405 185.083C165.096 183.522 164.418 182.488 164.391 180.474C164.329 175.708 164.336 177.345 164.234 170.332C164.124 163.32 163.864 146.536 163.727 137.675C165.185 137.414 166.637 137.633 168.103 137.661C174.464 137.77 180.799 138.092 187.167 137.873C190.365 137.764 193.317 136.894 196.364 135.921C197.987 135.401 199.446 134.812 201.158 134.175C201.699 133.977 203.027 133.662 203.575 133.189C203.582 133.182 203.575 133.182 203.589 133.182L203.596 133.155ZM194.995 164.608C193.913 169.874 192.838 175.14 191.756 180.406C195.453 180.159 199.144 179.913 202.842 179.673C200.226 174.654 197.611 169.627 194.988 164.608H194.995Z" fill="#95D6CD"/>
<path d="M180.867 53.5951C181.477 53.5129 181.059 53.2595 181.258 52.8213C181.573 52.1228 181.675 50.7737 182.675 50.6642C184.572 50.4587 184.538 54.7729 186.483 53.2321C186.517 53.1774 186.551 53.1157 186.599 53.0336C187.051 52.2666 186.325 48.0003 184.408 47.7743C181.586 47.4319 180.011 50.3286 180.093 52.7322C180.107 53.0472 180.484 53.643 180.874 53.5951H180.867Z" fill="#212121"/>
<path d="M171.554 53.2731C170.411 52.5199 168.431 53.2526 170.034 54.5126C170.342 54.7523 171.102 55.1289 171.534 54.9304C172.232 54.6085 172.061 53.6087 171.554 53.2731Z" fill="#212121"/>
<path d="M184.586 59.3815C184.586 59.3815 184.586 59.361 184.586 59.3678C181.744 61.7509 188.503 67.6265 190.749 64.2025C191.879 62.4836 188.681 62.2371 187.551 61.1346C186.818 60.4224 186.305 58.8885 184.586 59.3815Z" fill="#212121"/>
<path fill-rule="evenodd" clip-rule="evenodd" d="M269.631 124.937C268.179 125.41 266.645 126.108 265.522 124.752C264.399 123.396 263.817 121.705 263.002 120.226C262.084 118.569 261.03 116.857 260.188 115.268C259.126 113.268 260.112 112.994 261.578 111.782C263.043 110.57 264.488 109.166 265.837 107.817C266.46 107.194 267.145 106.598 267.597 105.872C268.056 105.153 269.247 105.29 269.398 104.332C269.898 101.058 264.358 100.504 263.783 97.6891C265.015 98.3807 266.645 99.6133 268.076 99.3531C269.768 99.0381 269.85 97.9082 268.727 96.8468C265.954 94.2172 263.331 91.3752 261.215 88.1567C263.406 89.6701 270.959 95.7785 272.699 92.108C273.089 91.2794 271.61 90.5535 271.096 89.9988C270.268 89.1154 269.391 88.1635 268.604 87.1432C267.816 86.1228 266.974 85.0683 266.152 83.9794C265.57 83.2125 264.296 82.1579 264.111 81.2334C263.927 80.3089 265.036 81.5347 265.262 81.7128C266.255 82.4934 267.214 83.3015 268.289 84.0411C270.199 85.3627 271.87 86.4652 274.24 87.1911C276.027 87.739 278.821 88.2526 280.41 86.7803C281.334 85.9243 281.574 84.7259 282.32 83.7124C283.067 82.6989 283.957 81.5895 284.799 80.6034C284.847 81.6922 285.135 82.7605 285.224 83.8493C285.313 84.9381 285.409 86.027 285.587 87.0953C285.943 89.2387 286.682 91.2451 287.114 93.3749C287.6 95.7853 288.141 98.2438 288.771 100.613C289.312 102.674 289.689 104.599 289.312 106.735C288.545 111.097 286.675 114.597 283.416 117.624C281.505 119.397 279.3 120.465 276.979 121.678C274.657 122.89 272.13 124.067 269.624 124.93C269.645 124.923 269.617 124.93 269.624 124.93L269.631 124.937ZM260.975 106.119C258.202 104.441 255.668 102.442 253.059 100.531C251.566 99.4353 250.176 98.3533 248.683 97.2029C247.628 96.3948 246.156 95.6141 245.321 94.5869C244.786 93.9364 244.882 93.9021 245.266 93.2105C245.649 92.5188 246.197 91.7998 246.663 91.0945C247.505 89.807 248.368 88.4922 249.217 87.1911C251.121 84.2671 253.025 81.343 254.846 78.3641C256.668 75.3852 258.565 72.4269 260.441 69.4823C261.311 68.1127 262.201 66.7431 263.009 65.3256C263.632 64.2436 264.152 62.0933 265.707 62.3125C267.261 62.5316 268.569 63.8532 269.857 64.5312C271.432 65.3529 272.822 66.1816 274.322 66.9828C277.554 68.7085 280.759 70.352 283.977 72.0777C281.115 76.1248 278.588 80.3432 276.143 84.6437C273.486 82.8975 271.089 81.1718 268.521 79.1859C266.625 77.7204 264.283 75.5633 261.831 75.2209C259.373 74.8785 258.119 76.7822 258.845 78.9462C259.284 80.2404 260.222 81.2265 260.982 82.4455C261.53 83.322 262.735 84.3698 262.721 85.5339C260.804 84.178 256.606 80.7883 255.353 84.4725C254.456 87.1021 258.202 89.314 258.784 91.7313C257.202 91.7793 255.093 91.834 255.188 94.0254C255.271 95.847 257.12 97.1618 258.339 98.367C259.222 99.2436 260.037 99.8667 260.934 100.75C261.653 101.455 262.701 101.675 263.242 102.777C263.776 103.873 262.269 105.838 261.009 106.085C261.002 106.085 260.989 106.119 260.989 106.112L260.975 106.119ZM195.296 93.1146C197.289 96.3058 199.549 99.3257 201.754 102.366C205.767 107.906 209.718 113.09 214.943 117.61C219.832 121.842 225.044 125.697 230.974 128.457C234.049 129.881 237.178 131.128 240.472 132.045C243.766 132.963 247.238 133.244 250.676 133.566C254.463 133.922 258.229 133.798 262.036 133.463C262.803 133.394 263.57 133.004 264.385 133.018C265.2 133.031 265.433 133.586 266.179 133.983C267.22 134.545 268.816 134.326 268.658 132.785C268.7 132.778 268.713 132.758 268.741 132.758C268.542 131.847 268.268 131.217 268.022 130.244C267.891 129.731 267.159 128.888 267.46 128.19C267.761 127.491 270.097 127.3 270.638 127.081C273.938 125.745 276.855 124.355 279.807 122.575C285.148 119.356 289.106 115.576 291.544 109.776C292.756 106.886 293.044 103.982 292.743 100.894C292.565 99.0997 291.962 97.3672 291.709 95.573C291.503 94.1281 291.284 92.7928 290.873 91.3615C290.045 88.5059 289.832 85.8352 289.264 82.7947C288.846 80.5554 288.463 77.6245 285.778 76.9534C286.381 75.529 286.929 73.9882 287.182 72.5022C287.436 71.0162 288.107 70.3657 286.566 69.3659C283.573 67.4347 280.122 65.7227 276.862 64.0861C273.815 62.559 270.809 60.9086 267.761 59.3267C264.714 57.7449 261.968 59.3473 259.962 61.7646C256.195 66.3117 253.675 71.5504 250.881 76.611C249.135 79.7816 247.423 82.8701 245.738 85.9653C244.054 89.0606 241.91 91.7724 240.753 95.0526C240.02 97.1275 242.451 97.8466 243.862 98.7094C245.615 99.7709 247.375 100.784 249.128 101.866C252.764 104.126 256.305 106.585 259.77 109.118C259.188 109.673 258.606 110.241 258.017 110.789C257.647 110.07 257.305 109.043 256.394 109.016C255.086 108.975 255.538 110.214 254.873 110.83C254.209 111.447 252.6 111.193 251.908 111.152C250.347 111.07 249.046 110.837 247.69 110.351C242.321 108.427 237.569 105.571 232.987 102.27C228.077 98.7368 224.037 94.4842 219.915 90.1358C217.819 87.9239 216.128 85.3559 214.34 82.9317C212.553 80.5144 210.718 78.3162 209.259 75.6865M268.2 68.3113C268.33 67.5922 269.062 66.4418 268.227 65.983C267.392 65.5242 266.275 66.161 265.734 66.7431C264.269 68.325 263.687 70.0849 265.269 71.7284C266.351 70.6259 267.919 69.9411 268.206 68.325C268.206 68.3181 268.206 68.3181 268.206 68.3113H268.2Z" fill="#212121"/>
<path d="M225.646 133.627C223.845 130.703 221.599 128.375 219.928 125.485C216.539 119.623 213.765 113.439 211.266 107.208C209.958 103.948 209.608 100.839 209.28 97.422C213.108 97.4083 216.929 97.8603 220.73 97.3398L209.41 75.2688C202.589 75.8441 195.865 75.981 189.106 74.7826C188.359 74.6525 187.565 74.2964 186.914 74.2348C186.264 74.1731 185.839 74.4471 185.312 74.4402C184.476 74.4334 183.833 73.9951 183.168 74.1184C183.367 72.8446 184.99 73.8513 185.839 74.0088C188.736 74.5429 191.68 74.2211 194.433 73.2829C197.186 72.3447 198.754 70.6259 199.521 67.8593C200.288 65.0927 199.467 62.2508 199.35 59.4569C199.295 58.101 199.268 56.704 199.117 55.4029C199.035 54.7112 198.659 53.9648 198.974 53.369C199.289 52.7732 199.809 52.7048 200.035 52.0542C200.097 51.883 199.973 51.6707 200.069 51.431C200.165 51.1845 200.48 50.9448 200.624 50.6641C200.953 50.0203 201.035 49.4314 201.069 48.6713C201.096 48.1988 201.233 47.3976 201.103 46.9319C200.87 46.117 200.076 45.7678 199.877 44.9665C199.562 43.6928 200.213 41.9945 200.083 40.8167C199.905 39.1732 198.782 39.7279 198.056 38.687C197.33 37.6461 198.35 36.3586 197.905 35.3246C197.282 33.8797 195.597 34.4138 194.474 33.9893C193.002 33.4346 194.44 32.3457 193.317 31.4966C192.201 30.6406 189.886 31.5377 188.626 31.9759C188.455 31.0104 188.791 29.6613 187.496 29.3532C186.202 29.045 184.949 30.5105 183.703 30.7091C183.271 30.7775 183.285 30.9624 182.812 30.8118C182.34 30.6611 182.244 29.7093 181.607 29.5792C180.32 29.3189 179.546 30.4968 178.861 31.4623C177.848 30.4488 176.998 29.9079 175.718 30.7022C174.437 31.4966 174.403 30.9077 173.04 30.5173C171.862 30.1818 170.774 30.9761 169.938 31.839C169.418 32.38 169.301 32.7224 169.014 33.4277C168.726 34.1331 168.63 34.2906 167.843 34.7357C166.473 35.5027 165.398 36.7353 164.323 38.0022C163.248 39.269 162.084 40.4674 161.419 42.0904C161.008 43.0971 160.33 44.2201 160.728 45.3432C160.892 45.7952 161.536 46.0828 161.659 46.4663C161.899 47.199 161.406 47.7879 161.385 48.4179C161.364 49.0479 161.762 49.3561 161.823 49.9176C161.885 50.4792 161.625 50.9585 161.508 51.4858C161.453 51.7323 161.412 52.1227 161.371 52.602C161.358 52.7595 161.344 52.9307 161.33 53.1088C160.529 55.9575 159.159 57.3271 161.755 58.8474C161.755 59.0254 161.755 59.2103 161.755 59.3952C161.734 60.1348 161.673 60.9086 161.755 61.6756C161.775 61.8263 161.796 61.9838 161.837 62.1344C162.022 62.2508 162.2 62.3672 162.357 62.4768C162.515 62.5864 162.672 62.6959 162.816 62.7987C164.631 63.4903 163.261 66.9143 165.884 67.1745C165.939 67.3526 165.994 67.5306 166.055 67.7155C166.11 67.8799 166.158 68.0442 166.192 68.2223C166.322 68.9139 166.268 69.7014 165.987 70.6464C165.987 70.7971 165.973 70.9409 165.959 71.0779C165.946 71.2148 165.925 71.3655 165.905 71.5093C165.925 72.0571 165.864 72.5296 165.747 72.9405C165.706 73.0775 165.658 73.2076 165.61 73.324C165.466 74.5703 164.877 75.1935 164.104 75.5907C163.946 75.6729 163.782 75.7413 163.617 75.803C162.59 75.8167 161.221 77.1862 159.44 77.4122C159.228 77.4876 159.043 77.556 158.858 77.6245C157.194 78.2614 155.859 78.8024 154.989 79.857C154.879 79.9871 154.777 80.124 154.688 80.2678C153.688 82.6578 152.318 84.0274 150.743 85.4723C150.613 85.6024 150.483 85.7325 150.353 85.8695C147.853 88.4306 145.395 91.0466 142.902 93.6351C141.772 94.8061 140.656 95.9497 139.499 97.1412C138.588 98.0794 137.732 99.2299 136.609 99.9695C136.705 99.2367 137.116 98.6409 137.301 97.9288C137.41 97.5247 137.232 97.1823 137.321 96.7304C137.349 96.5797 137.664 96.1894 137.725 96.025C137.89 95.6004 138.061 95.2306 138.211 94.8403C138.362 94.45 138.355 94.0665 138.513 93.6693C138.663 93.2721 139.136 92.9982 139.259 92.5942C139.629 91.3684 138.91 90.9507 137.76 90.8959C138.273 88.6703 138.65 87.4308 140.937 86.5611C143.224 85.6846 145.58 84.8834 147.758 83.6096C148.477 83.1851 149.155 82.7126 149.812 82.2127C149.942 82.1099 150.072 82.0141 150.209 81.9114C149.579 80.6034 152.318 81.973 151.791 80.6856C151.942 80.5692 152.092 80.4596 152.236 80.35C152.311 79.2338 154.366 78.549 154.352 77.4191C154.366 77.2821 154.366 77.1452 154.373 76.9945C154.373 76.8438 154.373 76.6864 154.373 76.522C154.373 76.3371 154.373 76.1591 154.359 75.981C154.318 74.5909 154.119 73.5431 153.154 72.7008C153.03 72.5776 152.9 72.4611 152.777 72.3516C151.743 71.4819 150.565 71.1532 149.066 71.701C148.922 71.7147 148.771 71.7353 148.62 71.7558C147.566 71.8996 146.381 72.0982 145.395 71.9749C143.868 71.7832 143.368 70.9683 142.868 69.5782C140.355 62.5727 138.725 55.5056 135.445 48.6439C134.726 47.1374 131.884 41.6384 130.466 45.7815C129.268 49.2739 130.775 53.6087 131.254 57.2587C129.535 55.4713 128.974 53.1362 127.549 51.0339C126.495 49.4725 123.892 46.3567 121.893 48.2878C120.318 49.8081 120.804 52.8965 121.05 54.8345C121.448 57.8955 122.393 60.5868 123.043 63.5177C122.242 62.3878 121.776 61.0524 121.187 59.8266C120.448 58.2927 119.496 56.7451 118.503 55.4508C117.51 54.1565 116.613 53.1773 115.428 52.0953C114.524 51.2667 113.196 49.5821 111.915 49.6232C108.649 49.7259 109.738 54.7112 110.217 56.4711C111.21 60.1006 112.237 63.1616 113.011 66.5993C114.531 73.3103 116.209 79.8707 117.387 86.5954C117.647 88.0814 117.825 89.3483 117.318 90.7247C116.812 92.1011 116.236 93.457 115.291 94.4842C113.155 96.8194 111.292 99.0861 109.642 101.757C107.882 104.619 106.115 107.516 104.656 110.536C103.985 111.926 103.403 113.46 102.705 114.754C102.006 116.048 101.164 116.932 100.705 118.288C98.5206 124.814 96.6648 130.826 95.9047 137.866C95.2815 143.646 96.0074 150.172 102.588 151.939C105.615 152.754 108.43 151.227 111.237 150.117C114.038 149.008 116.257 147.008 118.592 145.05C121.496 142.619 124.584 140.181 127.515 137.715C130.446 135.257 133.274 132.518 136.157 130.018C139.04 127.519 141.718 124.91 144.21 122.061C146.703 119.212 148.764 116.103 151.168 113.2C151.106 116.925 150.641 120.637 150.449 124.355C150.278 127.765 150.36 131.203 150.428 134.593C150.497 137.989 149.723 141.304 149.675 144.659C149.627 148.022 149.517 151.261 149.456 154.623C149.428 156.13 149.086 157.725 149.73 159.198C150.209 160.307 151.277 160.629 152.585 160.889C154.606 161.293 158.769 160.273 160.111 162.354C160.844 163.491 160.146 165.073 160.221 166.237C160.344 168.162 160.337 169.874 160.419 171.75C160.502 173.626 160.556 175.516 160.618 177.413C160.673 179.077 161.029 180.906 160.776 182.542C160.556 183.939 159.728 183.795 158.475 183.864C156.591 183.974 154.537 184.063 152.579 184.145C149.709 184.261 146.778 184.254 143.895 184.562C142.683 184.693 141.444 184.679 140.225 184.877C138.698 185.124 137.266 185.247 135.678 185.316C134.39 185.37 132.911 185.357 131.85 186.213C131.48 186.507 131.405 186.966 131.179 187.261C130.754 187.822 130.905 187.774 130.193 187.925C127.378 188.527 124.42 189.219 121.66 190.185C120.283 190.671 118.791 191.315 117.483 191.814C116.175 192.307 115.271 192.691 114.668 193.999C113.593 196.32 113.785 199.224 113.908 201.689C114.107 205.538 114.839 208.852 115.75 212.557C116.661 216.262 117.476 220.021 119.222 223.521C119.797 224.671 120.338 226.027 121.68 226.63C123.406 227.403 125.365 226.972 127.351 226.965C128.672 226.965 131.247 227.499 132.288 226.356C133.329 225.212 132.363 222.959 132.24 221.767C131.795 217.57 131.179 213.721 131.103 209.578C132.192 211.181 133.473 212.94 135.253 211.222C135.691 210.797 135.575 210.427 136.253 210.167C136.63 210.023 137.383 209.9 137.862 209.934C138.342 209.968 138.691 210.181 139.198 210.078C139.704 209.975 140.197 209.564 140.732 209.441C147.401 207.907 154.112 206.065 160.81 204.785C162.583 204.449 162.364 205.846 162.46 207.311C162.556 208.777 162.385 210.729 162.583 212.345C162.755 213.755 162.892 215.228 162.652 216.679C162.371 218.391 162.57 219.843 162.864 221.589C163.994 228.321 164.001 235.244 164.234 242.058C164.357 245.612 164.111 249.105 164.405 252.611C164.515 253.932 165.268 254.549 165.535 255.918C165.802 257.288 165.001 258.89 164.679 260.322C164.035 263.211 163.227 266.478 164.96 269.06C165.898 270.45 167.254 270.511 168.692 270.97C170.417 271.525 172.143 272.1 173.937 272.552C180.505 274.196 187.236 274.723 193.947 275.64C195.584 275.866 196.974 275.825 198.748 275.75C199.836 275.702 201.904 276.031 202.945 275.401C203.5 275.065 203.151 274.737 203.445 274.271C203.74 273.805 204.205 273.483 204.698 273.148C205.52 272.586 206.725 272.251 206.76 271.045C206.849 268.094 203.788 266.69 201.658 265.416C198.939 263.787 196.248 263.163 193.502 261.842C191.995 261.116 190.708 260.335 189.222 259.479C188.578 259.109 187.483 258.849 187.003 258.158C186.524 257.466 186.996 256.761 187.14 255.966C187.75 252.624 187.695 249.187 188.01 245.77C188.325 242.352 188.298 238.97 188.414 235.498C188.53 232.026 188.825 228.458 189.051 224.938C189.256 221.685 189.427 218.398 189.496 215.125C189.558 212.084 189.907 209.174 190.037 206.072C190.085 205.017 189.838 203.292 190.605 202.367C191.372 201.443 193.098 201.676 194.064 201.532C196.659 201.148 198.919 200.874 201.487 200.628C207.588 200.039 213.635 199.669 219.531 197.622C221.955 196.779 224.742 195.711 225.564 192.992C226.509 189.87 225.42 186.377 225.325 183.207C225.222 179.817 224.332 176.701 223.613 173.455C222.832 169.969 222.366 166.532 221.49 163.06C220.688 159.875 219.565 157.266 218.257 154.041C217.73 152.733 215.121 149.425 216.011 147.782C216.491 146.899 217.977 147.09 218.689 146.775C220.236 146.097 221.483 145.645 222.941 144.789C224.9 143.639 228.31 142.269 228.612 139.77C228.913 137.264 226.735 135.421 225.619 133.607L225.646 133.627ZM131.966 110.536C131.966 110.536 131.966 110.536 131.952 110.55C131.699 111.091 131.453 111.782 131.254 112.316C130.85 113.412 130.494 114.645 129.973 115.597C129.453 116.548 128.816 117.192 128.344 118.082C127.871 118.973 127.864 119.787 127.31 120.678C126.755 121.561 125.823 122.273 125.207 123.218C124.906 123.677 124.618 124.198 124.221 124.684C122.817 126.403 121.468 127.957 120.208 129.95C119.886 130.457 118.633 132.388 118.01 132.484C116.702 132.675 118.147 131.1 118.373 130.751C120.03 128.217 121.591 125.56 123.194 123.006C124.796 120.452 126.371 118.137 127.912 115.501C129.172 113.35 130.028 110.769 132.021 109.077C132.041 109.57 132.165 110.063 131.966 110.543V110.536ZM135.479 87.4719C135.465 88.6292 136.123 90.4371 135.602 91.656C135.602 91.656 135.589 91.6423 135.582 91.6423C134.445 91.6218 132.603 92.4709 131.706 92.7038C129.925 93.1626 128.576 93.4433 127.008 93.8474C124.064 94.6006 121.297 95.306 118.325 95.7716C119.79 93.053 120.407 90.8206 120.133 87.6568C119.784 83.6713 119.229 79.5009 118.332 75.5359C117.435 71.5709 116.325 67.6744 115.291 63.73C114.785 61.7989 114.237 59.9773 113.545 58.0188C112.99 56.4506 112.299 54.7865 113.1 53.1088C115.394 54.9235 117.229 56.6218 118.661 59.2788C120.085 61.9358 121.372 64.9147 123.016 67.5238C123.769 68.7222 124.652 69.8521 125.474 71.0299C125.96 71.7284 126.275 72.7145 126.933 73.3034C127.59 73.8924 128.378 74.3991 128.768 73.098C129.158 71.7969 127.898 69.6055 127.453 68.3935C126.385 65.4762 125.488 62.8192 124.7 59.902C124.064 57.5394 123.084 54.7865 123.468 52.424C123.851 50.0614 125.44 51.6776 126.241 52.8075C127.905 55.1495 128.974 57.7996 130.124 60.443C131.172 62.8671 132.356 65.1133 133.521 67.558C133.925 68.4071 134.397 70.3999 135.452 70.6396C137.006 70.9888 136.89 68.9824 136.719 68.0921C135.575 62.2166 133.514 56.9163 132.719 50.9243C132.678 50.6367 132.22 48.6165 132.644 48.4453C133.466 48.1235 133.966 50.1984 134.199 50.7394C135.431 53.5744 136.342 56.4985 137.171 59.4637C137.876 61.9838 138.485 64.5244 139.266 67.017C139.697 68.3935 140.143 69.7494 140.663 71.0984C141.184 72.4475 141.389 74.3375 142.724 75.1524C143.943 75.892 146.45 74.9607 148.292 74.9264C148.497 74.9264 148.696 74.9264 148.881 74.9538C149.593 75.1113 150.278 75.1113 150.189 75.6523C150.284 75.7961 150.36 75.9673 150.421 76.1659C150.976 78.1244 145.881 79.1722 144.628 79.7268C142.971 80.4596 141.663 81.1512 140.095 81.884C138.91 82.4387 137.431 82.5345 136.541 83.6439C135.65 84.7464 135.52 85.9448 135.5 87.4651L135.479 87.4719ZM130.384 197.101C130.384 197.101 130.391 197.101 130.398 197.115C130.679 198.163 130.398 199.108 130.042 200.1C129.686 201.087 128.946 201.84 128.57 202.819C127.796 204.798 127.7 206.99 127.768 209.064C127.94 213.885 128.932 218.446 129.556 223.192C127.652 223.137 125.392 223.206 123.625 222.617C121.859 222.028 121.591 220.857 121.098 219.275C119.701 214.837 118.339 210.379 117.818 205.743C117.572 203.531 117.462 201.251 117.421 199.073C117.38 197.156 117.832 196.252 119.551 195.293C123.283 193.205 127.399 191.383 131.144 189.233C130.631 191.917 129.576 194.396 130.384 197.115V197.101ZM215.422 157.075C215.196 157.684 213.621 159.28 212.786 160.074C211.95 160.868 211.156 162.053 210.191 162.895C209.225 163.738 205.712 166.148 206.424 162.998C206.979 160.547 209.184 158.869 211.444 157.403C211.889 157.116 215.594 154.733 215.457 156.931C215.457 156.938 215.648 156.472 215.422 157.082V157.075ZM202.788 139.373C202.788 139.373 202.802 139.352 202.815 139.352C204 139.297 204.726 142.119 204.383 142.934C203.678 144.591 201.768 145.413 200.521 146.412C199.693 147.077 198.946 147.686 198.207 148.152C197.467 148.624 197.001 148.371 196.303 148.624C195.289 149.001 194.995 150.014 193.981 150.453C192.571 151.062 190.763 151.377 189.29 151.857C187.496 152.439 185.641 152.658 183.826 152.226C181.224 151.603 177.505 150.555 178.272 147.008C179.621 140.742 189.003 138.407 193.434 143.125C194.584 144.351 194.207 145.995 194.906 147.337C195.604 148.679 196.077 148.234 196.96 147.118C198.118 145.652 199.076 144.296 200.364 142.536C200.781 141.968 201.973 139.927 202.802 139.359L202.788 139.373ZM201.87 170.106C201.713 169.387 201.172 168.299 200.994 167.497C200.61 165.731 202.295 165.47 203.637 166.504C207.116 169.182 206.438 174.133 205.459 178.043C204.349 177.208 203.692 176.523 203.254 175.153C203.089 174.633 202.897 173.996 202.726 173.448C202.555 172.9 202.302 172.174 202.487 171.606C202.487 171.592 202.493 171.62 202.493 171.606C202.692 170.949 202.021 170.832 201.863 170.106H201.87ZM204.288 181.94C204.007 182.652 204.164 183.405 203.438 183.932C202.713 184.46 201.391 184.152 200.535 184.165C199.069 184.179 197.974 184.206 196.447 184.384C195.865 184.453 194.07 185.062 193.516 184.604C192.961 184.145 193.221 182.933 193.502 182.556C194.091 181.782 195.187 182.077 195.96 182.049C198.782 181.947 201.487 181.953 204.294 181.94H204.288ZM205.678 185.679C206.068 185.775 207.91 185.884 207.157 186.535C206.397 187.192 204.37 186.857 203.343 186.932C203.747 185.521 204.349 185.35 205.685 185.672L205.678 185.679ZM202.507 185.61C202.507 188.623 195.851 186.446 194.426 185.727C195.419 185.083 202.507 184.247 202.507 185.61ZM190.955 161.642C190.955 161.642 190.955 161.642 190.934 161.642C185.983 163.847 182.586 168.004 178.197 171.058C177.231 171.729 176.231 171.859 175.622 170.695C175.143 169.778 175.595 168.668 175.964 167.716C176.916 165.313 178.204 163.217 179.881 161.231C183.237 157.26 186.928 154.246 191.811 152.404C192.605 152.103 193.694 151.384 194.105 152.48C194.351 153.123 193.591 154.541 193.481 155.144C193.002 157.664 193.434 160.341 190.948 161.642H190.955ZM194.563 178.488C194.926 178.564 194.543 178.488 194.55 178.488C194.55 178.488 194.557 178.488 194.563 178.488C194.515 178.481 194.468 178.468 194.392 178.454C193.749 178.317 193.988 175.927 194.18 175.194C194.7 173.215 194.57 171.476 194.94 169.559C195.995 172.38 197.077 175.194 198.152 178.016C196.94 178.187 195.885 178.454 194.57 178.488H194.563ZM202.144 137.099C202.144 137.099 202.144 137.085 202.13 137.099C202.733 139.092 201.007 140.42 199.932 141.824C198.515 143.68 197.344 145.467 195.789 147.145C195.296 145.344 194.885 143.153 193.673 141.763C192.132 139.982 190.256 140.475 188.318 139.626C190.482 138.77 192.913 138.907 195.084 138.126C197.255 137.346 199.309 136.503 201.357 135.476C201.624 135.908 202.521 136.586 202.144 137.106V137.099ZM186.996 87.2391C187.085 87.828 187.038 87.5198 186.996 87.2391C187.017 87.376 187.051 87.5678 187.092 87.8417C187.448 90.0878 189.201 95.8401 190.283 99.3326C191.283 102.572 192.571 107.016 193.084 110.707C193.598 114.398 194.502 118.295 195.776 121.856C196.364 123.506 197.001 125.204 197.645 126.807C198.001 127.69 198.426 128.649 198.809 129.457C199.193 130.258 199.912 131.203 199.973 131.936C200.035 132.669 200.145 132.354 199.604 132.785C199.063 133.216 198.049 133.059 197.337 133.148C195.481 133.381 193.831 134.024 191.989 134.463C188.434 135.305 184.75 135.873 181.114 135.38C179.58 135.168 178.094 134.956 176.69 134.593C174.965 134.148 174.54 133.422 174.163 131.71C173.342 127.978 172.677 124.102 172.013 120.274C171.219 115.727 170.397 111.159 169.781 106.55C169.164 101.942 168.664 97.2371 167.767 92.6695C171.63 93.1968 175.28 93.9638 179.135 92.9297C182.552 92.0121 184.887 90.1563 186.99 87.2322C186.948 86.9857 186.914 86.7597 186.99 87.2322L186.996 87.2391ZM159.337 186.856C160.865 186.336 161.207 187.644 161.159 188.918C160.782 188.801 158.529 187.13 159.337 186.856ZM136.102 206.428C135.479 206.996 134.664 204.038 134.596 203.689C134.342 202.319 134.479 201.155 134.466 199.84C134.445 197.793 134.356 195.944 134.315 193.835C134.294 192.691 133.5 190.856 134.829 190.048C135.219 189.808 136.589 189.904 136.945 190.157C137.684 190.678 137.383 190.945 137.198 191.719C136.78 193.472 136.308 195.238 135.938 197.081C135.568 198.923 135.157 200.32 135.37 202.463C135.438 203.168 136.308 205.408 136.095 206.407C136.095 206.421 136.102 206.428 136.095 206.435L136.102 206.428ZM142.998 203.435C143.019 203.689 143.389 204.661 143.163 204.969C142.937 205.278 142.026 205.278 141.759 205.325C140.732 205.517 139.773 205.894 138.821 205.983C136.958 206.161 136.582 205.189 136.308 203.408C135.726 199.601 136.958 195.642 137.972 192.027C138.465 190.267 138.841 190.137 140.54 189.87C141.724 189.685 142.519 189.746 143.43 190.705H143.443C143.019 194.985 142.683 199.08 142.991 203.442L142.998 203.435ZM152.202 202.655C150.332 202.915 148.49 203.34 146.758 203.833C145.47 204.202 144.238 205.243 143.786 203.429C143.402 201.901 143.635 200.142 143.642 198.484C143.649 196.827 143.854 195.184 143.984 193.437C144.073 192.253 143.82 190.356 144.779 189.418C145.737 188.479 147.388 188.603 148.511 188.301C150.367 187.815 151.949 187.493 153.797 187.507C152.989 190.719 152.599 192.739 153.886 196.238C154.256 197.238 156.133 200.354 156.468 201.819C156.468 201.847 156.496 201.847 156.489 201.86C155.941 203.148 153.25 202.504 152.188 202.648L152.202 202.655ZM161.755 200.909C161.31 201.696 159.81 201.497 159.146 201.415C157.126 201.155 156.537 199.943 155.64 198.169C154.229 195.375 152.305 190.931 154.606 188.158C156.42 185.966 159.516 188.432 160.769 190.137C161.844 191.602 161.495 193.246 161.638 195.115C161.762 196.69 162.624 199.375 161.748 200.915L161.755 200.909ZM166.48 84.6642C167.644 83.2741 169.972 83.2946 170.061 81.1444C170.123 79.5214 169.705 77.8163 169.486 76.1659C169.37 75.2688 169.219 74.2348 169.411 73.3377C169.63 72.3036 170.041 72.5707 170.602 71.7147C170.685 71.5915 170.767 71.4613 170.842 71.3381C171.493 70.3314 172.177 68.9618 172.465 67.873C172.499 67.7429 172.52 67.6059 172.52 67.4621C172.52 67.3183 172.492 67.1677 172.438 67.0102C172.479 66.8116 172.513 66.613 172.54 66.4075C172.588 66.1062 172.629 65.8049 172.664 65.4968C172.869 64.8462 172.869 64.1614 172.814 63.5725C172.835 63.2301 172.855 62.8808 172.862 62.5384C172.876 61.8468 172.849 61.1757 172.712 60.5936C172.431 59.4226 171.595 58.998 171.356 57.9092C171.26 57.4846 171.568 57.1354 171.116 56.8478C170.664 56.5602 169.548 57.0327 169.13 57.019C167.815 56.9916 166.596 56.971 166.055 55.6151C165.268 53.6429 167.445 51.6296 169.294 51.4653C170.712 51.3352 171.575 52.2665 172.677 52.8212C173.506 53.2389 173.615 53.2937 173.924 52.3418C174.143 51.6707 173.992 50.7805 174.191 50.0409C174.567 48.6302 175.601 47.2743 176.245 46.028C176.889 44.7817 177.259 43.3915 178.053 42.3712C179.06 41.0769 179.765 41.0632 181.23 41.4604C182.696 41.8576 184.107 41.8028 185.668 41.8507C187.229 41.8987 188.969 42.2068 190.537 42.3712C191.598 42.4876 192.708 41.7275 193.372 43.0012C194.036 44.2749 193.899 46.4457 194.194 47.9317C192.516 47.918 191.742 48.1235 190.872 49.6369C189.996 51.1571 189.455 52.6226 189.736 54.4168C189.838 55.1084 190.4 55.9507 190.407 56.6149C190.42 57.2792 190.407 56.9026 190.016 57.3545C189.804 57.5942 189.359 57.6901 189.195 58.0667C188.455 59.7445 190.749 60.3265 191.872 60.1759C195.919 59.6281 192.372 55.218 191.585 53.4443C191.037 52.2185 191.749 50.4929 192.79 51.8351C193.488 52.7321 193.591 56.1972 195.495 54.4647C196.556 57.5668 196.241 60.8059 196.721 63.9697C197.063 66.2432 197.85 68.6331 195.392 69.8932C192.256 71.5024 188.975 70.4205 185.695 70.0301C182.415 69.6398 181.121 72.468 180.909 75.2688C181.765 76.6453 182.586 79.0147 183.894 79.7337C185.202 80.4527 185.654 81.1444 185.942 82.6235C186.229 84.1027 185.846 84.9519 184.49 85.7462C183.134 86.5406 181.655 87.424 180.176 88.0061C176.978 89.2729 173.609 89.5742 170.239 89.9783C169.055 90.1221 167.959 90.5877 167.261 89.2524C166.631 88.0471 166.562 86.6981 166.411 85.3764C166.391 85.171 166.363 84.945 166.453 84.7601C166.466 84.7396 166.48 84.7122 166.5 84.6848L166.48 84.6642ZM167.261 169.757C167.261 169.757 167.261 169.778 167.247 169.771C166.274 168.99 167.083 167.682 167.028 166.532C166.994 165.758 166.261 164.121 166.713 163.368C167.165 162.608 167.665 163.108 168.384 163.032C169.329 162.937 170.287 162.628 171.109 162.046C172.67 160.944 173.924 159.725 174.958 158.074C175.868 156.616 175.677 154.815 175.711 153.158C175.793 148.891 175.786 144.591 175.779 140.366C175.779 138.421 177.423 139.599 178.724 139.831C180.84 140.208 183.449 139.975 185.599 139.989C184.771 141.133 181.141 141.68 180.306 142.276C178.156 143.817 177.046 145.57 177.389 147.933C178.087 152.699 182.497 153.254 186.586 153.425C183.401 156.376 180.573 158.663 177.868 162.348C175.875 165.059 173.259 169.189 175.868 172.503C173.191 174.064 170.63 175.516 167.658 176.379C167.521 174.174 167.384 171.962 167.267 169.757H167.261ZM188.626 263.232C188.626 263.232 188.633 263.246 188.613 263.259C190.989 264.8 192.934 265.985 195.7 267.149C197.255 267.8 201.733 268.505 202.418 270.34C202.788 271.326 201.815 271.792 201.103 271.99C200.391 272.189 199.2 271.648 198.439 271.559C195.666 271.258 192.94 271.141 190.249 270.457C184.867 269.087 179.306 268.388 173.917 267.17C172.629 266.882 171.232 266.553 170.061 266.272C168.89 265.992 168.274 266.019 168.233 264.711C168.144 261.842 168.884 258.89 168.938 255.987C173.287 256.446 177.793 256.494 182.086 256.904C183.922 257.082 183.894 257.603 184.832 259.089C185.771 260.575 187.928 261.472 188.633 263.232H188.626ZM168.685 205.668C168.747 204.045 168.527 202.264 168.712 200.669C168.904 199.073 169.582 199.087 171.082 198.806C174.348 198.197 177.806 197.498 181.121 196.697C182.436 196.382 183.908 195.738 185.278 195.779C186.647 195.821 186.647 196.546 186.544 197.765C186.325 200.484 185.832 203.374 185.668 206.127C185.49 209.099 185.428 212.324 185.415 215.18C185.415 216.145 185.688 216.912 184.785 216.015C183.881 215.118 183.538 213.577 182.689 212.495C180.95 210.283 178.84 208.647 176.094 207.804C174.574 207.339 173.246 207.373 171.568 207.613C171.054 207.688 169.253 208.914 168.705 208.462C168.151 208.01 168.644 206.284 168.664 205.723C168.664 205.545 168.699 205.784 168.685 205.682V205.668ZM170.52 209.051C176.012 207.469 180.224 210.544 183.271 214.83C185.017 217.282 185.141 219.247 185.045 222.007C185.011 222.993 185.147 223.719 184.127 224.199C183.107 224.678 181.107 224.335 180.046 224.377C176.992 224.479 173.972 224.698 171.082 224.5C169.205 224.377 168.911 223.979 168.877 222.178C168.829 219.994 168.726 217.672 168.589 215.399C168.452 213.132 167.63 209.886 170.52 209.058V209.051ZM184.12 233.745C184.463 236.244 184.689 249.865 182.449 250.036C175.451 250.563 172.65 244.496 169.959 239.394C168.514 236.655 169.246 233.43 168.973 230.423C168.925 229.875 168.521 228.574 169.233 228.122C169.945 227.67 171.801 228.869 172.431 229.019C175.67 229.8 178.779 229.704 181.84 229.156C183.162 228.917 183.709 228.205 184.353 229.622C184.86 230.752 183.929 232.3 184.127 233.751L184.12 233.745ZM169.534 250.645C170.787 247.543 168.973 243.667 169.486 240.408C170.911 243.256 172.26 245.818 174.691 247.995C175.93 249.105 177.231 250.009 178.943 250.645C179.587 250.885 182.614 250.885 182.826 251.714C183.196 253.165 180.922 252.487 180.313 252.412C179.703 252.337 179.258 252.09 178.724 252.001C177.717 251.837 176.724 252.056 175.745 252.07C174.252 252.09 172.588 251.988 171.178 252.07C169.767 252.159 169.657 251.892 169.507 250.639C169.534 250.591 169.493 250.721 169.527 250.639L169.534 250.645ZM184.148 227.965C182.963 228.677 181.087 228.526 179.82 228.643C177.786 228.828 176.067 228.725 174.115 228.444C172.65 228.232 170.63 227.917 169.603 226.945C168.137 225.554 169.767 225.5 170.945 225.575C174.396 225.794 177.711 225.65 181.285 225.417C181.977 225.37 183.483 224.685 184.312 225.116C185.134 225.554 184.983 227.458 184.148 227.965ZM187.311 190.972C187.311 190.972 187.311 190.972 187.305 190.986C186.565 191.897 187.332 193.485 186.586 194.334C185.839 195.177 184.49 195.067 183.559 195.273C180.717 195.896 178.026 196.409 175.218 197.012C173.958 197.279 172.794 197.512 171.472 197.765C170.842 197.889 169.541 198.484 168.952 197.937C168.363 197.389 168.788 196.142 168.822 195.519C168.897 194.273 168.87 193.068 168.87 191.917C168.863 189.698 168.931 188.719 171.054 187.534C173.177 186.35 175.67 185.405 178.217 184.96C180.772 184.514 183.251 184.802 185.743 185.733C186.435 185.994 187.407 186.268 187.75 187.096C188.222 188.233 188.215 190 187.318 190.972H187.311ZM190.208 173.119C189.551 177.358 188.886 181.597 188.037 185.788C186.407 185.281 184.88 184.241 183.216 183.912C181.552 183.583 179.97 183.535 178.32 183.816C174.821 184.419 171.869 186.021 168.747 187.671C168.637 184.651 167.706 181.837 168.069 178.749C168.37 176.187 172.047 175.619 174.026 174.64C175.225 174.044 176.19 173.243 177.505 172.989C178.82 172.736 180.135 172.777 181.436 172.353C184.517 171.36 187.483 169.928 190.516 168.764C190.687 170.25 190.441 171.654 190.194 173.119C190.201 173.119 190.208 173.113 190.215 173.113L190.208 173.119ZM191.331 166.854C191.331 166.854 191.345 166.84 191.331 166.84C189.058 166.902 187.558 168.771 185.606 169.689C183.655 170.606 181.313 172.127 179.108 171.62C183.668 168.504 188.126 165.381 192.091 161.533C192.249 162.402 191.927 163.457 191.742 164.21C191.557 164.957 192.126 166.689 191.324 166.847L191.331 166.854ZM192.488 192.04C192.714 192.383 193.475 193.704 192.824 193.896C191.941 194.163 191.79 192.328 192.488 192.04ZM191.578 196.553C191.543 194.889 194.057 194.793 193.981 196.492C193.933 197.553 191.598 197.546 191.578 196.553ZM194.906 196.163C194.967 195.101 197.029 195.807 197.207 196.56C196.597 196.759 194.844 197.217 194.906 196.163ZM198.268 195.478C198.268 195.478 198.254 195.478 198.248 195.478C197.467 195.622 196.2 194.841 195.645 194.595C194.563 194.122 194.276 193.93 193.755 192.992C193.235 192.061 192.557 191.205 192.399 190.102C192.187 188.644 192.762 187.172 192.975 185.727C193.872 187.117 195.152 187.192 196.727 187.493C197.919 187.726 200.186 187.13 201.131 188.13C202.076 189.13 200.596 190.657 200.151 191.732C199.706 192.807 199.473 194.814 198.268 195.464V195.478ZM213.368 195.033C211.17 195.012 208.999 195.526 206.835 195.725C204.137 195.971 201.494 196.211 198.802 196.423C199.549 194.334 200.713 192.184 201.678 190.26C202.644 188.336 203.541 187.966 205.561 187.788C207.581 187.61 209.02 187.076 210.601 188.712C212.183 190.349 213.614 192.547 215.073 194.369C214.532 194.725 214.025 195.04 213.368 195.033ZM223.092 187.877C221.812 189 224.078 190.698 222.736 191.986C221.627 193.047 219.579 193.663 218.1 193.951C216.073 194.348 215.416 193.307 214.272 191.821C213.128 190.335 211.841 188.678 210.581 187.24C214.635 186.329 218.689 185.432 222.743 184.521C222.88 185.494 224.023 187.13 223.092 187.87V187.877ZM219.36 168.435C220.195 170.079 219.908 171.633 220.353 173.38C220.579 174.284 221.586 176.009 220.935 176.941C219.826 178.509 215.183 176.893 213.957 176.276C211.047 174.811 210.156 172.681 212.485 170.25C213.361 169.339 218.531 166.778 219.367 168.429L219.36 168.435ZM215.922 157.294C217.066 159.04 217.538 161.19 218.127 163.135C218.545 164.525 220.093 166.902 217.977 167.47C215.005 168.271 209.971 168.956 210.382 173.051C210.868 177.886 216.34 177.632 219.99 178.05C222.037 178.283 221.921 179.776 222.243 181.392C222.387 182.118 222.757 183.124 222.065 183.72C221.38 184.316 219.805 184.247 219.031 184.405C216.792 184.857 214.532 185.425 212.437 185.809C210.054 186.247 208.444 185.555 206.26 184.932C205.459 184.706 204.623 184.816 204.479 183.795C204.397 183.165 205 182.357 205.185 181.741C205.911 179.276 206.575 177.215 206.787 174.558C207.095 170.702 206.588 166.402 202.398 165.128C200.398 164.518 199.939 164.642 198.932 162.642C197.926 160.649 196.508 158.787 196.734 156.184C196.899 154.301 196.549 151.507 197.666 149.761C198.179 148.953 199.172 148.686 199.864 148.172C200.747 147.508 201.603 146.844 202.411 146.159C203.219 145.474 203.822 144.468 204.733 144.009C205.65 143.55 205.787 143.803 206.424 144.687C207.362 145.995 208.924 149.117 210.766 148.994C212.608 148.871 213.19 148.261 213.813 150.062C214.436 151.863 214.696 153.541 215.354 155.294C212.779 155.664 210.595 156.725 208.677 158.472C207.321 159.711 204.452 162.69 205.527 164.47C208.136 168.792 214.306 159.492 215.909 157.28L215.922 157.294Z" fill="#212121"/>
<path fill-rule="evenodd" clip-rule="evenodd" d="M249.929 28.9286C248.382 28.9286 247.046 28.0315 246.437 26.5798C246.088 25.7443 245.314 22.7312 250.142 19.1634C250.895 18.6087 252.415 17.6706 254.066 17.6706C256.106 17.6706 257.674 19.0812 257.969 21.1767C258.339 23.868 255.332 26.2716 254.024 27.1824L253.86 27.2988C252.758 28.0863 251.463 28.9218 249.929 28.9218V28.9286Z" fill="white"/>
<path fill-rule="evenodd" clip-rule="evenodd" d="M231.282 23.3749C229.022 23.1695 227.146 22.4094 225.4 21.1014C223.523 19.6839 220.551 18.6087 221.366 15.8627C221.99 14.1302 223.476 12.5003 225.366 12.2401C228.112 11.8224 231.282 14.3356 233.042 16.8351C235.062 19.725 237.062 24.046 231.433 23.3886L231.282 23.3749Z" fill="white"/>
<path fill-rule="evenodd" clip-rule="evenodd" d="M238.055 21.163C236.905 18.0404 237.863 11.5005 241.294 10.22C243.794 9.26811 246.149 11.569 246.471 13.9795C246.937 16.6708 245.999 19.1634 244.259 21.1493C242.164 23.5872 239.671 25.7854 238.103 21.3L238.055 21.1562V21.163Z" fill="white"/>
<path fill-rule="evenodd" clip-rule="evenodd" d="M225.222 30.353C224.373 30.353 223.695 30.0448 223.222 29.7915C223.167 29.7915 223.051 29.7915 223.051 29.7915C222.661 29.7915 222.277 29.7298 221.901 29.6066C221.12 29.3532 218.47 28.3876 217.162 26.5318C216.415 25.4772 216.265 24.183 216.758 23.0599C217.285 21.8547 218.442 21.0466 219.928 20.8549C220.1 20.8343 220.271 20.8206 220.449 20.8206C221.709 20.8206 222.798 21.4027 223.592 21.8341C223.756 21.9231 223.914 22.0053 224.058 22.0738C224.14 22.108 224.243 22.156 224.359 22.2108C225.729 22.8065 229.892 24.6212 228.44 28.1206C227.872 29.497 226.639 30.3461 225.229 30.3461L225.222 30.353Z" fill="white"/>
<path fill-rule="evenodd" clip-rule="evenodd" d="M254.723 38.5637C254.271 38.5637 253.887 38.5295 253.552 38.4542C252.477 38.2213 251.511 37.6119 250.669 36.9955L250.532 36.9545L250.032 36.5093L249.991 36.4683C249.101 35.5986 248.82 34.2974 249.286 33.1538C250.094 31.1679 252.415 30.9351 254.086 30.9351C258.496 30.9351 259.729 32.9895 260.071 34.2153C260.331 35.1397 260.146 36.119 259.557 36.8928C258.51 38.2761 256.346 38.5637 254.716 38.5637H254.723Z" fill="white"/>
<path d="M247.594 29.9079C246.834 28.5246 245.437 27.6275 243.889 27.5111C243.52 26.9085 243.033 26.3812 242.438 25.9703C241.575 25.3677 240.548 25.0527 239.479 25.0527C238.747 25.0527 238.014 25.2102 237.356 25.5115C237.322 25.5252 237.281 25.5457 237.247 25.5663C236.357 24.7514 235.186 24.2925 233.96 24.2925C233.59 24.2925 233.22 24.3336 232.878 24.4158C232.008 24.6144 231.214 25.0938 230.529 25.8402C229.235 27.244 228.94 29.3327 229.796 31.0378C230.029 31.4966 230.228 31.976 230.399 32.4622C228.098 33.1538 225.872 34.4823 223.859 36.3929C221.764 38.3857 220.209 40.6455 218.709 42.8368C217.538 44.5488 216.087 46.795 214.964 49.4246C213.82 50.2395 213.019 51.4653 212.731 52.8828C212.293 55.0331 213.121 57.1902 214.875 58.505C218.292 61.0593 222.051 63.0589 226.044 64.449C230.413 65.9693 234.994 66.7431 239.657 66.7431H239.746C241.862 66.7431 243.773 65.5653 244.739 63.6821C245.464 62.2645 245.547 60.6416 245.019 59.1829C246.129 55.6905 246.759 51.8488 246.766 48.4659V47.7263C246.793 45.0693 246.813 42.0493 245.458 39.1526C245.163 38.5158 244.8 37.9063 244.389 37.3311C244.958 36.838 245.54 36.3655 246.156 35.9409C248.121 34.5919 248.745 32.0034 247.601 29.9079H247.594Z" fill="white"/>
<path fill-rule="evenodd" clip-rule="evenodd" d="M251.874 21.5123C250.936 22.2039 248.649 24.3337 249.121 25.4567C249.703 26.8469 251.676 25.2718 252.36 24.7925C253.23 24.1898 255.202 22.471 255.079 21.5808C254.833 19.7934 252.806 20.8138 251.867 21.5054L251.874 21.5123Z" fill="#212121"/>
<path fill-rule="evenodd" clip-rule="evenodd" d="M226.639 17.4788C226.557 18.4238 227.509 18.9032 228.324 19.4716C229.139 20.0399 230.036 20.4234 231.125 20.3892C230.584 18.8142 229.543 17.3898 228.269 16.1914C227.201 15.1916 225.633 14.1781 225.078 15.9312C225.386 15.9586 225.694 15.9723 226.002 15.9928C226.002 16.5954 226.797 16.883 226.653 17.4788C226.653 17.4857 226.646 17.472 226.646 17.4788H226.639Z" fill="#212121"/>
<path fill-rule="evenodd" clip-rule="evenodd" d="M241.534 14.0343C241.403 14.4726 240.999 16.0545 240.869 16.9105C240.773 17.5336 240.185 18.6567 240.63 19.3757C240.993 18.9512 241.013 19.5264 241.356 19.4579C241.691 19.3963 241.643 19.1635 241.89 18.9991C242.753 18.4102 242.931 17.8486 243.211 16.8694C243.43 16.1024 243.924 15.0204 243.533 14.1713C243.143 13.329 242.033 12.8154 241.575 13.9111C241.575 13.9179 241.664 13.5892 241.54 14.0275L241.534 14.0343Z" fill="#212121"/>
<path fill-rule="evenodd" clip-rule="evenodd" d="M219.538 24.861C220.154 25.7307 221.709 26.4908 222.791 26.84C223.215 26.977 223.448 26.7236 223.797 26.8195C224.462 27.0044 225.331 27.9973 225.742 27.0112C226.153 26.0251 223.578 25.0801 222.811 24.7172C222.037 24.3542 221.031 23.6557 220.298 23.7516C219.565 23.8475 219.12 24.2789 219.538 24.8678V24.861Z" fill="#212121"/>
<path fill-rule="evenodd" clip-rule="evenodd" d="M252.032 34.3865C252.634 34.8384 253.483 35.4616 254.175 35.6123C254.867 35.7629 257.414 35.4958 257.277 34.9959C256.812 33.3387 251.422 33.7838 252.025 34.3796C252.025 34.3796 252.025 34.3796 252.032 34.3796V34.3865Z" fill="#212121"/>
<path d="M230.248 52.5062L231.09 52.7459C231.296 52.0542 231.584 50.76 231.946 48.8699L232.125 47.8564C231.974 47.562 231.768 47.199 231.508 46.7676C231.248 46.3362 231.036 45.9801 230.878 45.6993C230.714 45.4185 230.563 45.1035 230.413 44.7543C230.118 44.0695 230.05 43.4737 230.228 42.967C230.406 42.4602 230.721 42.063 231.2 41.7823C231.673 41.5015 232.296 41.433 233.07 41.5768C233.083 41.2824 233.111 41.0906 233.145 40.9879C233.254 40.6729 233.501 40.577 233.891 40.7071C234.275 40.8578 234.467 40.9948 234.46 41.1249C234.46 41.2344 234.432 41.3851 234.364 41.5837C234.295 41.7823 234.309 41.8918 234.391 41.9261C234.843 42.0767 235.302 42.3233 235.781 42.652C235.822 42.6999 235.939 42.8026 236.124 42.967C236.315 43.1313 236.466 43.2683 236.583 43.3778C236.911 43.686 237.055 43.9051 237.007 44.0353C236.959 44.1859 236.85 44.2612 236.685 44.2681C236.521 44.2681 236.336 44.2407 236.124 44.1722C235.911 44.1037 235.692 43.9805 235.459 43.8093C235.234 43.6381 235.001 43.4395 234.761 43.2135C234.521 42.9875 234.302 42.8095 234.097 42.6725L233.741 43.912C233.576 44.3913 233.474 44.9049 233.426 45.4596C233.378 46.0143 233.343 46.3293 233.33 46.4115C233.46 46.4457 233.734 46.9182 234.165 47.8359C234.59 48.7535 234.918 49.5068 235.138 50.082C235.692 51.4858 235.925 52.3281 235.822 52.6295C235.72 52.9308 235.569 53.1499 235.37 53.3074C235.172 53.4649 234.939 53.5813 234.686 53.6498C234.432 53.7183 234.152 53.7731 233.85 53.8005C233.316 53.8552 232.768 53.8415 232.207 53.7662C232.077 54.3962 232.001 54.7318 231.988 54.7729C231.837 55.218 231.522 55.3618 231.049 55.1974C230.577 55.0331 230.392 54.7866 230.508 54.4442L230.844 53.4581C229.728 53.0814 228.892 52.7185 228.331 52.3761C227.769 52.0337 227.557 51.6707 227.687 51.2872C227.721 51.1914 227.824 51.1366 228.009 51.116C228.187 51.0955 228.386 51.1161 228.591 51.1914C228.796 51.2667 228.954 51.3489 229.063 51.4584C229.173 51.568 229.276 51.705 229.365 51.8625C229.454 52.0268 229.536 52.1432 229.611 52.2254L230.248 52.5062ZM232.953 42.4739C232.351 42.515 231.967 42.7958 231.789 43.3025C231.611 43.8093 231.837 44.5146 232.453 45.4185C232.474 44.7885 232.638 43.8093 232.953 42.4739ZM232.316 52.965C233.22 52.9376 233.727 52.7596 233.843 52.424C233.96 52.0885 233.98 51.6981 233.905 51.2462C233.823 50.6367 233.686 50.1094 233.501 49.6711C233.316 49.2329 233.213 48.9795 233.193 48.9178C233.097 49.2739 232.967 49.9108 232.789 50.8421C232.611 51.7666 232.453 52.4788 232.316 52.965Z" fill="black"/>
<path d="M240.76 36.208C240.609 36.1258 240.459 36.0505 240.301 35.982C238.418 35.1123 236.432 34.4481 234.398 34.0167L233.871 33.4894C233.59 32.1814 233.145 30.9214 232.556 29.7298C232.241 29.093 232.344 28.326 232.823 27.8056C233.111 27.4974 233.391 27.3125 233.686 27.244C234.391 27.0797 235.151 27.3331 235.617 27.8877C235.898 28.2233 236.035 28.6068 236.144 28.9423L236.213 29.1341C236.343 29.4902 236.466 29.6134 236.535 29.6477C236.685 29.723 237.007 29.586 237.281 29.3395C237.391 29.2368 237.493 29.1341 237.596 29.0245C237.897 28.7164 238.24 28.3671 238.712 28.1548C239.424 27.833 240.294 27.9151 240.931 28.3603C241.568 28.8054 241.945 29.5929 241.89 30.3736C241.876 30.5311 241.849 30.6817 241.821 30.8392C241.801 30.9351 241.787 31.0241 241.773 31.12C241.773 31.1679 241.773 31.209 241.773 31.2364C241.821 31.2364 241.903 31.2159 241.986 31.1679C242.102 31.1063 242.212 31.0241 242.321 30.9488C242.506 30.8187 242.718 30.6749 242.972 30.5653C243.848 30.1955 244.759 30.5174 245.19 31.3049C245.622 32.0924 245.396 33.0306 244.656 33.5373C243.554 34.2906 242.513 35.1534 241.561 36.0985L240.753 36.2149L240.76 36.208ZM235.11 32.7703C237.096 33.2223 239.027 33.8866 240.876 34.7357C240.904 34.7494 240.931 34.7631 240.958 34.7768C241.876 33.9071 242.855 33.1127 243.889 32.4074C244.115 32.2568 244.054 32.0582 243.999 31.9554C243.944 31.8527 243.814 31.6952 243.561 31.8048C243.403 31.8733 243.259 31.9691 243.116 32.0719C242.965 32.1746 242.807 32.2841 242.65 32.3732C242.102 32.6676 241.321 32.7361 240.815 32.2294C240.52 31.9349 240.383 31.4966 240.424 30.9967C240.438 30.8529 240.465 30.7159 240.493 30.579C240.513 30.4763 240.534 30.3804 240.541 30.2777C240.561 29.9764 240.411 29.6614 240.164 29.4902C239.918 29.319 239.561 29.2847 239.294 29.408C239.055 29.5176 238.829 29.7435 238.596 29.9901C238.473 30.1202 238.349 30.2434 238.219 30.3599C237.493 31.0173 236.644 31.2159 235.959 30.8872C235.364 30.5995 235.09 30.0243 234.939 29.6066L234.864 29.3943C234.782 29.1478 234.699 28.9149 234.583 28.7711C234.453 28.6136 234.206 28.5314 234.015 28.5794C234.015 28.5794 233.96 28.6136 233.843 28.7369C233.748 28.8396 233.727 28.9903 233.795 29.1204C234.378 30.2777 234.823 31.5103 235.131 32.7703H235.11Z" fill="#231F20"/>
<path d="M239.815 63.8327C235.48 63.8327 231.221 63.1137 227.16 61.703C223.448 60.4088 219.956 58.553 216.778 56.1767C215.929 55.5398 215.532 54.5058 215.744 53.4649C215.936 52.5336 216.573 51.794 217.443 51.4585C218.49 48.6919 220.031 46.2882 221.271 44.4872C222.688 42.426 224.154 40.2894 226.03 38.5089C228.173 36.4682 230.57 35.2219 232.96 34.9069C233.131 34.8864 233.275 34.8316 233.405 34.7563H234.131C234.261 34.8453 234.405 34.9206 234.542 34.9891C235.028 35.2219 235.583 35.3794 236.124 35.5369C237.535 35.941 238.979 36.3587 240.397 36.6052L240.965 37.2352C240.979 37.4886 241.089 37.7214 241.26 37.9063C241.979 38.6528 242.554 39.4882 242.979 40.3921C244.061 42.6999 244.04 45.2473 244.02 47.7126V48.459C244.006 51.9036 243.266 55.9781 242.027 59.4295C242.047 59.4569 242.068 59.4843 242.088 59.5117C242.698 60.354 242.78 61.4497 242.308 62.3673C241.842 63.2712 240.924 63.8396 239.904 63.8396H239.822L239.815 63.8327ZM233.727 36.1122C233.542 36.1875 233.35 36.2354 233.145 36.2628C230.474 36.6189 228.31 38.2213 226.961 39.5019C225.188 41.1865 223.763 43.2614 222.394 45.2679C221.154 47.0758 219.6 49.4999 218.607 52.2528L218.155 52.6774L218.086 52.6979C217.566 52.828 217.189 53.2184 217.086 53.7457C216.977 54.2661 217.169 54.7729 217.6 55.0879C220.668 57.382 224.03 59.1693 227.612 60.4156C231.529 61.7783 235.638 62.47 239.822 62.47H239.897C240.411 62.47 240.849 62.1961 241.082 61.7441C241.321 61.2784 241.28 60.7443 240.972 60.3197C240.863 60.1691 240.767 60.0184 240.671 59.8609L240.616 59.272C241.869 55.8959 242.629 51.8556 242.636 48.4522V47.6989C242.657 45.3843 242.677 42.9944 241.732 40.9674C241.376 40.2004 240.883 39.4882 240.267 38.8513C239.993 38.5706 239.801 38.2282 239.692 37.8652C238.363 37.605 237.048 37.2284 235.768 36.8586C235.158 36.6805 234.549 36.5093 233.96 36.2286C233.885 36.1943 233.809 36.1532 233.734 36.119L233.727 36.1122Z" fill="#231F20"/>
</svg>
