<?xml version="1.0" encoding="utf-8"?>
<!-- Generator: Adobe Illustrator 28.0.0, SVG Export Plug-In . SVG Version: 6.00 Build 0)  -->
<svg version="1.1" id="Layer_1" xmlns="http://www.w3.org/2000/svg" xmlns:xlink="http://www.w3.org/1999/xlink" x="0px" y="0px"
	 viewBox="0 0 191 29" style="enable-background:new 0 0 191 29;" xml:space="preserve">
<style type="text/css">
	.st0{fill:#429488;}
	.st1{fill:#6AB4AC;}
	.st2{fill:#3A3A3A;}
</style>
<path class="st0" d="M19.9,5.6h-6.7c-0.1,0-0.2,0.1-0.2,0.2v19.1c0,2.2,1.8,4,4,4h2.9c2.2,0,4-1.8,4-4V9.6
	C23.9,7.4,22.1,5.6,19.9,5.6z"/>
<path class="st0" d="M32.3,0h-6.7c-0.1,0-0.2,0.1-0.2,0.2v24.7c0,2.2,1.8,4,4,4h2.9c2.2,0,4-1.8,4-4V4C36.3,1.8,34.5,0,32.3,0z"/>
<path class="st1" d="M7.4,12.4H0.8c-0.1,0-0.2,0.1-0.2,0.2v12.3c0,2.2,1.8,4,4,4h2.9c2.2,0,4-1.8,4-4v-8.6
	C11.4,14.2,9.6,12.4,7.4,12.4z"/>
<path class="st1" d="M1.9,0H0.8C0.7,0,0.6,0.1,0.6,0.2v0.9c0,2.2,1.8,4,4,4h1.1c0.1,0,0.2-0.1,0.2-0.2V4C5.9,1.8,4.1,0,1.9,0z"/>
<path class="st2" d="M59.6,8c2.8,0,4.6,1.8,4.6,5.2v9.2c0,0.4-0.3,0.7-0.7,0.7h-2.4c-0.5,0-0.7-0.3-0.7-0.7v-9c0-1.5-0.9-2-1.9-2
	c-1,0-2.2,0.6-2.2,2.5v8.4c0,0.4-0.3,0.7-0.7,0.7h-2.4c-0.5,0-0.7-0.3-0.7-0.7v-9c0-1.5-0.9-2-1.9-2S48.3,12,48.3,14v8.4
	c0,0.4-0.3,0.7-0.7,0.7h-2.4c-0.5,0-0.7-0.3-0.7-0.7V9.1c0-0.4,0.3-0.7,0.7-0.7h2.4c0.5,0,0.7,0.3,0.7,0.7v0.7
	C49.2,8.6,50.4,8,51.9,8c1.5,0,2.8,0.7,3.6,1.9C56.5,8.6,57.9,8,59.6,8L59.6,8z"/>
<path class="st2" d="M59.6,8c2.8,0,4.6,1.8,4.6,5.2v9.2c0,0.4-0.3,0.7-0.7,0.7h-2.4c-0.5,0-0.7-0.3-0.7-0.7v-9c0-1.5-0.9-2-1.9-2
	c-1,0-2.2,0.6-2.2,2.5v8.4c0,0.4-0.3,0.7-0.7,0.7h-2.4c-0.5,0-0.7-0.3-0.7-0.7v-9c0-1.5-0.9-2-1.9-2S48.3,12,48.3,14v8.4
	c0,0.4-0.3,0.7-0.7,0.7h-2.4c-0.5,0-0.7-0.3-0.7-0.7V9.1c0-0.4,0.3-0.7,0.7-0.7h2.4c0.5,0,0.7,0.3,0.7,0.7v0.7
	C49.2,8.6,50.4,8,51.9,8c1.5,0,2.8,0.7,3.6,1.9C56.5,8.6,57.9,8,59.6,8L59.6,8z"/>
<path class="st2" d="M90.4,8c2.8,0,4.8,2.1,4.8,5.7v8.7c0,0.4-0.3,0.7-0.7,0.7h-2.4c-0.5,0-0.7-0.3-0.7-0.7V14c0-1.7-1-2.5-2.4-2.5
	c-1.5,0-2.7,0.9-2.7,3.1v7.8c0,0.4-0.3,0.7-0.7,0.7h-2.4c-0.5,0-0.7-0.3-0.7-0.7V9.1c0-0.4,0.3-0.7,0.7-0.7h2.4
	c0.5,0,0.7,0.3,0.7,0.7v0.8C87.2,8.6,88.6,8,90.4,8L90.4,8z"/>
<path class="st2" d="M90.4,8c2.8,0,4.8,2.1,4.8,5.7v8.7c0,0.4-0.3,0.7-0.7,0.7h-2.4c-0.5,0-0.7-0.3-0.7-0.7V14c0-1.7-1-2.5-2.4-2.5
	c-1.5,0-2.7,0.9-2.7,3.1v7.8c0,0.4-0.3,0.7-0.7,0.7h-2.4c-0.5,0-0.7-0.3-0.7-0.7V9.1c0-0.4,0.3-0.7,0.7-0.7h2.4
	c0.5,0,0.7,0.3,0.7,0.7v0.8C87.2,8.6,88.6,8,90.4,8L90.4,8z"/>
<path class="st2" d="M112.6,15.7c0,0.3,0,0.6,0,0.9c-0.1,0.4-0.3,0.6-0.8,0.6h-10.5c0.5,2.1,2.1,3.1,4,3.1c1.1,0,2.1-0.4,2.7-1.1
	c0.3-0.2,0.5-0.4,0.9-0.4l2.4,0c0.5,0,0.8,0.3,0.6,0.8c-1.1,2.5-3.6,3.9-6.6,3.9c-4.8,0-8-3.4-8-7.8s3.2-7.8,7.9-7.8
	C109.6,8,112.6,11.4,112.6,15.7L112.6,15.7z M108.8,14.3c-0.4-2.1-2-2.9-3.6-2.9c-2,0-3.4,1.1-3.9,2.9H108.8L108.8,14.3z"/>
<path class="st2" d="M112.6,15.7c0,0.3,0,0.6,0,0.9c-0.1,0.4-0.3,0.6-0.8,0.6h-10.5c0.5,2.1,2.1,3.1,4,3.1c1.1,0,2.1-0.4,2.7-1.1
	c0.3-0.2,0.5-0.4,0.9-0.4l2.4,0c0.5,0,0.8,0.3,0.6,0.8c-1.1,2.5-3.6,3.9-6.6,3.9c-4.8,0-8-3.4-8-7.8s3.2-7.8,7.9-7.8
	C109.6,8,112.6,11.4,112.6,15.7L112.6,15.7z M108.8,14.3c-0.4-2.1-2-2.9-3.6-2.9c-2,0-3.4,1.1-3.9,2.9H108.8L108.8,14.3z"/>
<path class="st2" d="M123.8,8.4h2.6c0.5,0,0.8,0.3,0.6,0.8l-6.6,19.3c-0.1,0.4-0.4,0.6-0.8,0.6H117c-0.5,0-0.8-0.3-0.6-0.8l1.8-5.3
	l-5.4-13.7c-0.2-0.5,0-0.8,0.6-0.8h2.6c0.4,0,0.7,0.2,0.8,0.6l3.3,8.7l2.9-8.7C123.1,8.5,123.4,8.4,123.8,8.4L123.8,8.4z"/>
<path class="st2" d="M123.8,8.4h2.6c0.5,0,0.8,0.3,0.6,0.8l-6.6,19.3c-0.1,0.4-0.4,0.6-0.8,0.6H117c-0.5,0-0.8-0.3-0.6-0.8l1.8-5.3
	l-5.4-13.7c-0.2-0.5,0-0.8,0.6-0.8h2.6c0.4,0,0.7,0.2,0.8,0.6l3.3,8.7l2.9-8.7C123.1,8.5,123.4,8.4,123.8,8.4L123.8,8.4z"/>
<path class="st2" d="M143.7,8c2.8,0,4.6,1.8,4.6,5.2v9.2c0,0.4-0.3,0.7-0.7,0.7h-2.4c-0.5,0-0.7-0.3-0.7-0.7v-9c0-1.5-0.9-2-1.9-2
	c-1,0-2.2,0.6-2.2,2.5v8.4c0,0.4-0.3,0.7-0.7,0.7h-2.4c-0.5,0-0.7-0.3-0.7-0.7v-9c0-1.5-0.9-2-1.9-2s-2.2,0.6-2.2,2.5v8.4
	c0,0.4-0.3,0.7-0.7,0.7h-2.4c-0.5,0-0.7-0.3-0.7-0.7V9.1c0-0.4,0.3-0.7,0.7-0.7h2.4c0.5,0,0.7,0.3,0.7,0.7v0.7
	c0.8-1.2,2.1-1.8,3.6-1.8c1.5,0,2.8,0.7,3.6,1.9C140.6,8.6,141.9,8,143.7,8L143.7,8z"/>
<path class="st2" d="M143.7,8c2.8,0,4.6,1.8,4.6,5.2v9.2c0,0.4-0.3,0.7-0.7,0.7h-2.4c-0.5,0-0.7-0.3-0.7-0.7v-9c0-1.5-0.9-2-1.9-2
	c-1,0-2.2,0.6-2.2,2.5v8.4c0,0.4-0.3,0.7-0.7,0.7h-2.4c-0.5,0-0.7-0.3-0.7-0.7v-9c0-1.5-0.9-2-1.9-2s-2.2,0.6-2.2,2.5v8.4
	c0,0.4-0.3,0.7-0.7,0.7h-2.4c-0.5,0-0.7-0.3-0.7-0.7V9.1c0-0.4,0.3-0.7,0.7-0.7h2.4c0.5,0,0.7,0.3,0.7,0.7v0.7
	c0.8-1.2,2.1-1.8,3.6-1.8c1.5,0,2.8,0.7,3.6,1.9C140.6,8.6,141.9,8,143.7,8L143.7,8z"/>
<path class="st2" d="M165.7,15.7c0,0.3,0,0.6,0,0.9c-0.1,0.4-0.3,0.6-0.8,0.6h-10.5c0.5,2.1,2.1,3.1,4,3.1c1.1,0,2.1-0.4,2.7-1.1
	c0.3-0.2,0.5-0.4,0.9-0.4l2.4,0c0.5,0,0.8,0.3,0.6,0.8c-1.1,2.5-3.6,3.9-6.6,3.9c-4.9,0-8-3.4-8-7.8s3.2-7.8,7.9-7.8
	C162.7,8,165.7,11.4,165.7,15.7L165.7,15.7z M161.9,14.3c-0.4-2.1-2-2.9-3.6-2.9c-2,0-3.4,1.1-3.9,2.9H161.9L161.9,14.3z"/>
<path class="st2" d="M165.7,15.7c0,0.3,0,0.6,0,0.9c-0.1,0.4-0.3,0.6-0.8,0.6h-10.5c0.5,2.1,2.1,3.1,4,3.1c1.1,0,2.1-0.4,2.7-1.1
	c0.3-0.2,0.5-0.4,0.9-0.4l2.4,0c0.5,0,0.8,0.3,0.6,0.8c-1.1,2.5-3.6,3.9-6.6,3.9c-4.9,0-8-3.4-8-7.8s3.2-7.8,7.9-7.8
	C162.7,8,165.7,11.4,165.7,15.7L165.7,15.7z M161.9,14.3c-0.4-2.1-2-2.9-3.6-2.9c-2,0-3.4,1.1-3.9,2.9H161.9L161.9,14.3z"/>
<path class="st2" d="M175.9,8c2.8,0,4.8,2.1,4.8,5.7v8.7c0,0.4-0.3,0.7-0.7,0.7h-2.4c-0.5,0-0.7-0.3-0.7-0.7V14c0-1.7-1-2.5-2.4-2.5
	c-1.5,0-2.7,0.9-2.7,3.1v7.8c0,0.4-0.3,0.7-0.7,0.7h-2.4c-0.5,0-0.7-0.3-0.7-0.7V9.1c0-0.4,0.3-0.7,0.7-0.7h2.4
	c0.5,0,0.7,0.3,0.7,0.7v0.8C172.6,8.6,174,8,175.9,8L175.9,8z"/>
<path class="st2" d="M175.9,8c2.8,0,4.8,2.1,4.8,5.7v8.7c0,0.4-0.3,0.7-0.7,0.7h-2.4c-0.5,0-0.7-0.3-0.7-0.7V14c0-1.7-1-2.5-2.4-2.5
	c-1.5,0-2.7,0.9-2.7,3.1v7.8c0,0.4-0.3,0.7-0.7,0.7h-2.4c-0.5,0-0.7-0.3-0.7-0.7V9.1c0-0.4,0.3-0.7,0.7-0.7h2.4
	c0.5,0,0.7,0.3,0.7,0.7v0.8C172.6,8.6,174,8,175.9,8L175.9,8z"/>
<path class="st2" d="M191,9.1v2.3c0,0.4-0.3,0.7-0.7,0.7h-1.9v10.4c0,0.4-0.3,0.7-0.7,0.7h-2.4c-0.5,0-0.7-0.3-0.7-0.7V12h-1.9
	c-0.5,0-0.7-0.3-0.7-0.7V9.1c0-0.4,0.3-0.7,0.7-0.7h1.9v-4c0-0.4,0.3-0.7,0.7-0.7h2.4c0.5,0,0.7,0.3,0.7,0.7v4h1.9
	C190.7,8.4,191,8.6,191,9.1z"/>
<path class="st2" d="M191,9.1v2.3c0,0.4-0.3,0.7-0.7,0.7h-1.9v10.4c0,0.4-0.3,0.7-0.7,0.7h-2.4c-0.5,0-0.7-0.3-0.7-0.7V12h-1.9
	c-0.5,0-0.7-0.3-0.7-0.7V9.1c0-0.4,0.3-0.7,0.7-0.7h1.9v-4c0-0.4,0.3-0.7,0.7-0.7h2.4c0.5,0,0.7,0.3,0.7,0.7v4h1.9
	C190.7,8.4,191,8.6,191,9.1z"/>
<path class="st0" d="M69.8,9.5h-2.7c-0.3,0-0.5,0.2-0.5,0.5v2.2c0,5.4,4.4,9.7,9.8,9.7h2.7c0.3,0,0.5-0.2,0.5-0.5v-2.2
	C79.6,13.8,75.2,9.5,69.8,9.5z"/>
</svg>
