<svg width="213" height="286" viewBox="0 0 213 286" fill="none" xmlns="http://www.w3.org/2000/svg">
<path d="M8.15254 2L1 7.83448V278.166L7.25847 284L15.3051 278.166L23.3517 284L30.5042 278.166L38.5508 284L45.7034 278.166L53.75 284L60.9025 278.166L68.9492 284L76.1017 278.166L85.0424 284L91.3008 278.166L99.3475 284L106.5 278.166L115.441 284L122.593 278.166L129.746 284L137.792 278.166L144.945 284L152.097 278.166L161.038 284L167.297 278.166L175.343 284L182.496 278.166L190.542 284L197.695 278.166L204.847 284L212 278.166V7.83448L204.847 2L197.695 7.83448L189.648 2L182.496 7.83448L174.449 2L168.191 7.83448L159.25 2L152.097 7.83448L144.945 2L136.898 7.83448L129.746 2L122.593 7.83448L113.653 2L106.5 7.83448L98.4534 2L92.1949 7.83448L83.2542 2L76.1017 7.83448L68.0551 2L60.9025 7.83448L52.8559 2L45.7034 7.83448L37.6568 2L30.5042 7.83448L22.4576 2L14.411 7.83448L8.15254 2Z" stroke="#429488" stroke-width="2"/>
<path d="M21.2525 136L25.0325 127.6H26.5685L30.3605 136H28.7285L25.4765 128.428H26.1005L22.8605 136H21.2525ZM22.9925 134.056L23.4125 132.832H27.9485L28.3685 134.056H22.9925ZM34.8368 136.084C34.3168 136.084 33.8408 135.964 33.4088 135.724C32.9848 135.484 32.6448 135.124 32.3888 134.644C32.1408 134.156 32.0168 133.54 32.0168 132.796C32.0168 132.044 32.1368 131.428 32.3768 130.948C32.6248 130.468 32.9608 130.112 33.3848 129.88C33.8088 129.64 34.2928 129.52 34.8368 129.52C35.4688 129.52 36.0248 129.656 36.5048 129.928C36.9928 130.2 37.3768 130.58 37.6568 131.068C37.9448 131.556 38.0888 132.132 38.0888 132.796C38.0888 133.46 37.9448 134.04 37.6568 134.536C37.3768 135.024 36.9928 135.404 36.5048 135.676C36.0248 135.948 35.4688 136.084 34.8368 136.084ZM31.2848 138.328V129.592H32.7128V131.104L32.6648 132.808L32.7848 134.512V138.328H31.2848ZM34.6688 134.8C35.0288 134.8 35.3488 134.72 35.6288 134.56C35.9168 134.4 36.1448 134.168 36.3128 133.864C36.4808 133.56 36.5648 133.204 36.5648 132.796C36.5648 132.38 36.4808 132.024 36.3128 131.728C36.1448 131.424 35.9168 131.192 35.6288 131.032C35.3488 130.872 35.0288 130.792 34.6688 130.792C34.3088 130.792 33.9848 130.872 33.6968 131.032C33.4088 131.192 33.1808 131.424 33.0128 131.728C32.8448 132.024 32.7608 132.38 32.7608 132.796C32.7608 133.204 32.8448 133.56 33.0128 133.864C33.1808 134.168 33.4088 134.4 33.6968 134.56C33.9848 134.72 34.3088 134.8 34.6688 134.8ZM43.0633 136.084C42.5433 136.084 42.0673 135.964 41.6353 135.724C41.2113 135.484 40.8713 135.124 40.6153 134.644C40.3673 134.156 40.2433 133.54 40.2433 132.796C40.2433 132.044 40.3633 131.428 40.6033 130.948C40.8513 130.468 41.1873 130.112 41.6113 129.88C42.0353 129.64 42.5193 129.52 43.0633 129.52C43.6953 129.52 44.2513 129.656 44.7313 129.928C45.2193 130.2 45.6033 130.58 45.8833 131.068C46.1713 131.556 46.3153 132.132 46.3153 132.796C46.3153 133.46 46.1713 134.04 45.8833 134.536C45.6033 135.024 45.2193 135.404 44.7313 135.676C44.2513 135.948 43.6953 136.084 43.0633 136.084ZM39.5113 138.328V129.592H40.9393V131.104L40.8913 132.808L41.0113 134.512V138.328H39.5113ZM42.8953 134.8C43.2553 134.8 43.5753 134.72 43.8553 134.56C44.1433 134.4 44.3713 134.168 44.5393 133.864C44.7073 133.56 44.7913 133.204 44.7913 132.796C44.7913 132.38 44.7073 132.024 44.5393 131.728C44.3713 131.424 44.1433 131.192 43.8553 131.032C43.5753 130.872 43.2553 130.792 42.8953 130.792C42.5353 130.792 42.2113 130.872 41.9233 131.032C41.6353 131.192 41.4073 131.424 41.2393 131.728C41.0713 132.024 40.9873 132.38 40.9873 132.796C40.9873 133.204 41.0713 133.56 41.2393 133.864C41.4073 134.168 41.6353 134.4 41.9233 134.56C42.2113 134.72 42.5353 134.8 42.8953 134.8ZM47.7379 136V127.096H49.2379V136H47.7379ZM54.2187 136.084C53.5067 136.084 52.8827 135.944 52.3467 135.664C51.8187 135.376 51.4067 134.984 51.1107 134.488C50.8227 133.992 50.6787 133.428 50.6787 132.796C50.6787 132.156 50.8187 131.592 51.0987 131.104C51.3867 130.608 51.7787 130.22 52.2747 129.94C52.7787 129.66 53.3507 129.52 53.9907 129.52C54.6147 129.52 55.1707 129.656 55.6587 129.928C56.1467 130.2 56.5307 130.584 56.8107 131.08C57.0907 131.576 57.2307 132.16 57.2307 132.832C57.2307 132.896 57.2267 132.968 57.2187 133.048C57.2187 133.128 57.2147 133.204 57.2067 133.276H51.8667V132.28H56.4147L55.8267 132.592C55.8347 132.224 55.7587 131.9 55.5987 131.62C55.4387 131.34 55.2187 131.12 54.9387 130.96C54.6667 130.8 54.3507 130.72 53.9907 130.72C53.6227 130.72 53.2987 130.8 53.0187 130.96C52.7467 131.12 52.5307 131.344 52.3707 131.632C52.2187 131.912 52.1427 132.244 52.1427 132.628V132.868C52.1427 133.252 52.2307 133.592 52.4067 133.888C52.5827 134.184 52.8307 134.412 53.1507 134.572C53.4707 134.732 53.8387 134.812 54.2547 134.812C54.6147 134.812 54.9387 134.756 55.2267 134.644C55.5147 134.532 55.7707 134.356 55.9947 134.116L56.7987 135.04C56.5107 135.376 56.1467 135.636 55.7067 135.82C55.2747 135.996 54.7787 136.084 54.2187 136.084Z" fill="#429488"/>
<path d="M125.713 137.44V126.16H126.481V137.44H125.713ZM126.013 136.096C125.373 136.096 124.761 136 124.177 135.808C123.593 135.608 123.133 135.352 122.797 135.04L123.241 134.104C123.561 134.384 123.969 134.616 124.465 134.8C124.961 134.984 125.477 135.076 126.013 135.076C126.501 135.076 126.897 135.02 127.201 134.908C127.505 134.796 127.729 134.644 127.873 134.452C128.017 134.252 128.089 134.028 128.089 133.78C128.089 133.492 127.993 133.26 127.801 133.084C127.617 132.908 127.373 132.768 127.069 132.664C126.773 132.552 126.445 132.456 126.085 132.376C125.725 132.296 125.361 132.204 124.993 132.1C124.633 131.988 124.301 131.848 123.997 131.68C123.701 131.512 123.461 131.288 123.277 131.008C123.093 130.72 123.001 130.352 123.001 129.904C123.001 129.472 123.113 129.076 123.337 128.716C123.569 128.348 123.921 128.056 124.393 127.84C124.873 127.616 125.481 127.504 126.217 127.504C126.705 127.504 127.189 127.568 127.669 127.696C128.149 127.824 128.565 128.008 128.917 128.248L128.521 129.208C128.161 128.968 127.781 128.796 127.381 128.692C126.981 128.58 126.593 128.524 126.217 128.524C125.745 128.524 125.357 128.584 125.053 128.704C124.749 128.824 124.525 128.984 124.381 129.184C124.245 129.384 124.177 129.608 124.177 129.856C124.177 130.152 124.269 130.388 124.453 130.564C124.645 130.74 124.889 130.88 125.185 130.984C125.489 131.088 125.821 131.184 126.181 131.272C126.541 131.352 126.901 131.444 127.261 131.548C127.629 131.652 127.961 131.788 128.257 131.956C128.561 132.124 128.805 132.348 128.989 132.628C129.173 132.908 129.265 133.268 129.265 133.708C129.265 134.132 129.149 134.528 128.917 134.896C128.685 135.256 128.325 135.548 127.837 135.772C127.357 135.988 126.749 136.096 126.013 136.096ZM131.633 136V128.08L132.149 128.644H129.737V127.6H132.821V136H131.633ZM135.45 136.072C135.226 136.072 135.034 135.996 134.874 135.844C134.714 135.684 134.634 135.484 134.634 135.244C134.634 135.004 134.714 134.808 134.874 134.656C135.034 134.504 135.226 134.428 135.45 134.428C135.666 134.428 135.85 134.504 136.002 134.656C136.162 134.808 136.242 135.004 136.242 135.244C136.242 135.484 136.162 135.684 136.002 135.844C135.85 135.996 135.666 136.072 135.45 136.072ZM140.089 136.096C139.497 136.096 138.921 136.004 138.361 135.82C137.809 135.636 137.357 135.388 137.005 135.076L137.557 134.128C137.837 134.392 138.201 134.608 138.649 134.776C139.097 134.944 139.573 135.028 140.077 135.028C140.717 135.028 141.209 134.892 141.553 134.62C141.897 134.348 142.069 133.984 142.069 133.528C142.069 133.216 141.993 132.944 141.841 132.712C141.689 132.48 141.425 132.304 141.049 132.184C140.681 132.056 140.173 131.992 139.525 131.992H137.617L138.061 127.6H142.801V128.644H138.505L139.129 128.056L138.781 131.524L138.157 130.948H139.777C140.617 130.948 141.293 131.056 141.805 131.272C142.317 131.488 142.689 131.788 142.921 132.172C143.153 132.548 143.269 132.984 143.269 133.48C143.269 133.96 143.153 134.4 142.921 134.8C142.689 135.192 142.337 135.508 141.865 135.748C141.401 135.98 140.809 136.096 140.089 136.096ZM147.699 136.096C147.043 136.096 146.455 135.928 145.935 135.592C145.423 135.256 145.015 134.768 144.711 134.128C144.415 133.488 144.267 132.712 144.267 131.8C144.267 130.888 144.415 130.112 144.711 129.472C145.015 128.832 145.423 128.344 145.935 128.008C146.455 127.672 147.043 127.504 147.699 127.504C148.347 127.504 148.931 127.672 149.451 128.008C149.971 128.344 150.379 128.832 150.675 129.472C150.971 130.112 151.119 130.888 151.119 131.8C151.119 132.712 150.971 133.488 150.675 134.128C150.379 134.768 149.971 135.256 149.451 135.592C148.931 135.928 148.347 136.096 147.699 136.096ZM147.699 135.028C148.139 135.028 148.523 134.908 148.851 134.668C149.187 134.428 149.447 134.068 149.631 133.588C149.823 133.108 149.919 132.512 149.919 131.8C149.919 131.088 149.823 130.492 149.631 130.012C149.447 129.532 149.187 129.172 148.851 128.932C148.523 128.692 148.139 128.572 147.699 128.572C147.259 128.572 146.871 128.692 146.535 128.932C146.199 129.172 145.935 129.532 145.743 130.012C145.559 130.492 145.467 131.088 145.467 131.8C145.467 132.512 145.559 133.108 145.743 133.588C145.935 134.068 146.199 134.428 146.535 134.668C146.871 134.908 147.259 135.028 147.699 135.028Z" fill="#429488"/>
<path d="M179.271 136V128.08L179.787 128.644H177.375V127.6H180.459V136H179.271Z" fill="#429488"/>
<path d="M22.1925 161V152.6H26.1285C27.1365 152.6 27.9045 152.8 28.4325 153.2C28.9605 153.592 29.2245 154.12 29.2245 154.784C29.2245 155.232 29.1205 155.616 28.9125 155.936C28.7045 156.248 28.4245 156.492 28.0725 156.668C27.7285 156.836 27.3525 156.92 26.9445 156.92L27.1605 156.488C27.6325 156.488 28.0565 156.576 28.4325 156.752C28.8085 156.92 29.1045 157.168 29.3205 157.496C29.5445 157.824 29.6565 158.232 29.6565 158.72C29.6565 159.44 29.3805 160 28.8285 160.4C28.2765 160.8 27.4565 161 26.3685 161H22.1925ZM23.7525 159.776H26.2725C26.8565 159.776 27.3045 159.68 27.6165 159.488C27.9285 159.296 28.0845 158.988 28.0845 158.564C28.0845 158.148 27.9285 157.844 27.6165 157.652C27.3045 157.452 26.8565 157.352 26.2725 157.352H23.6325V156.14H25.9605C26.5045 156.14 26.9205 156.044 27.2085 155.852C27.5045 155.66 27.6525 155.372 27.6525 154.988C27.6525 154.596 27.5045 154.304 27.2085 154.112C26.9205 153.92 26.5045 153.824 25.9605 153.824H23.7525V159.776ZM35.1254 161V159.704L35.0414 159.428V157.16C35.0414 156.72 34.9094 156.38 34.6454 156.14C34.3814 155.892 33.9814 155.768 33.4454 155.768C33.0854 155.768 32.7294 155.824 32.3774 155.936C32.0334 156.048 31.7414 156.204 31.5014 156.404L30.9134 155.312C31.2574 155.048 31.6654 154.852 32.1374 154.724C32.6174 154.588 33.1134 154.52 33.6254 154.52C34.5534 154.52 35.2694 154.744 35.7734 155.192C36.2854 155.632 36.5414 156.316 36.5414 157.244V161H35.1254ZM33.1094 161.084C32.6294 161.084 32.2094 161.004 31.8494 160.844C31.4894 160.676 31.2094 160.448 31.0094 160.16C30.8174 159.864 30.7214 159.532 30.7214 159.164C30.7214 158.804 30.8054 158.48 30.9734 158.192C31.1494 157.904 31.4334 157.676 31.8254 157.508C32.2174 157.34 32.7374 157.256 33.3854 157.256H35.2454V158.252H33.4934C32.9814 158.252 32.6374 158.336 32.4614 158.504C32.2854 158.664 32.1974 158.864 32.1974 159.104C32.1974 159.376 32.3054 159.592 32.5214 159.752C32.7374 159.912 33.0374 159.992 33.4214 159.992C33.7894 159.992 34.1174 159.908 34.4054 159.74C34.7014 159.572 34.9134 159.324 35.0414 158.996L35.2934 159.896C35.1494 160.272 34.8894 160.564 34.5134 160.772C34.1454 160.98 33.6774 161.084 33.1094 161.084ZM41.3821 163.412C40.7901 163.412 40.2101 163.332 39.6421 163.172C39.0821 163.02 38.6221 162.796 38.2621 162.5L38.9341 161.372C39.2141 161.604 39.5661 161.788 39.9901 161.924C40.4221 162.068 40.8581 162.14 41.2981 162.14C42.0021 162.14 42.5181 161.976 42.8461 161.648C43.1741 161.328 43.3381 160.844 43.3381 160.196V159.056L43.4581 157.604L43.4101 156.152V154.592H44.8381V160.028C44.8381 161.188 44.5421 162.04 43.9501 162.584C43.3581 163.136 42.5021 163.412 41.3821 163.412ZM41.1901 160.712C40.5821 160.712 40.0301 160.584 39.5341 160.328C39.0461 160.064 38.6581 159.7 38.3701 159.236C38.0901 158.772 37.9501 158.228 37.9501 157.604C37.9501 156.988 38.0901 156.448 38.3701 155.984C38.6581 155.52 39.0461 155.16 39.5341 154.904C40.0301 154.648 40.5821 154.52 41.1901 154.52C41.7341 154.52 42.2221 154.628 42.6541 154.844C43.0861 155.06 43.4301 155.396 43.6861 155.852C43.9501 156.308 44.0821 156.892 44.0821 157.604C44.0821 158.316 43.9501 158.904 43.6861 159.368C43.4301 159.824 43.0861 160.164 42.6541 160.388C42.2221 160.604 41.7341 160.712 41.1901 160.712ZM41.4181 159.44C41.7941 159.44 42.1301 159.364 42.4261 159.212C42.7221 159.052 42.9501 158.836 43.1101 158.564C43.2781 158.284 43.3621 157.964 43.3621 157.604C43.3621 157.244 43.2781 156.928 43.1101 156.656C42.9501 156.376 42.7221 156.164 42.4261 156.02C42.1301 155.868 41.7941 155.792 41.4181 155.792C41.0421 155.792 40.7021 155.868 40.3981 156.02C40.1021 156.164 39.8701 156.376 39.7021 156.656C39.5421 156.928 39.4621 157.244 39.4621 157.604C39.4621 157.964 39.5421 158.284 39.7021 158.564C39.8701 158.836 40.1021 159.052 40.3981 159.212C40.7021 159.364 41.0421 159.44 41.4181 159.44ZM49.8222 161.084C49.1102 161.084 48.4862 160.944 47.9502 160.664C47.4222 160.376 47.0102 159.984 46.7142 159.488C46.4262 158.992 46.2822 158.428 46.2822 157.796C46.2822 157.156 46.4222 156.592 46.7022 156.104C46.9902 155.608 47.3822 155.22 47.8782 154.94C48.3822 154.66 48.9542 154.52 49.5942 154.52C50.2182 154.52 50.7742 154.656 51.2622 154.928C51.7502 155.2 52.1342 155.584 52.4142 156.08C52.6942 156.576 52.8342 157.16 52.8342 157.832C52.8342 157.896 52.8302 157.968 52.8222 158.048C52.8222 158.128 52.8182 158.204 52.8102 158.276H47.4702V157.28H52.0182L51.4302 157.592C51.4382 157.224 51.3622 156.9 51.2022 156.62C51.0422 156.34 50.8222 156.12 50.5422 155.96C50.2702 155.8 49.9542 155.72 49.5942 155.72C49.2262 155.72 48.9022 155.8 48.6222 155.96C48.3502 156.12 48.1342 156.344 47.9742 156.632C47.8222 156.912 47.7462 157.244 47.7462 157.628V157.868C47.7462 158.252 47.8342 158.592 48.0102 158.888C48.1862 159.184 48.4342 159.412 48.7542 159.572C49.0742 159.732 49.4422 159.812 49.8582 159.812C50.2182 159.812 50.5422 159.756 50.8302 159.644C51.1182 159.532 51.3742 159.356 51.5982 159.116L52.4022 160.04C52.1142 160.376 51.7502 160.636 51.3102 160.82C50.8782 160.996 50.3822 161.084 49.8222 161.084ZM54.275 161V152.096H55.775V161H54.275ZM59.7238 161.084C59.1878 161.084 58.6718 161.016 58.1758 160.88C57.6878 160.736 57.2998 160.564 57.0118 160.364L57.5878 159.224C57.8758 159.408 58.2198 159.56 58.6198 159.68C59.0198 159.8 59.4198 159.86 59.8198 159.86C60.2918 159.86 60.6318 159.796 60.8398 159.668C61.0558 159.54 61.1638 159.368 61.1638 159.152C61.1638 158.976 61.0918 158.844 60.9478 158.756C60.8038 158.66 60.6158 158.588 60.3838 158.54C60.1518 158.492 59.8918 158.448 59.6038 158.408C59.3238 158.368 59.0398 158.316 58.7518 158.252C58.4718 158.18 58.2158 158.08 57.9838 157.952C57.7518 157.816 57.5638 157.636 57.4198 157.412C57.2758 157.188 57.2038 156.892 57.2038 156.524C57.2038 156.116 57.3198 155.764 57.5518 155.468C57.7838 155.164 58.1078 154.932 58.5238 154.772C58.9478 154.604 59.4478 154.52 60.0238 154.52C60.4558 154.52 60.8918 154.568 61.3318 154.664C61.7718 154.76 62.1358 154.896 62.4238 155.072L61.8478 156.212C61.5438 156.028 61.2358 155.904 60.9238 155.84C60.6198 155.768 60.3158 155.732 60.0118 155.732C59.5558 155.732 59.2158 155.8 58.9918 155.936C58.7758 156.072 58.6678 156.244 58.6678 156.452C58.6678 156.644 58.7398 156.788 58.8838 156.884C59.0278 156.98 59.2158 157.056 59.4478 157.112C59.6798 157.168 59.9358 157.216 60.2158 157.256C60.5038 157.288 60.7878 157.34 61.0678 157.412C61.3478 157.484 61.6038 157.584 61.8358 157.712C62.0758 157.832 62.2678 158.004 62.4118 158.228C62.5558 158.452 62.6278 158.744 62.6278 159.104C62.6278 159.504 62.5078 159.852 62.2678 160.148C62.0358 160.444 61.7038 160.676 61.2718 160.844C60.8398 161.004 60.3238 161.084 59.7238 161.084Z" fill="#429488"/>
<path d="M125.67 162.44V151.16H126.438V162.44H125.67ZM125.97 161.096C125.33 161.096 124.718 161 124.134 160.808C123.55 160.608 123.09 160.352 122.754 160.04L123.198 159.104C123.518 159.384 123.926 159.616 124.422 159.8C124.918 159.984 125.434 160.076 125.97 160.076C126.458 160.076 126.854 160.02 127.158 159.908C127.462 159.796 127.686 159.644 127.83 159.452C127.974 159.252 128.046 159.028 128.046 158.78C128.046 158.492 127.95 158.26 127.758 158.084C127.574 157.908 127.33 157.768 127.026 157.664C126.73 157.552 126.402 157.456 126.042 157.376C125.682 157.296 125.318 157.204 124.95 157.1C124.59 156.988 124.258 156.848 123.954 156.68C123.658 156.512 123.418 156.288 123.234 156.008C123.05 155.72 122.958 155.352 122.958 154.904C122.958 154.472 123.07 154.076 123.294 153.716C123.526 153.348 123.878 153.056 124.35 152.84C124.83 152.616 125.438 152.504 126.174 152.504C126.662 152.504 127.146 152.568 127.626 152.696C128.106 152.824 128.522 153.008 128.874 153.248L128.478 154.208C128.118 153.968 127.738 153.796 127.338 153.692C126.938 153.58 126.55 153.524 126.174 153.524C125.702 153.524 125.314 153.584 125.01 153.704C124.706 153.824 124.482 153.984 124.338 154.184C124.202 154.384 124.134 154.608 124.134 154.856C124.134 155.152 124.226 155.388 124.41 155.564C124.602 155.74 124.846 155.88 125.142 155.984C125.446 156.088 125.778 156.184 126.138 156.272C126.498 156.352 126.858 156.444 127.218 156.548C127.586 156.652 127.918 156.788 128.214 156.956C128.518 157.124 128.762 157.348 128.946 157.628C129.13 157.908 129.222 158.268 129.222 158.708C129.222 159.132 129.106 159.528 128.874 159.896C128.642 160.256 128.282 160.548 127.794 160.772C127.314 160.988 126.706 161.096 125.97 161.096ZM130.288 158.936V158.096L134.584 152.6H135.88L131.62 158.096L131.008 157.904H137.716V158.936H130.288ZM134.956 161V158.936L134.992 157.904V156.08H136.12V161H134.956ZM139.462 161.072C139.238 161.072 139.046 160.996 138.886 160.844C138.726 160.684 138.646 160.484 138.646 160.244C138.646 160.004 138.726 159.808 138.886 159.656C139.046 159.504 139.238 159.428 139.462 159.428C139.678 159.428 139.862 159.504 140.014 159.656C140.174 159.808 140.254 160.004 140.254 160.244C140.254 160.484 140.174 160.684 140.014 160.844C139.862 160.996 139.678 161.072 139.462 161.072ZM141.163 158.936V158.096L145.459 152.6H146.755L142.495 158.096L141.883 157.904H148.591V158.936H141.163ZM145.831 161V158.936L145.867 157.904V156.08H146.995V161H145.831ZM152.742 161.096C152.086 161.096 151.498 160.928 150.978 160.592C150.466 160.256 150.058 159.768 149.754 159.128C149.458 158.488 149.31 157.712 149.31 156.8C149.31 155.888 149.458 155.112 149.754 154.472C150.058 153.832 150.466 153.344 150.978 153.008C151.498 152.672 152.086 152.504 152.742 152.504C153.39 152.504 153.974 152.672 154.494 153.008C155.014 153.344 155.422 153.832 155.718 154.472C156.014 155.112 156.162 155.888 156.162 156.8C156.162 157.712 156.014 158.488 155.718 159.128C155.422 159.768 155.014 160.256 154.494 160.592C153.974 160.928 153.39 161.096 152.742 161.096ZM152.742 160.028C153.182 160.028 153.566 159.908 153.894 159.668C154.23 159.428 154.49 159.068 154.674 158.588C154.866 158.108 154.962 157.512 154.962 156.8C154.962 156.088 154.866 155.492 154.674 155.012C154.49 154.532 154.23 154.172 153.894 153.932C153.566 153.692 153.182 153.572 152.742 153.572C152.302 153.572 151.914 153.692 151.578 153.932C151.242 154.172 150.978 154.532 150.786 155.012C150.602 155.492 150.51 156.088 150.51 156.8C150.51 157.512 150.602 158.108 150.786 158.588C150.978 159.068 151.242 159.428 151.578 159.668C151.914 159.908 152.302 160.028 152.742 160.028Z" fill="#429488"/>
<path d="M179.271 161V153.08L179.787 153.644H177.375V152.6H180.459V161H179.271Z" fill="#429488"/>
<path d="M26.5043 186.12C25.8643 186.12 25.2683 186.016 24.7163 185.808C24.1723 185.592 23.6963 185.292 23.2883 184.908C22.8883 184.516 22.5763 184.056 22.3523 183.528C22.1283 183 22.0163 182.424 22.0163 181.8C22.0163 181.176 22.1283 180.6 22.3523 180.072C22.5763 179.544 22.8923 179.088 23.3003 178.704C23.7083 178.312 24.1843 178.012 24.7283 177.804C25.2723 177.588 25.8683 177.48 26.5163 177.48C27.2043 177.48 27.8323 177.6 28.4003 177.84C28.9683 178.072 29.4483 178.42 29.8403 178.884L28.8323 179.832C28.5283 179.504 28.1883 179.26 27.8123 179.1C27.4363 178.932 27.0283 178.848 26.5883 178.848C26.1483 178.848 25.7443 178.92 25.3763 179.064C25.0163 179.208 24.7003 179.412 24.4283 179.676C24.1643 179.94 23.9563 180.252 23.8043 180.612C23.6603 180.972 23.5883 181.368 23.5883 181.8C23.5883 182.232 23.6603 182.628 23.8043 182.988C23.9563 183.348 24.1643 183.66 24.4283 183.924C24.7003 184.188 25.0163 184.392 25.3763 184.536C25.7443 184.68 26.1483 184.752 26.5883 184.752C27.0283 184.752 27.4363 184.672 27.8123 184.512C28.1883 184.344 28.5283 184.092 28.8323 183.756L29.8403 184.716C29.4483 185.172 28.9683 185.52 28.4003 185.76C27.8323 186 27.2003 186.12 26.5043 186.12ZM33.9569 186.084C33.2449 186.084 32.6209 185.944 32.0849 185.664C31.5569 185.376 31.1449 184.984 30.8489 184.488C30.5609 183.992 30.4169 183.428 30.4169 182.796C30.4169 182.156 30.5569 181.592 30.8369 181.104C31.1249 180.608 31.5169 180.22 32.0129 179.94C32.5169 179.66 33.0889 179.52 33.7289 179.52C34.3529 179.52 34.9089 179.656 35.3969 179.928C35.8849 180.2 36.2689 180.584 36.5489 181.08C36.8289 181.576 36.9689 182.16 36.9689 182.832C36.9689 182.896 36.9649 182.968 36.9569 183.048C36.9569 183.128 36.9529 183.204 36.9449 183.276H31.6049V182.28H36.1529L35.5649 182.592C35.5729 182.224 35.4969 181.9 35.3369 181.62C35.1769 181.34 34.9569 181.12 34.6769 180.96C34.4049 180.8 34.0889 180.72 33.7289 180.72C33.3609 180.72 33.0369 180.8 32.7569 180.96C32.4849 181.12 32.2689 181.344 32.1089 181.632C31.9569 181.912 31.8809 182.244 31.8809 182.628V182.868C31.8809 183.252 31.9689 183.592 32.1449 183.888C32.3209 184.184 32.5689 184.412 32.8889 184.572C33.2089 184.732 33.5769 184.812 33.9929 184.812C34.3529 184.812 34.6769 184.756 34.9649 184.644C35.2529 184.532 35.5089 184.356 35.7329 184.116L36.5369 185.04C36.2489 185.376 35.8849 185.636 35.4449 185.82C35.0129 185.996 34.5169 186.084 33.9569 186.084ZM38.4098 186V177.096H39.9098V186H38.4098ZM44.8905 186.084C44.1785 186.084 43.5545 185.944 43.0185 185.664C42.4905 185.376 42.0785 184.984 41.7825 184.488C41.4945 183.992 41.3505 183.428 41.3505 182.796C41.3505 182.156 41.4905 181.592 41.7705 181.104C42.0585 180.608 42.4505 180.22 42.9465 179.94C43.4505 179.66 44.0225 179.52 44.6625 179.52C45.2865 179.52 45.8425 179.656 46.3305 179.928C46.8185 180.2 47.2025 180.584 47.4825 181.08C47.7625 181.576 47.9025 182.16 47.9025 182.832C47.9025 182.896 47.8985 182.968 47.8905 183.048C47.8905 183.128 47.8865 183.204 47.8785 183.276H42.5385V182.28H47.0865L46.4985 182.592C46.5065 182.224 46.4305 181.9 46.2705 181.62C46.1105 181.34 45.8905 181.12 45.6105 180.96C45.3385 180.8 45.0225 180.72 44.6625 180.72C44.2945 180.72 43.9705 180.8 43.6905 180.96C43.4185 181.12 43.2025 181.344 43.0425 181.632C42.8905 181.912 42.8145 182.244 42.8145 182.628V182.868C42.8145 183.252 42.9025 183.592 43.0785 183.888C43.2545 184.184 43.5025 184.412 43.8225 184.572C44.1425 184.732 44.5105 184.812 44.9265 184.812C45.2865 184.812 45.6105 184.756 45.8985 184.644C46.1865 184.532 46.4425 184.356 46.6665 184.116L47.4705 185.04C47.1825 185.376 46.8185 185.636 46.3785 185.82C45.9465 185.996 45.4505 186.084 44.8905 186.084ZM49.3434 186V179.592H50.7714V181.356L50.6034 180.84C50.7954 180.408 51.0954 180.08 51.5034 179.856C51.9194 179.632 52.4354 179.52 53.0514 179.52V180.948C52.9874 180.932 52.9274 180.924 52.8714 180.924C52.8154 180.916 52.7594 180.912 52.7034 180.912C52.1354 180.912 51.6834 181.08 51.3474 181.416C51.0114 181.744 50.8434 182.236 50.8434 182.892V186H49.3434ZM55.0862 188.412C54.7742 188.412 54.4622 188.36 54.1502 188.256C53.8382 188.152 53.5782 188.008 53.3702 187.824L53.9702 186.72C54.1222 186.856 54.2942 186.964 54.4862 187.044C54.6782 187.124 54.8742 187.164 55.0742 187.164C55.3462 187.164 55.5662 187.096 55.7342 186.96C55.9022 186.824 56.0582 186.596 56.2022 186.276L56.5742 185.436L56.6942 185.256L59.1182 179.592H60.5582L57.5582 186.516C57.3582 186.996 57.1342 187.376 56.8862 187.656C56.6462 187.936 56.3742 188.132 56.0702 188.244C55.7742 188.356 55.4462 188.412 55.0862 188.412ZM56.4062 186.228L53.5142 179.592H55.0742L57.4262 185.124L56.4062 186.228Z" fill="#429488"/>
<path d="M125.429 187.44V176.16H126.197V187.44H125.429ZM125.729 186.096C125.089 186.096 124.477 186 123.893 185.808C123.309 185.608 122.849 185.352 122.513 185.04L122.957 184.104C123.277 184.384 123.685 184.616 124.181 184.8C124.677 184.984 125.193 185.076 125.729 185.076C126.217 185.076 126.613 185.02 126.917 184.908C127.221 184.796 127.445 184.644 127.589 184.452C127.733 184.252 127.805 184.028 127.805 183.78C127.805 183.492 127.709 183.26 127.517 183.084C127.333 182.908 127.089 182.768 126.785 182.664C126.489 182.552 126.161 182.456 125.801 182.376C125.441 182.296 125.077 182.204 124.709 182.1C124.349 181.988 124.017 181.848 123.713 181.68C123.417 181.512 123.177 181.288 122.993 181.008C122.809 180.72 122.717 180.352 122.717 179.904C122.717 179.472 122.829 179.076 123.053 178.716C123.285 178.348 123.637 178.056 124.109 177.84C124.589 177.616 125.197 177.504 125.933 177.504C126.421 177.504 126.905 177.568 127.385 177.696C127.865 177.824 128.281 178.008 128.633 178.248L128.237 179.208C127.877 178.968 127.497 178.796 127.097 178.692C126.697 178.58 126.309 178.524 125.933 178.524C125.461 178.524 125.073 178.584 124.769 178.704C124.465 178.824 124.241 178.984 124.097 179.184C123.961 179.384 123.893 179.608 123.893 179.856C123.893 180.152 123.985 180.388 124.169 180.564C124.361 180.74 124.605 180.88 124.901 180.984C125.205 181.088 125.537 181.184 125.897 181.272C126.257 181.352 126.617 181.444 126.977 181.548C127.345 181.652 127.677 181.788 127.973 181.956C128.277 182.124 128.521 182.348 128.705 182.628C128.889 182.908 128.981 183.268 128.981 183.708C128.981 184.132 128.865 184.528 128.633 184.896C128.401 185.256 128.041 185.548 127.553 185.772C127.073 185.988 126.465 186.096 125.729 186.096ZM132.537 186.096C131.945 186.096 131.369 186.004 130.809 185.82C130.257 185.636 129.805 185.388 129.453 185.076L130.005 184.128C130.285 184.392 130.649 184.608 131.097 184.776C131.545 184.944 132.025 185.028 132.537 185.028C133.161 185.028 133.645 184.896 133.989 184.632C134.341 184.36 134.517 183.996 134.517 183.54C134.517 183.1 134.349 182.748 134.013 182.484C133.685 182.212 133.161 182.076 132.441 182.076H131.769V181.236L134.265 178.164L134.433 178.644H129.837V177.6H135.381V178.416L132.897 181.476L132.273 181.104H132.669C133.685 181.104 134.445 181.332 134.949 181.788C135.461 182.244 135.717 182.824 135.717 183.528C135.717 184 135.601 184.432 135.369 184.824C135.137 185.216 134.785 185.528 134.313 185.76C133.849 185.984 133.257 186.096 132.537 186.096ZM137.628 186.072C137.404 186.072 137.212 185.996 137.052 185.844C136.892 185.684 136.812 185.484 136.812 185.244C136.812 185.004 136.892 184.808 137.052 184.656C137.212 184.504 137.404 184.428 137.628 184.428C137.844 184.428 138.028 184.504 138.18 184.656C138.34 184.808 138.42 185.004 138.42 185.244C138.42 185.484 138.34 185.684 138.18 185.844C138.028 185.996 137.844 186.072 137.628 186.072ZM139.54 186V185.184L142.96 181.884C143.264 181.596 143.488 181.344 143.632 181.128C143.784 180.904 143.884 180.7 143.932 180.516C143.988 180.324 144.016 180.14 144.016 179.964C144.016 179.532 143.864 179.192 143.56 178.944C143.256 178.696 142.812 178.572 142.228 178.572C141.78 178.572 141.376 178.648 141.016 178.8C140.656 178.944 140.344 179.172 140.08 179.484L139.264 178.776C139.584 178.368 140.012 178.056 140.548 177.84C141.092 177.616 141.688 177.504 142.336 177.504C142.92 177.504 143.428 177.6 143.86 177.792C144.292 177.976 144.624 178.244 144.856 178.596C145.096 178.948 145.216 179.364 145.216 179.844C145.216 180.116 145.18 180.384 145.108 180.648C145.036 180.912 144.9 181.192 144.7 181.488C144.5 181.784 144.212 182.116 143.836 182.484L140.788 185.424L140.5 184.956H145.576V186H139.54ZM149.983 186.096C149.327 186.096 148.739 185.928 148.219 185.592C147.707 185.256 147.299 184.768 146.995 184.128C146.699 183.488 146.551 182.712 146.551 181.8C146.551 180.888 146.699 180.112 146.995 179.472C147.299 178.832 147.707 178.344 148.219 178.008C148.739 177.672 149.327 177.504 149.983 177.504C150.631 177.504 151.215 177.672 151.735 178.008C152.255 178.344 152.663 178.832 152.959 179.472C153.255 180.112 153.403 180.888 153.403 181.8C153.403 182.712 153.255 183.488 152.959 184.128C152.663 184.768 152.255 185.256 151.735 185.592C151.215 185.928 150.631 186.096 149.983 186.096ZM149.983 185.028C150.423 185.028 150.807 184.908 151.135 184.668C151.471 184.428 151.731 184.068 151.915 183.588C152.107 183.108 152.203 182.512 152.203 181.8C152.203 181.088 152.107 180.492 151.915 180.012C151.731 179.532 151.471 179.172 151.135 178.932C150.807 178.692 150.423 178.572 149.983 178.572C149.543 178.572 149.155 178.692 148.819 178.932C148.483 179.172 148.219 179.532 148.027 180.012C147.843 180.492 147.751 181.088 147.751 181.8C147.751 182.512 147.843 183.108 148.027 183.588C148.219 184.068 148.483 184.428 148.819 184.668C149.155 184.908 149.543 185.028 149.983 185.028Z" fill="#429488"/>
<path d="M179.271 186V178.08L179.787 178.644H177.375V177.6H180.459V186H179.271Z" fill="#429488"/>
<path d="M56.26 91V82.6H59.8C60.696 82.6 61.484 82.776 62.164 83.128C62.852 83.48 63.384 83.972 63.76 84.604C64.144 85.236 64.336 85.968 64.336 86.8C64.336 87.632 64.144 88.364 63.76 88.996C63.384 89.628 62.852 90.12 62.164 90.472C61.484 90.824 60.696 91 59.8 91H56.26ZM57.46 89.956H59.728C60.424 89.956 61.024 89.824 61.528 89.56C62.04 89.296 62.436 88.928 62.716 88.456C62.996 87.976 63.136 87.424 63.136 86.8C63.136 86.168 62.996 85.616 62.716 85.144C62.436 84.672 62.04 84.304 61.528 84.04C61.024 83.776 60.424 83.644 59.728 83.644H57.46V89.956ZM69.9541 91V89.656L69.8941 89.404V87.112C69.8941 86.624 69.7501 86.248 69.4621 85.984C69.1821 85.712 68.7581 85.576 68.1901 85.576C67.8141 85.576 67.4461 85.64 67.0861 85.768C66.7261 85.888 66.4221 86.052 66.1741 86.26L65.6941 85.396C66.0221 85.132 66.4141 84.932 66.8701 84.796C67.3341 84.652 67.8181 84.58 68.3221 84.58C69.1941 84.58 69.8661 84.792 70.3381 85.216C70.8101 85.64 71.0461 86.288 71.0461 87.16V91H69.9541ZM67.8661 91.072C67.3941 91.072 66.9781 90.992 66.6181 90.832C66.2661 90.672 65.9941 90.452 65.8021 90.172C65.6101 89.884 65.5141 89.56 65.5141 89.2C65.5141 88.856 65.5941 88.544 65.7541 88.264C65.9221 87.984 66.1901 87.76 66.5581 87.592C66.9341 87.424 67.4381 87.34 68.0701 87.34H70.0861V88.168H68.1181C67.5421 88.168 67.1541 88.264 66.9541 88.456C66.7541 88.648 66.6541 88.88 66.6541 89.152C66.6541 89.464 66.7781 89.716 67.0261 89.908C67.2741 90.092 67.6181 90.184 68.0581 90.184C68.4901 90.184 68.8661 90.088 69.1861 89.896C69.5141 89.704 69.7501 89.424 69.8941 89.056L70.1221 89.848C69.9701 90.224 69.7021 90.524 69.3181 90.748C68.9341 90.964 68.4501 91.072 67.8661 91.072ZM75.3619 91.072C74.7219 91.072 74.2259 90.9 73.8739 90.556C73.5219 90.212 73.3459 89.72 73.3459 89.08V83.248H74.4979V89.032C74.4979 89.376 74.5819 89.64 74.7499 89.824C74.9259 90.008 75.1739 90.1 75.4939 90.1C75.8539 90.1 76.1539 90 76.3939 89.8L76.7539 90.628C76.5779 90.78 76.3659 90.892 76.1179 90.964C75.8779 91.036 75.6259 91.072 75.3619 91.072ZM72.2659 85.588V84.64H76.3219V85.588H72.2659ZM80.7678 91.072C80.0878 91.072 79.4878 90.932 78.9678 90.652C78.4558 90.372 78.0558 89.988 77.7678 89.5C77.4878 89.012 77.3478 88.452 77.3478 87.82C77.3478 87.188 77.4838 86.628 77.7558 86.14C78.0358 85.652 78.4158 85.272 78.8958 85C79.3838 84.72 79.9318 84.58 80.5398 84.58C81.1558 84.58 81.6998 84.716 82.1718 84.988C82.6438 85.26 83.0118 85.644 83.2758 86.14C83.5478 86.628 83.6838 87.2 83.6838 87.856C83.6838 87.904 83.6798 87.96 83.6718 88.024C83.6718 88.088 83.6678 88.148 83.6598 88.204H78.2478V87.376H83.0598L82.5918 87.664C82.5998 87.256 82.5158 86.892 82.3398 86.572C82.1638 86.252 81.9198 86.004 81.6078 85.828C81.3038 85.644 80.9478 85.552 80.5398 85.552C80.1398 85.552 79.7838 85.644 79.4718 85.828C79.1598 86.004 78.9158 86.256 78.7398 86.584C78.5638 86.904 78.4758 87.272 78.4758 87.688V87.88C78.4758 88.304 78.5718 88.684 78.7638 89.02C78.9638 89.348 79.2398 89.604 79.5918 89.788C79.9438 89.972 80.3478 90.064 80.8038 90.064C81.1798 90.064 81.5198 90 81.8238 89.872C82.1358 89.744 82.4078 89.552 82.6398 89.296L83.2758 90.04C82.9878 90.376 82.6278 90.632 82.1958 90.808C81.7718 90.984 81.2958 91.072 80.7678 91.072ZM85.5594 86.224C85.3354 86.224 85.1434 86.148 84.9834 85.996C84.8234 85.836 84.7434 85.636 84.7434 85.396C84.7434 85.156 84.8234 84.96 84.9834 84.808C85.1434 84.656 85.3354 84.58 85.5594 84.58C85.7754 84.58 85.9594 84.656 86.1114 84.808C86.2714 84.96 86.3514 85.156 86.3514 85.396C86.3514 85.636 86.2714 85.836 86.1114 85.996C85.9594 86.148 85.7754 86.224 85.5594 86.224ZM85.5594 91.072C85.3354 91.072 85.1434 90.996 84.9834 90.844C84.8234 90.684 84.7434 90.484 84.7434 90.244C84.7434 90.004 84.8234 89.808 84.9834 89.656C85.1434 89.504 85.3354 89.428 85.5594 89.428C85.7754 89.428 85.9594 89.504 86.1114 89.656C86.2714 89.808 86.3514 90.004 86.3514 90.244C86.3514 90.484 86.2714 90.684 86.1114 90.844C85.9594 90.996 85.7754 91.072 85.5594 91.072ZM94.1408 91.096C93.4848 91.096 92.8968 90.928 92.3768 90.592C91.8648 90.256 91.4568 89.768 91.1528 89.128C90.8568 88.488 90.7088 87.712 90.7088 86.8C90.7088 85.888 90.8568 85.112 91.1528 84.472C91.4568 83.832 91.8648 83.344 92.3768 83.008C92.8968 82.672 93.4848 82.504 94.1408 82.504C94.7888 82.504 95.3728 82.672 95.8928 83.008C96.4128 83.344 96.8208 83.832 97.1168 84.472C97.4128 85.112 97.5608 85.888 97.5608 86.8C97.5608 87.712 97.4128 88.488 97.1168 89.128C96.8208 89.768 96.4128 90.256 95.8928 90.592C95.3728 90.928 94.7888 91.096 94.1408 91.096ZM94.1408 90.028C94.5808 90.028 94.9648 89.908 95.2928 89.668C95.6288 89.428 95.8888 89.068 96.0728 88.588C96.2648 88.108 96.3608 87.512 96.3608 86.8C96.3608 86.088 96.2648 85.492 96.0728 85.012C95.8888 84.532 95.6288 84.172 95.2928 83.932C94.9648 83.692 94.5808 83.572 94.1408 83.572C93.7008 83.572 93.3128 83.692 92.9768 83.932C92.6408 84.172 92.3768 84.532 92.1848 85.012C92.0008 85.492 91.9088 86.088 91.9088 86.8C91.9088 87.512 92.0008 88.108 92.1848 88.588C92.3768 89.068 92.6408 89.428 92.9768 89.668C93.3128 89.908 93.7008 90.028 94.1408 90.028ZM98.5807 91V90.184L102.001 86.884C102.305 86.596 102.529 86.344 102.673 86.128C102.825 85.904 102.925 85.7 102.973 85.516C103.029 85.324 103.057 85.14 103.057 84.964C103.057 84.532 102.905 84.192 102.601 83.944C102.297 83.696 101.853 83.572 101.269 83.572C100.821 83.572 100.417 83.648 100.057 83.8C99.6967 83.944 99.3847 84.172 99.1207 84.484L98.3047 83.776C98.6247 83.368 99.0527 83.056 99.5887 82.84C100.133 82.616 100.729 82.504 101.377 82.504C101.961 82.504 102.469 82.6 102.901 82.792C103.333 82.976 103.665 83.244 103.897 83.596C104.137 83.948 104.257 84.364 104.257 84.844C104.257 85.116 104.221 85.384 104.149 85.648C104.077 85.912 103.941 86.192 103.741 86.488C103.541 86.784 103.253 87.116 102.877 87.484L99.8287 90.424L99.5407 89.956H104.617V91H98.5807ZM104.809 92.2L108.769 80.896H109.813L105.853 92.2H104.809ZM113.137 91.096C112.481 91.096 111.893 90.928 111.373 90.592C110.861 90.256 110.453 89.768 110.149 89.128C109.853 88.488 109.705 87.712 109.705 86.8C109.705 85.888 109.853 85.112 110.149 84.472C110.453 83.832 110.861 83.344 111.373 83.008C111.893 82.672 112.481 82.504 113.137 82.504C113.785 82.504 114.369 82.672 114.889 83.008C115.409 83.344 115.817 83.832 116.113 84.472C116.409 85.112 116.557 85.888 116.557 86.8C116.557 87.712 116.409 88.488 116.113 89.128C115.817 89.768 115.409 90.256 114.889 90.592C114.369 90.928 113.785 91.096 113.137 91.096ZM113.137 90.028C113.577 90.028 113.961 89.908 114.289 89.668C114.625 89.428 114.885 89.068 115.069 88.588C115.261 88.108 115.357 87.512 115.357 86.8C115.357 86.088 115.261 85.492 115.069 85.012C114.885 84.532 114.625 84.172 114.289 83.932C113.961 83.692 113.577 83.572 113.137 83.572C112.697 83.572 112.309 83.692 111.973 83.932C111.637 84.172 111.373 84.532 111.181 85.012C110.997 85.492 110.905 86.088 110.905 86.8C110.905 87.512 110.997 88.108 111.181 88.588C111.373 89.068 111.637 89.428 111.973 89.668C112.309 89.908 112.697 90.028 113.137 90.028ZM120.433 82.504C121.193 82.504 121.833 82.668 122.353 82.996C122.881 83.324 123.281 83.8 123.553 84.424C123.825 85.04 123.961 85.796 123.961 86.692C123.961 87.644 123.793 88.448 123.457 89.104C123.121 89.76 122.657 90.256 122.065 90.592C121.473 90.928 120.781 91.096 119.989 91.096C119.597 91.096 119.217 91.056 118.849 90.976C118.489 90.896 118.173 90.772 117.901 90.604L118.357 89.668C118.581 89.812 118.829 89.916 119.101 89.98C119.381 90.036 119.673 90.064 119.977 90.064C120.825 90.064 121.501 89.8 122.005 89.272C122.509 88.736 122.761 87.944 122.761 86.896C122.761 86.728 122.753 86.528 122.737 86.296C122.721 86.064 122.685 85.836 122.629 85.612L123.025 86.02C122.913 86.388 122.725 86.7 122.461 86.956C122.205 87.204 121.893 87.392 121.525 87.52C121.165 87.64 120.769 87.7 120.337 87.7C119.785 87.7 119.293 87.596 118.861 87.388C118.429 87.18 118.089 86.888 117.841 86.512C117.593 86.128 117.469 85.676 117.469 85.156C117.469 84.612 117.597 84.144 117.853 83.752C118.117 83.352 118.473 83.044 118.921 82.828C119.377 82.612 119.881 82.504 120.433 82.504ZM120.481 83.476C120.121 83.476 119.801 83.544 119.521 83.68C119.241 83.816 119.021 84.004 118.861 84.244C118.709 84.484 118.633 84.772 118.633 85.108C118.633 85.604 118.805 86 119.149 86.296C119.493 86.584 119.957 86.728 120.541 86.728C120.925 86.728 121.261 86.656 121.549 86.512C121.845 86.368 122.073 86.172 122.233 85.924C122.401 85.676 122.485 85.4 122.485 85.096C122.485 84.8 122.409 84.532 122.257 84.292C122.105 84.052 121.881 83.856 121.585 83.704C121.289 83.552 120.921 83.476 120.481 83.476ZM123.969 92.2L127.929 80.896H128.973L125.013 92.2H123.969ZM128.967 91V90.184L132.387 86.884C132.691 86.596 132.915 86.344 133.059 86.128C133.211 85.904 133.311 85.7 133.359 85.516C133.415 85.324 133.443 85.14 133.443 84.964C133.443 84.532 133.291 84.192 132.987 83.944C132.683 83.696 132.239 83.572 131.655 83.572C131.207 83.572 130.803 83.648 130.443 83.8C130.083 83.944 129.771 84.172 129.507 84.484L128.691 83.776C129.011 83.368 129.439 83.056 129.975 82.84C130.519 82.616 131.115 82.504 131.763 82.504C132.347 82.504 132.855 82.6 133.287 82.792C133.719 82.976 134.051 83.244 134.283 83.596C134.523 83.948 134.643 84.364 134.643 84.844C134.643 85.116 134.607 85.384 134.535 85.648C134.463 85.912 134.327 86.192 134.127 86.488C133.927 86.784 133.639 87.116 133.263 87.484L130.215 90.424L129.927 89.956H135.003V91H128.967ZM139.41 91.096C138.754 91.096 138.166 90.928 137.646 90.592C137.134 90.256 136.726 89.768 136.422 89.128C136.126 88.488 135.978 87.712 135.978 86.8C135.978 85.888 136.126 85.112 136.422 84.472C136.726 83.832 137.134 83.344 137.646 83.008C138.166 82.672 138.754 82.504 139.41 82.504C140.058 82.504 140.642 82.672 141.162 83.008C141.682 83.344 142.09 83.832 142.386 84.472C142.682 85.112 142.83 85.888 142.83 86.8C142.83 87.712 142.682 88.488 142.386 89.128C142.09 89.768 141.682 90.256 141.162 90.592C140.642 90.928 140.058 91.096 139.41 91.096ZM139.41 90.028C139.85 90.028 140.234 89.908 140.562 89.668C140.898 89.428 141.158 89.068 141.342 88.588C141.534 88.108 141.63 87.512 141.63 86.8C141.63 86.088 141.534 85.492 141.342 85.012C141.158 84.532 140.898 84.172 140.562 83.932C140.234 83.692 139.85 83.572 139.41 83.572C138.97 83.572 138.582 83.692 138.246 83.932C137.91 84.172 137.646 84.532 137.454 85.012C137.27 85.492 137.178 86.088 137.178 86.8C137.178 87.512 137.27 88.108 137.454 88.588C137.646 89.068 137.91 89.428 138.246 89.668C138.582 89.908 138.97 90.028 139.41 90.028ZM143.85 91V90.184L147.27 86.884C147.574 86.596 147.798 86.344 147.942 86.128C148.094 85.904 148.194 85.7 148.242 85.516C148.298 85.324 148.326 85.14 148.326 84.964C148.326 84.532 148.174 84.192 147.87 83.944C147.566 83.696 147.122 83.572 146.538 83.572C146.09 83.572 145.686 83.648 145.326 83.8C144.966 83.944 144.654 84.172 144.39 84.484L143.574 83.776C143.894 83.368 144.322 83.056 144.858 82.84C145.402 82.616 145.998 82.504 146.646 82.504C147.23 82.504 147.738 82.6 148.17 82.792C148.602 82.976 148.934 83.244 149.166 83.596C149.406 83.948 149.526 84.364 149.526 84.844C149.526 85.116 149.49 85.384 149.418 85.648C149.346 85.912 149.21 86.192 149.01 86.488C148.81 86.784 148.522 87.116 148.146 87.484L145.098 90.424L144.81 89.956H149.886V91H143.85ZM153.441 91.096C152.849 91.096 152.273 91.004 151.713 90.82C151.161 90.636 150.709 90.388 150.357 90.076L150.909 89.128C151.189 89.392 151.553 89.608 152.001 89.776C152.449 89.944 152.929 90.028 153.441 90.028C154.065 90.028 154.549 89.896 154.893 89.632C155.245 89.36 155.421 88.996 155.421 88.54C155.421 88.1 155.253 87.748 154.917 87.484C154.589 87.212 154.065 87.076 153.345 87.076H152.673V86.236L155.169 83.164L155.337 83.644H150.741V82.6H156.285V83.416L153.801 86.476L153.177 86.104H153.573C154.589 86.104 155.349 86.332 155.853 86.788C156.365 87.244 156.621 87.824 156.621 88.528C156.621 89 156.505 89.432 156.273 89.824C156.041 90.216 155.689 90.528 155.217 90.76C154.753 90.984 154.161 91.096 153.441 91.096Z" fill="#429488"/>
<path d="M48.304 66V57.74H45.056V56.2H53.372V57.74H50.124V66H48.304ZM58.8119 58.44C59.4092 58.44 59.9412 58.5567 60.4079 58.79C60.8839 59.0233 61.2572 59.3827 61.5279 59.868C61.7985 60.344 61.9339 60.96 61.9339 61.716V66H60.1839V61.94C60.1839 61.2773 60.0252 60.7827 59.7079 60.456C59.3999 60.1293 58.9659 59.966 58.4059 59.966C57.9952 59.966 57.6312 60.05 57.3139 60.218C56.9965 60.386 56.7492 60.638 56.5719 60.974C56.4039 61.3007 56.3199 61.716 56.3199 62.22V66H54.5699V55.612H56.3199V60.54L55.9419 59.924C56.2032 59.448 56.5812 59.084 57.0759 58.832C57.5799 58.5707 58.1585 58.44 58.8119 58.44ZM67.6815 66.098C66.8509 66.098 66.1229 65.9347 65.4975 65.608C64.8815 65.272 64.4009 64.8147 64.0555 64.236C63.7195 63.6573 63.5515 62.9993 63.5515 62.262C63.5515 61.5153 63.7149 60.8573 64.0415 60.288C64.3775 59.7093 64.8349 59.2567 65.4135 58.93C66.0015 58.6033 66.6689 58.44 67.4155 58.44C68.1435 58.44 68.7922 58.5987 69.3615 58.916C69.9309 59.2333 70.3789 59.6813 70.7055 60.26C71.0322 60.8387 71.1955 61.52 71.1955 62.304C71.1955 62.3787 71.1909 62.4627 71.1815 62.556C71.1815 62.6493 71.1769 62.738 71.1675 62.822H64.9375V61.66H70.2435L69.5575 62.024C69.5669 61.5947 69.4782 61.2167 69.2915 60.89C69.1049 60.5633 68.8482 60.3067 68.5215 60.12C68.2042 59.9333 67.8355 59.84 67.4155 59.84C66.9862 59.84 66.6082 59.9333 66.2815 60.12C65.9642 60.3067 65.7122 60.568 65.5255 60.904C65.3482 61.2307 65.2595 61.618 65.2595 62.066V62.346C65.2595 62.794 65.3622 63.1907 65.5675 63.536C65.7729 63.8813 66.0622 64.1473 66.4355 64.334C66.8089 64.5207 67.2382 64.614 67.7235 64.614C68.1435 64.614 68.5215 64.5487 68.8575 64.418C69.1935 64.2873 69.4922 64.082 69.7535 63.802L70.6915 64.88C70.3555 65.272 69.9309 65.5753 69.4175 65.79C68.9135 65.9953 68.3349 66.098 67.6815 66.098ZM81.4497 66.14C80.703 66.14 80.0077 66.0187 79.3637 65.776C78.729 65.524 78.1737 65.174 77.6977 64.726C77.231 64.2687 76.867 63.732 76.6057 63.116C76.3443 62.5 76.2137 61.828 76.2137 61.1C76.2137 60.372 76.3443 59.7 76.6057 59.084C76.867 58.468 77.2357 57.936 77.7117 57.488C78.1877 57.0307 78.743 56.6807 79.3777 56.438C80.0123 56.186 80.7077 56.06 81.4637 56.06C82.2663 56.06 82.999 56.2 83.6617 56.48C84.3243 56.7507 84.8843 57.1567 85.3417 57.698L84.1657 58.804C83.811 58.4213 83.4143 58.1367 82.9757 57.95C82.537 57.754 82.061 57.656 81.5477 57.656C81.0343 57.656 80.563 57.74 80.1337 57.908C79.7137 58.076 79.345 58.314 79.0277 58.622C78.7197 58.93 78.477 59.294 78.2997 59.714C78.1317 60.134 78.0477 60.596 78.0477 61.1C78.0477 61.604 78.1317 62.066 78.2997 62.486C78.477 62.906 78.7197 63.27 79.0277 63.578C79.345 63.886 79.7137 64.124 80.1337 64.292C80.563 64.46 81.0343 64.544 81.5477 64.544C82.061 64.544 82.537 64.4507 82.9757 64.264C83.4143 64.068 83.811 63.774 84.1657 63.382L85.3417 64.502C84.8843 65.034 84.3243 65.44 83.6617 65.72C82.999 66 82.2617 66.14 81.4497 66.14ZM89.9904 66.098C89.2251 66.098 88.5438 65.9347 87.9464 65.608C87.3491 65.272 86.8778 64.8147 86.5324 64.236C86.1871 63.6573 86.0144 62.9993 86.0144 62.262C86.0144 61.5153 86.1871 60.8573 86.5324 60.288C86.8778 59.7093 87.3491 59.2567 87.9464 58.93C88.5438 58.6033 89.2251 58.44 89.9904 58.44C90.7651 58.44 91.4511 58.6033 92.0484 58.93C92.6551 59.2567 93.1264 59.7047 93.4624 60.274C93.8078 60.8433 93.9804 61.506 93.9804 62.262C93.9804 62.9993 93.8078 63.6573 93.4624 64.236C93.1264 64.8147 92.6551 65.272 92.0484 65.608C91.4511 65.9347 90.7651 66.098 89.9904 66.098ZM89.9904 64.6C90.4198 64.6 90.8024 64.5067 91.1384 64.32C91.4744 64.1333 91.7358 63.8627 91.9224 63.508C92.1184 63.1533 92.2164 62.738 92.2164 62.262C92.2164 61.7767 92.1184 61.3613 91.9224 61.016C91.7358 60.6613 91.4744 60.3907 91.1384 60.204C90.8024 60.0173 90.4244 59.924 90.0044 59.924C89.5751 59.924 89.1924 60.0173 88.8564 60.204C88.5298 60.3907 88.2684 60.6613 88.0724 61.016C87.8764 61.3613 87.7784 61.7767 87.7784 62.262C87.7784 62.738 87.8764 63.1533 88.0724 63.508C88.2684 63.8627 88.5298 64.1333 88.8564 64.32C89.1924 64.5067 89.5704 64.6 89.9904 64.6ZM95.6539 66V58.524H97.3199V60.582L97.1239 59.98C97.3479 59.476 97.6979 59.0933 98.1739 58.832C98.6592 58.5707 99.2612 58.44 99.9799 58.44V60.106C99.9052 60.0873 99.8352 60.078 99.7699 60.078C99.7045 60.0687 99.6392 60.064 99.5739 60.064C98.9112 60.064 98.3839 60.26 97.9919 60.652C97.5999 61.0347 97.4039 61.6087 97.4039 62.374V66H95.6539ZM105.706 58.44C106.304 58.44 106.836 58.5567 107.302 58.79C107.778 59.0233 108.152 59.3827 108.422 59.868C108.693 60.344 108.828 60.96 108.828 61.716V66H107.078V61.94C107.078 61.2773 106.92 60.7827 106.602 60.456C106.294 60.1293 105.86 59.966 105.3 59.966C104.89 59.966 104.526 60.05 104.208 60.218C103.891 60.386 103.644 60.638 103.466 60.974C103.298 61.3007 103.214 61.716 103.214 62.22V66H101.464V58.524H103.13V60.54L102.836 59.924C103.098 59.448 103.476 59.084 103.97 58.832C104.474 58.5707 105.053 58.44 105.706 58.44ZM114.576 66.098C113.745 66.098 113.017 65.9347 112.392 65.608C111.776 65.272 111.295 64.8147 110.95 64.236C110.614 63.6573 110.446 62.9993 110.446 62.262C110.446 61.5153 110.609 60.8573 110.936 60.288C111.272 59.7093 111.729 59.2567 112.308 58.93C112.896 58.6033 113.563 58.44 114.31 58.44C115.038 58.44 115.687 58.5987 116.256 58.916C116.825 59.2333 117.273 59.6813 117.6 60.26C117.927 60.8387 118.09 61.52 118.09 62.304C118.09 62.3787 118.085 62.4627 118.076 62.556C118.076 62.6493 118.071 62.738 118.062 62.822H111.832V61.66H117.138L116.452 62.024C116.461 61.5947 116.373 61.2167 116.186 60.89C115.999 60.5633 115.743 60.3067 115.416 60.12C115.099 59.9333 114.73 59.84 114.31 59.84C113.881 59.84 113.503 59.9333 113.176 60.12C112.859 60.3067 112.607 60.568 112.42 60.904C112.243 61.2307 112.154 61.618 112.154 62.066V62.346C112.154 62.794 112.257 63.1907 112.462 63.536C112.667 63.8813 112.957 64.1473 113.33 64.334C113.703 64.5207 114.133 64.614 114.618 64.614C115.038 64.614 115.416 64.5487 115.752 64.418C116.088 64.2873 116.387 64.082 116.648 63.802L117.586 64.88C117.25 65.272 116.825 65.5753 116.312 65.79C115.808 65.9953 115.229 66.098 114.576 66.098ZM119.771 66V58.524H121.437V60.582L121.241 59.98C121.465 59.476 121.815 59.0933 122.291 58.832C122.776 58.5707 123.378 58.44 124.097 58.44V60.106C124.022 60.0873 123.952 60.078 123.887 60.078C123.822 60.0687 123.756 60.064 123.691 60.064C123.028 60.064 122.501 60.26 122.109 60.652C121.717 61.0347 121.521 61.6087 121.521 62.374V66H119.771ZM132.725 66.14C131.96 66.14 131.227 66.0327 130.527 65.818C129.827 65.594 129.272 65.3093 128.861 64.964L129.491 63.55C129.883 63.858 130.368 64.1147 130.947 64.32C131.526 64.5253 132.118 64.628 132.725 64.628C133.238 64.628 133.654 64.572 133.971 64.46C134.288 64.348 134.522 64.1987 134.671 64.012C134.82 63.816 134.895 63.5967 134.895 63.354C134.895 63.0553 134.788 62.8173 134.573 62.64C134.358 62.4533 134.078 62.3087 133.733 62.206C133.397 62.094 133.019 61.9913 132.599 61.898C132.188 61.8047 131.773 61.6973 131.353 61.576C130.942 61.4453 130.564 61.282 130.219 61.086C129.883 60.8807 129.608 60.61 129.393 60.274C129.178 59.938 129.071 59.5087 129.071 58.986C129.071 58.454 129.211 57.9687 129.491 57.53C129.78 57.082 130.214 56.7273 130.793 56.466C131.381 56.1953 132.123 56.06 133.019 56.06C133.607 56.06 134.19 56.1347 134.769 56.284C135.348 56.4333 135.852 56.648 136.281 56.928L135.707 58.342C135.268 58.0807 134.816 57.8893 134.349 57.768C133.882 57.6373 133.434 57.572 133.005 57.572C132.501 57.572 132.09 57.6327 131.773 57.754C131.465 57.8753 131.236 58.034 131.087 58.23C130.947 58.426 130.877 58.65 130.877 58.902C130.877 59.2007 130.98 59.4433 131.185 59.63C131.4 59.8073 131.675 59.9473 132.011 60.05C132.356 60.1527 132.739 60.2553 133.159 60.358C133.579 60.4513 133.994 60.5587 134.405 60.68C134.825 60.8013 135.203 60.96 135.539 61.156C135.884 61.352 136.16 61.618 136.365 61.954C136.58 62.29 136.687 62.7147 136.687 63.228C136.687 63.7507 136.542 64.236 136.253 64.684C135.973 65.1227 135.539 65.4773 134.951 65.748C134.363 66.0093 133.621 66.14 132.725 66.14ZM141.138 66.098C140.316 66.098 139.682 65.888 139.234 65.468C138.786 65.0387 138.562 64.4087 138.562 63.578V56.872H140.312V63.536C140.312 63.8907 140.4 64.166 140.578 64.362C140.764 64.558 141.021 64.656 141.348 64.656C141.74 64.656 142.066 64.5533 142.328 64.348L142.818 65.594C142.612 65.762 142.36 65.888 142.062 65.972C141.763 66.056 141.455 66.098 141.138 66.098ZM137.33 59.98V58.58H142.314V59.98H137.33ZM147.371 66.098C146.606 66.098 145.925 65.9347 145.327 65.608C144.73 65.272 144.259 64.8147 143.913 64.236C143.568 63.6573 143.395 62.9993 143.395 62.262C143.395 61.5153 143.568 60.8573 143.913 60.288C144.259 59.7093 144.73 59.2567 145.327 58.93C145.925 58.6033 146.606 58.44 147.371 58.44C148.146 58.44 148.832 58.6033 149.429 58.93C150.036 59.2567 150.507 59.7047 150.843 60.274C151.189 60.8433 151.361 61.506 151.361 62.262C151.361 62.9993 151.189 63.6573 150.843 64.236C150.507 64.8147 150.036 65.272 149.429 65.608C148.832 65.9347 148.146 66.098 147.371 66.098ZM147.371 64.6C147.801 64.6 148.183 64.5067 148.519 64.32C148.855 64.1333 149.117 63.8627 149.303 63.508C149.499 63.1533 149.597 62.738 149.597 62.262C149.597 61.7767 149.499 61.3613 149.303 61.016C149.117 60.6613 148.855 60.3907 148.519 60.204C148.183 60.0173 147.805 59.924 147.385 59.924C146.956 59.924 146.573 60.0173 146.237 60.204C145.911 60.3907 145.649 60.6613 145.453 61.016C145.257 61.3613 145.159 61.7767 145.159 62.262C145.159 62.738 145.257 63.1533 145.453 63.508C145.649 63.8627 145.911 64.1333 146.237 64.32C146.573 64.5067 146.951 64.6 147.371 64.6ZM153.035 66V58.524H154.701V60.582L154.505 59.98C154.729 59.476 155.079 59.0933 155.555 58.832C156.04 58.5707 156.642 58.44 157.361 58.44V60.106C157.286 60.0873 157.216 60.078 157.151 60.078C157.085 60.0687 157.02 60.064 156.955 60.064C156.292 60.064 155.765 60.26 155.373 60.652C154.981 61.0347 154.785 61.6087 154.785 62.374V66H153.035ZM162.291 66.098C161.46 66.098 160.732 65.9347 160.107 65.608C159.491 65.272 159.01 64.8147 158.665 64.236C158.329 63.6573 158.161 62.9993 158.161 62.262C158.161 61.5153 158.324 60.8573 158.651 60.288C158.987 59.7093 159.444 59.2567 160.023 58.93C160.611 58.6033 161.278 58.44 162.025 58.44C162.753 58.44 163.402 58.5987 163.971 58.916C164.54 59.2333 164.988 59.6813 165.315 60.26C165.642 60.8387 165.805 61.52 165.805 62.304C165.805 62.3787 165.8 62.4627 165.791 62.556C165.791 62.6493 165.786 62.738 165.777 62.822H159.547V61.66H164.853L164.167 62.024C164.176 61.5947 164.088 61.2167 163.901 60.89C163.714 60.5633 163.458 60.3067 163.131 60.12C162.814 59.9333 162.445 59.84 162.025 59.84C161.596 59.84 161.218 59.9333 160.891 60.12C160.574 60.3067 160.322 60.568 160.135 60.904C159.958 61.2307 159.869 61.618 159.869 62.066V62.346C159.869 62.794 159.972 63.1907 160.177 63.536C160.382 63.8813 160.672 64.1473 161.045 64.334C161.418 64.5207 161.848 64.614 162.333 64.614C162.753 64.614 163.131 64.5487 163.467 64.418C163.803 64.2873 164.102 64.082 164.363 63.802L165.301 64.88C164.965 65.272 164.54 65.5753 164.027 65.79C163.523 65.9953 162.944 66.098 162.291 66.098Z" fill="#429488"/>
<path d="M155.795 232.44V221.16H156.563V232.44H155.795ZM156.095 231.096C155.455 231.096 154.843 231 154.259 230.808C153.675 230.608 153.215 230.352 152.879 230.04L153.323 229.104C153.643 229.384 154.051 229.616 154.547 229.8C155.043 229.984 155.559 230.076 156.095 230.076C156.583 230.076 156.979 230.02 157.283 229.908C157.587 229.796 157.811 229.644 157.955 229.452C158.099 229.252 158.171 229.028 158.171 228.78C158.171 228.492 158.075 228.26 157.883 228.084C157.699 227.908 157.455 227.768 157.151 227.664C156.855 227.552 156.527 227.456 156.167 227.376C155.807 227.296 155.443 227.204 155.075 227.1C154.715 226.988 154.383 226.848 154.079 226.68C153.783 226.512 153.543 226.288 153.359 226.008C153.175 225.72 153.083 225.352 153.083 224.904C153.083 224.472 153.195 224.076 153.419 223.716C153.651 223.348 154.003 223.056 154.475 222.84C154.955 222.616 155.563 222.504 156.299 222.504C156.787 222.504 157.271 222.568 157.751 222.696C158.231 222.824 158.647 223.008 158.999 223.248L158.603 224.208C158.243 223.968 157.863 223.796 157.463 223.692C157.063 223.58 156.675 223.524 156.299 223.524C155.827 223.524 155.439 223.584 155.135 223.704C154.831 223.824 154.607 223.984 154.463 224.184C154.327 224.384 154.259 224.608 154.259 224.856C154.259 225.152 154.351 225.388 154.535 225.564C154.727 225.74 154.971 225.88 155.267 225.984C155.571 226.088 155.903 226.184 156.263 226.272C156.623 226.352 156.983 226.444 157.343 226.548C157.711 226.652 158.043 226.788 158.339 226.956C158.643 227.124 158.887 227.348 159.071 227.628C159.255 227.908 159.347 228.268 159.347 228.708C159.347 229.132 159.231 229.528 158.999 229.896C158.767 230.256 158.407 230.548 157.919 230.772C157.439 230.988 156.831 231.096 156.095 231.096ZM163.023 222.504C163.783 222.504 164.423 222.668 164.943 222.996C165.471 223.324 165.871 223.8 166.143 224.424C166.415 225.04 166.551 225.796 166.551 226.692C166.551 227.644 166.383 228.448 166.047 229.104C165.711 229.76 165.247 230.256 164.655 230.592C164.063 230.928 163.371 231.096 162.579 231.096C162.187 231.096 161.807 231.056 161.439 230.976C161.079 230.896 160.763 230.772 160.491 230.604L160.947 229.668C161.171 229.812 161.419 229.916 161.691 229.98C161.971 230.036 162.263 230.064 162.567 230.064C163.415 230.064 164.091 229.8 164.595 229.272C165.099 228.736 165.351 227.944 165.351 226.896C165.351 226.728 165.343 226.528 165.327 226.296C165.311 226.064 165.275 225.836 165.219 225.612L165.615 226.02C165.503 226.388 165.315 226.7 165.051 226.956C164.795 227.204 164.483 227.392 164.115 227.52C163.755 227.64 163.359 227.7 162.927 227.7C162.375 227.7 161.883 227.596 161.451 227.388C161.019 227.18 160.679 226.888 160.431 226.512C160.183 226.128 160.059 225.676 160.059 225.156C160.059 224.612 160.187 224.144 160.443 223.752C160.707 223.352 161.063 223.044 161.511 222.828C161.967 222.612 162.471 222.504 163.023 222.504ZM163.071 223.476C162.711 223.476 162.391 223.544 162.111 223.68C161.831 223.816 161.611 224.004 161.451 224.244C161.299 224.484 161.223 224.772 161.223 225.108C161.223 225.604 161.395 226 161.739 226.296C162.083 226.584 162.547 226.728 163.131 226.728C163.515 226.728 163.851 226.656 164.139 226.512C164.435 226.368 164.663 226.172 164.823 225.924C164.991 225.676 165.075 225.4 165.075 225.096C165.075 224.8 164.999 224.532 164.847 224.292C164.695 224.052 164.471 223.856 164.175 223.704C163.879 223.552 163.511 223.476 163.071 223.476ZM168.356 231.072C168.132 231.072 167.94 230.996 167.78 230.844C167.62 230.684 167.54 230.484 167.54 230.244C167.54 230.004 167.62 229.808 167.78 229.656C167.94 229.504 168.132 229.428 168.356 229.428C168.572 229.428 168.756 229.504 168.908 229.656C169.068 229.808 169.148 230.004 169.148 230.244C169.148 230.484 169.068 230.684 168.908 230.844C168.756 230.996 168.572 231.072 168.356 231.072ZM171.547 231V223.08L172.063 223.644H169.651V222.6H172.735V231H171.547ZM178.004 231.096C177.348 231.096 176.76 230.928 176.24 230.592C175.728 230.256 175.32 229.768 175.016 229.128C174.72 228.488 174.572 227.712 174.572 226.8C174.572 225.888 174.72 225.112 175.016 224.472C175.32 223.832 175.728 223.344 176.24 223.008C176.76 222.672 177.348 222.504 178.004 222.504C178.652 222.504 179.236 222.672 179.756 223.008C180.276 223.344 180.684 223.832 180.98 224.472C181.276 225.112 181.424 225.888 181.424 226.8C181.424 227.712 181.276 228.488 180.98 229.128C180.684 229.768 180.276 230.256 179.756 230.592C179.236 230.928 178.652 231.096 178.004 231.096ZM178.004 230.028C178.444 230.028 178.828 229.908 179.156 229.668C179.492 229.428 179.752 229.068 179.936 228.588C180.128 228.108 180.224 227.512 180.224 226.8C180.224 226.088 180.128 225.492 179.936 225.012C179.752 224.532 179.492 224.172 179.156 223.932C178.828 223.692 178.444 223.572 178.004 223.572C177.564 223.572 177.176 223.692 176.84 223.932C176.504 224.172 176.24 224.532 176.048 225.012C175.864 225.492 175.772 226.088 175.772 226.8C175.772 227.512 175.864 228.108 176.048 228.588C176.24 229.068 176.504 229.428 176.84 229.668C177.176 229.908 177.564 230.028 178.004 230.028Z" fill="#429488"/>
<path d="M106.762 231V223.92H103.978V222.6H111.106V223.92H108.322V231H106.762ZM114.356 231.084C113.7 231.084 113.116 230.944 112.604 230.664C112.092 230.376 111.688 229.984 111.392 229.488C111.096 228.992 110.948 228.428 110.948 227.796C110.948 227.156 111.096 226.592 111.392 226.104C111.688 225.608 112.092 225.22 112.604 224.94C113.116 224.66 113.7 224.52 114.356 224.52C115.02 224.52 115.608 224.66 116.12 224.94C116.64 225.22 117.044 225.604 117.332 226.092C117.628 226.58 117.776 227.148 117.776 227.796C117.776 228.428 117.628 228.992 117.332 229.488C117.044 229.984 116.64 230.376 116.12 230.664C115.608 230.944 115.02 231.084 114.356 231.084ZM114.356 229.8C114.724 229.8 115.052 229.72 115.34 229.56C115.628 229.4 115.852 229.168 116.012 228.864C116.18 228.56 116.264 228.204 116.264 227.796C116.264 227.38 116.18 227.024 116.012 226.728C115.852 226.424 115.628 226.192 115.34 226.032C115.052 225.872 114.728 225.792 114.368 225.792C114 225.792 113.672 225.872 113.384 226.032C113.104 226.192 112.88 226.424 112.712 226.728C112.544 227.024 112.46 227.38 112.46 227.796C112.46 228.204 112.544 228.56 112.712 228.864C112.88 229.168 113.104 229.4 113.384 229.56C113.672 229.72 113.996 229.8 114.356 229.8ZM121.623 231.084C120.919 231.084 120.375 230.904 119.991 230.544C119.607 230.176 119.415 229.636 119.415 228.924V223.176H120.915V228.888C120.915 229.192 120.991 229.428 121.143 229.596C121.303 229.764 121.523 229.848 121.803 229.848C122.139 229.848 122.419 229.76 122.643 229.584L123.063 230.652C122.887 230.796 122.671 230.904 122.415 230.976C122.159 231.048 121.895 231.084 121.623 231.084ZM118.359 225.84V224.64H122.631V225.84H118.359ZM128.245 231V229.704L128.161 229.428V227.16C128.161 226.72 128.029 226.38 127.765 226.14C127.501 225.892 127.101 225.768 126.565 225.768C126.205 225.768 125.849 225.824 125.497 225.936C125.153 226.048 124.861 226.204 124.621 226.404L124.033 225.312C124.377 225.048 124.785 224.852 125.257 224.724C125.737 224.588 126.233 224.52 126.745 224.52C127.673 224.52 128.389 224.744 128.893 225.192C129.405 225.632 129.661 226.316 129.661 227.244V231H128.245ZM126.229 231.084C125.749 231.084 125.329 231.004 124.969 230.844C124.609 230.676 124.329 230.448 124.129 230.16C123.937 229.864 123.841 229.532 123.841 229.164C123.841 228.804 123.925 228.48 124.093 228.192C124.269 227.904 124.553 227.676 124.945 227.508C125.337 227.34 125.857 227.256 126.505 227.256H128.365V228.252H126.613C126.101 228.252 125.757 228.336 125.581 228.504C125.405 228.664 125.317 228.864 125.317 229.104C125.317 229.376 125.425 229.592 125.641 229.752C125.857 229.912 126.157 229.992 126.541 229.992C126.909 229.992 127.237 229.908 127.525 229.74C127.821 229.572 128.033 229.324 128.161 228.996L128.413 229.896C128.269 230.272 128.009 230.564 127.633 230.772C127.265 230.98 126.797 231.084 126.229 231.084ZM131.586 231V222.096H133.086V231H131.586ZM135.534 226.512C135.262 226.512 135.03 226.42 134.838 226.236C134.646 226.044 134.55 225.804 134.55 225.516C134.55 225.212 134.646 224.972 134.838 224.796C135.03 224.612 135.262 224.52 135.534 224.52C135.806 224.52 136.038 224.612 136.23 224.796C136.422 224.972 136.518 225.212 136.518 225.516C136.518 225.804 136.422 226.044 136.23 226.236C136.038 226.42 135.806 226.512 135.534 226.512ZM135.534 231.084C135.262 231.084 135.03 230.992 134.838 230.808C134.646 230.616 134.55 230.376 134.55 230.088C134.55 229.784 134.646 229.544 134.838 229.368C135.03 229.184 135.262 229.092 135.534 229.092C135.806 229.092 136.038 229.184 136.23 229.368C136.422 229.544 136.518 229.784 136.518 230.088C136.518 230.376 136.422 230.616 136.23 230.808C136.038 230.992 135.806 231.084 135.534 231.084Z" fill="#429488"/>
<path d="M21 109L192 109" stroke="#429488"/>
<path d="M21 204L192 204" stroke="#429488"/>
</svg>
