<svg width="214" height="286" viewBox="0 0 214 286" fill="none" xmlns="http://www.w3.org/2000/svg">
<path d="M8.61006 2L1.45752 7.83448V278.166L7.71599 284L15.7626 278.166L23.8092 284L30.9618 278.166L39.0084 284L46.1609 278.166L54.2075 284L61.3601 278.166L69.4067 284L76.5592 278.166L85.4999 284L91.7584 278.166L99.805 284L106.958 278.166L115.898 284L123.051 278.166L130.203 284L138.25 278.166L145.402 284L152.555 278.166L161.496 284L167.754 278.166L175.801 284L182.953 278.166L191 284L198.152 278.166L205.305 284L212.458 278.166V7.83448L205.305 2L198.152 7.83448L190.106 2L182.953 7.83448L174.907 2L168.648 7.83448L159.708 2L152.555 7.83448L145.402 2L137.356 7.83448L130.203 2L123.051 7.83448L114.11 2L106.958 7.83448L98.9109 2L92.6524 7.83448L83.7118 2L76.5592 7.83448L68.5126 2L61.3601 7.83448L53.3135 2L46.1609 7.83448L38.1143 2L30.9618 7.83448L22.9151 2L14.8685 7.83448L8.61006 2Z" stroke="#95D6CD" stroke-width="2"/>
<path d="M21.71 136L25.49 127.6H27.026L30.818 136H29.186L25.934 128.428H26.558L23.318 136H21.71ZM23.45 134.056L23.87 132.832H28.406L28.826 134.056H23.45ZM35.2943 136.084C34.7743 136.084 34.2983 135.964 33.8663 135.724C33.4423 135.484 33.1023 135.124 32.8463 134.644C32.5983 134.156 32.4743 133.54 32.4743 132.796C32.4743 132.044 32.5943 131.428 32.8343 130.948C33.0823 130.468 33.4183 130.112 33.8423 129.88C34.2663 129.64 34.7503 129.52 35.2943 129.52C35.9263 129.52 36.4823 129.656 36.9623 129.928C37.4503 130.2 37.8343 130.58 38.1143 131.068C38.4023 131.556 38.5463 132.132 38.5463 132.796C38.5463 133.46 38.4023 134.04 38.1143 134.536C37.8343 135.024 37.4503 135.404 36.9623 135.676C36.4823 135.948 35.9263 136.084 35.2943 136.084ZM31.7423 138.328V129.592H33.1703V131.104L33.1223 132.808L33.2423 134.512V138.328H31.7423ZM35.1263 134.8C35.4863 134.8 35.8063 134.72 36.0863 134.56C36.3743 134.4 36.6023 134.168 36.7703 133.864C36.9383 133.56 37.0223 133.204 37.0223 132.796C37.0223 132.38 36.9383 132.024 36.7703 131.728C36.6023 131.424 36.3743 131.192 36.0863 131.032C35.8063 130.872 35.4863 130.792 35.1263 130.792C34.7663 130.792 34.4423 130.872 34.1543 131.032C33.8663 131.192 33.6383 131.424 33.4703 131.728C33.3023 132.024 33.2183 132.38 33.2183 132.796C33.2183 133.204 33.3023 133.56 33.4703 133.864C33.6383 134.168 33.8663 134.4 34.1543 134.56C34.4423 134.72 34.7663 134.8 35.1263 134.8ZM43.5209 136.084C43.0009 136.084 42.5249 135.964 42.0929 135.724C41.6689 135.484 41.3289 135.124 41.0729 134.644C40.8249 134.156 40.7009 133.54 40.7009 132.796C40.7009 132.044 40.8209 131.428 41.0609 130.948C41.3089 130.468 41.6449 130.112 42.0689 129.88C42.4929 129.64 42.9769 129.52 43.5209 129.52C44.1529 129.52 44.7089 129.656 45.1889 129.928C45.6769 130.2 46.0609 130.58 46.3409 131.068C46.6289 131.556 46.7729 132.132 46.7729 132.796C46.7729 133.46 46.6289 134.04 46.3409 134.536C46.0609 135.024 45.6769 135.404 45.1889 135.676C44.7089 135.948 44.1529 136.084 43.5209 136.084ZM39.9689 138.328V129.592H41.3969V131.104L41.3489 132.808L41.4689 134.512V138.328H39.9689ZM43.3529 134.8C43.7129 134.8 44.0329 134.72 44.3129 134.56C44.6009 134.4 44.8289 134.168 44.9969 133.864C45.1649 133.56 45.2489 133.204 45.2489 132.796C45.2489 132.38 45.1649 132.024 44.9969 131.728C44.8289 131.424 44.6009 131.192 44.3129 131.032C44.0329 130.872 43.7129 130.792 43.3529 130.792C42.9929 130.792 42.6689 130.872 42.3809 131.032C42.0929 131.192 41.8649 131.424 41.6969 131.728C41.5289 132.024 41.4449 132.38 41.4449 132.796C41.4449 133.204 41.5289 133.56 41.6969 133.864C41.8649 134.168 42.0929 134.4 42.3809 134.56C42.6689 134.72 42.9929 134.8 43.3529 134.8ZM48.1954 136V127.096H49.6954V136H48.1954ZM54.6762 136.084C53.9642 136.084 53.3402 135.944 52.8042 135.664C52.2762 135.376 51.8642 134.984 51.5682 134.488C51.2802 133.992 51.1362 133.428 51.1362 132.796C51.1362 132.156 51.2762 131.592 51.5562 131.104C51.8442 130.608 52.2362 130.22 52.7322 129.94C53.2362 129.66 53.8082 129.52 54.4482 129.52C55.0722 129.52 55.6282 129.656 56.1162 129.928C56.6042 130.2 56.9882 130.584 57.2682 131.08C57.5482 131.576 57.6882 132.16 57.6882 132.832C57.6882 132.896 57.6842 132.968 57.6762 133.048C57.6762 133.128 57.6722 133.204 57.6642 133.276H52.3242V132.28H56.8722L56.2842 132.592C56.2922 132.224 56.2162 131.9 56.0562 131.62C55.8962 131.34 55.6762 131.12 55.3962 130.96C55.1242 130.8 54.8082 130.72 54.4482 130.72C54.0802 130.72 53.7562 130.8 53.4762 130.96C53.2042 131.12 52.9882 131.344 52.8282 131.632C52.6762 131.912 52.6002 132.244 52.6002 132.628V132.868C52.6002 133.252 52.6882 133.592 52.8642 133.888C53.0402 134.184 53.2882 134.412 53.6082 134.572C53.9282 134.732 54.2962 134.812 54.7122 134.812C55.0722 134.812 55.3962 134.756 55.6842 134.644C55.9722 134.532 56.2282 134.356 56.4522 134.116L57.2562 135.04C56.9682 135.376 56.6042 135.636 56.1642 135.82C55.7322 135.996 55.2362 136.084 54.6762 136.084Z" fill="#95D6CD"/>
<path d="M126.17 137.44V126.16H126.938V137.44H126.17ZM126.47 136.096C125.83 136.096 125.218 136 124.634 135.808C124.05 135.608 123.59 135.352 123.254 135.04L123.698 134.104C124.018 134.384 124.426 134.616 124.922 134.8C125.418 134.984 125.934 135.076 126.47 135.076C126.958 135.076 127.354 135.02 127.658 134.908C127.962 134.796 128.186 134.644 128.33 134.452C128.474 134.252 128.546 134.028 128.546 133.78C128.546 133.492 128.45 133.26 128.258 133.084C128.074 132.908 127.83 132.768 127.526 132.664C127.23 132.552 126.902 132.456 126.542 132.376C126.182 132.296 125.818 132.204 125.45 132.1C125.09 131.988 124.758 131.848 124.454 131.68C124.158 131.512 123.918 131.288 123.734 131.008C123.55 130.72 123.458 130.352 123.458 129.904C123.458 129.472 123.57 129.076 123.794 128.716C124.026 128.348 124.378 128.056 124.85 127.84C125.33 127.616 125.938 127.504 126.674 127.504C127.162 127.504 127.646 127.568 128.126 127.696C128.606 127.824 129.022 128.008 129.374 128.248L128.978 129.208C128.618 128.968 128.238 128.796 127.838 128.692C127.438 128.58 127.05 128.524 126.674 128.524C126.202 128.524 125.814 128.584 125.51 128.704C125.206 128.824 124.982 128.984 124.838 129.184C124.702 129.384 124.634 129.608 124.634 129.856C124.634 130.152 124.726 130.388 124.91 130.564C125.102 130.74 125.346 130.88 125.642 130.984C125.946 131.088 126.278 131.184 126.638 131.272C126.998 131.352 127.358 131.444 127.718 131.548C128.086 131.652 128.418 131.788 128.714 131.956C129.018 132.124 129.262 132.348 129.446 132.628C129.63 132.908 129.722 133.268 129.722 133.708C129.722 134.132 129.606 134.528 129.374 134.896C129.142 135.256 128.782 135.548 128.294 135.772C127.814 135.988 127.206 136.096 126.47 136.096ZM132.09 136V128.08L132.606 128.644H130.194V127.6H133.278V136H132.09ZM135.908 136.072C135.684 136.072 135.492 135.996 135.332 135.844C135.172 135.684 135.092 135.484 135.092 135.244C135.092 135.004 135.172 134.808 135.332 134.656C135.492 134.504 135.684 134.428 135.908 134.428C136.124 134.428 136.308 134.504 136.46 134.656C136.62 134.808 136.7 135.004 136.7 135.244C136.7 135.484 136.62 135.684 136.46 135.844C136.308 135.996 136.124 136.072 135.908 136.072ZM140.546 136.096C139.954 136.096 139.378 136.004 138.818 135.82C138.266 135.636 137.814 135.388 137.462 135.076L138.014 134.128C138.294 134.392 138.658 134.608 139.106 134.776C139.554 134.944 140.03 135.028 140.534 135.028C141.174 135.028 141.666 134.892 142.01 134.62C142.354 134.348 142.526 133.984 142.526 133.528C142.526 133.216 142.45 132.944 142.298 132.712C142.146 132.48 141.882 132.304 141.506 132.184C141.138 132.056 140.63 131.992 139.982 131.992H138.074L138.518 127.6H143.258V128.644H138.962L139.586 128.056L139.238 131.524L138.614 130.948H140.234C141.074 130.948 141.75 131.056 142.262 131.272C142.774 131.488 143.146 131.788 143.378 132.172C143.61 132.548 143.726 132.984 143.726 133.48C143.726 133.96 143.61 134.4 143.378 134.8C143.146 135.192 142.794 135.508 142.322 135.748C141.858 135.98 141.266 136.096 140.546 136.096ZM148.157 136.096C147.501 136.096 146.913 135.928 146.393 135.592C145.881 135.256 145.473 134.768 145.169 134.128C144.873 133.488 144.725 132.712 144.725 131.8C144.725 130.888 144.873 130.112 145.169 129.472C145.473 128.832 145.881 128.344 146.393 128.008C146.913 127.672 147.501 127.504 148.157 127.504C148.805 127.504 149.389 127.672 149.909 128.008C150.429 128.344 150.837 128.832 151.133 129.472C151.429 130.112 151.577 130.888 151.577 131.8C151.577 132.712 151.429 133.488 151.133 134.128C150.837 134.768 150.429 135.256 149.909 135.592C149.389 135.928 148.805 136.096 148.157 136.096ZM148.157 135.028C148.597 135.028 148.981 134.908 149.309 134.668C149.645 134.428 149.905 134.068 150.089 133.588C150.281 133.108 150.377 132.512 150.377 131.8C150.377 131.088 150.281 130.492 150.089 130.012C149.905 129.532 149.645 129.172 149.309 128.932C148.981 128.692 148.597 128.572 148.157 128.572C147.717 128.572 147.329 128.692 146.993 128.932C146.657 129.172 146.393 129.532 146.201 130.012C146.017 130.492 145.925 131.088 145.925 131.8C145.925 132.512 146.017 133.108 146.201 133.588C146.393 134.068 146.657 134.428 146.993 134.668C147.329 134.908 147.717 135.028 148.157 135.028Z" fill="#95D6CD"/>
<path d="M179.729 136V128.08L180.245 128.644H177.833V127.6H180.917V136H179.729Z" fill="#95D6CD"/>
<path d="M22.65 161V152.6H26.586C27.594 152.6 28.362 152.8 28.89 153.2C29.418 153.592 29.682 154.12 29.682 154.784C29.682 155.232 29.578 155.616 29.37 155.936C29.162 156.248 28.882 156.492 28.53 156.668C28.186 156.836 27.81 156.92 27.402 156.92L27.618 156.488C28.09 156.488 28.514 156.576 28.89 156.752C29.266 156.92 29.562 157.168 29.778 157.496C30.002 157.824 30.114 158.232 30.114 158.72C30.114 159.44 29.838 160 29.286 160.4C28.734 160.8 27.914 161 26.826 161H22.65ZM24.21 159.776H26.73C27.314 159.776 27.762 159.68 28.074 159.488C28.386 159.296 28.542 158.988 28.542 158.564C28.542 158.148 28.386 157.844 28.074 157.652C27.762 157.452 27.314 157.352 26.73 157.352H24.09V156.14H26.418C26.962 156.14 27.378 156.044 27.666 155.852C27.962 155.66 28.11 155.372 28.11 154.988C28.11 154.596 27.962 154.304 27.666 154.112C27.378 153.92 26.962 153.824 26.418 153.824H24.21V159.776ZM35.5829 161V159.704L35.4989 159.428V157.16C35.4989 156.72 35.3669 156.38 35.1029 156.14C34.8389 155.892 34.4389 155.768 33.9029 155.768C33.5429 155.768 33.1869 155.824 32.8349 155.936C32.4909 156.048 32.1989 156.204 31.9589 156.404L31.3709 155.312C31.7149 155.048 32.1229 154.852 32.5949 154.724C33.0749 154.588 33.5709 154.52 34.0829 154.52C35.0109 154.52 35.7269 154.744 36.2309 155.192C36.7429 155.632 36.9989 156.316 36.9989 157.244V161H35.5829ZM33.5669 161.084C33.0869 161.084 32.6669 161.004 32.3069 160.844C31.9469 160.676 31.6669 160.448 31.4669 160.16C31.2749 159.864 31.1789 159.532 31.1789 159.164C31.1789 158.804 31.2629 158.48 31.4309 158.192C31.6069 157.904 31.8909 157.676 32.2829 157.508C32.6749 157.34 33.1949 157.256 33.8429 157.256H35.7029V158.252H33.9509C33.4389 158.252 33.0949 158.336 32.9189 158.504C32.7429 158.664 32.6549 158.864 32.6549 159.104C32.6549 159.376 32.7629 159.592 32.9789 159.752C33.1949 159.912 33.4949 159.992 33.8789 159.992C34.2469 159.992 34.5749 159.908 34.8629 159.74C35.1589 159.572 35.3709 159.324 35.4989 158.996L35.7509 159.896C35.6069 160.272 35.3469 160.564 34.9709 160.772C34.6029 160.98 34.1349 161.084 33.5669 161.084ZM41.8397 163.412C41.2477 163.412 40.6677 163.332 40.0997 163.172C39.5397 163.02 39.0797 162.796 38.7197 162.5L39.3917 161.372C39.6717 161.604 40.0237 161.788 40.4477 161.924C40.8797 162.068 41.3157 162.14 41.7557 162.14C42.4597 162.14 42.9757 161.976 43.3037 161.648C43.6317 161.328 43.7957 160.844 43.7957 160.196V159.056L43.9157 157.604L43.8677 156.152V154.592H45.2957V160.028C45.2957 161.188 44.9997 162.04 44.4077 162.584C43.8157 163.136 42.9597 163.412 41.8397 163.412ZM41.6477 160.712C41.0397 160.712 40.4877 160.584 39.9917 160.328C39.5037 160.064 39.1157 159.7 38.8277 159.236C38.5477 158.772 38.4077 158.228 38.4077 157.604C38.4077 156.988 38.5477 156.448 38.8277 155.984C39.1157 155.52 39.5037 155.16 39.9917 154.904C40.4877 154.648 41.0397 154.52 41.6477 154.52C42.1917 154.52 42.6797 154.628 43.1117 154.844C43.5437 155.06 43.8877 155.396 44.1437 155.852C44.4077 156.308 44.5397 156.892 44.5397 157.604C44.5397 158.316 44.4077 158.904 44.1437 159.368C43.8877 159.824 43.5437 160.164 43.1117 160.388C42.6797 160.604 42.1917 160.712 41.6477 160.712ZM41.8757 159.44C42.2517 159.44 42.5877 159.364 42.8837 159.212C43.1797 159.052 43.4077 158.836 43.5677 158.564C43.7357 158.284 43.8197 157.964 43.8197 157.604C43.8197 157.244 43.7357 156.928 43.5677 156.656C43.4077 156.376 43.1797 156.164 42.8837 156.02C42.5877 155.868 42.2517 155.792 41.8757 155.792C41.4997 155.792 41.1597 155.868 40.8557 156.02C40.5597 156.164 40.3277 156.376 40.1597 156.656C39.9997 156.928 39.9197 157.244 39.9197 157.604C39.9197 157.964 39.9997 158.284 40.1597 158.564C40.3277 158.836 40.5597 159.052 40.8557 159.212C41.1597 159.364 41.4997 159.44 41.8757 159.44ZM50.2797 161.084C49.5677 161.084 48.9437 160.944 48.4077 160.664C47.8797 160.376 47.4677 159.984 47.1717 159.488C46.8837 158.992 46.7397 158.428 46.7397 157.796C46.7397 157.156 46.8797 156.592 47.1597 156.104C47.4477 155.608 47.8397 155.22 48.3357 154.94C48.8397 154.66 49.4117 154.52 50.0517 154.52C50.6757 154.52 51.2317 154.656 51.7197 154.928C52.2077 155.2 52.5917 155.584 52.8717 156.08C53.1517 156.576 53.2917 157.16 53.2917 157.832C53.2917 157.896 53.2877 157.968 53.2797 158.048C53.2797 158.128 53.2757 158.204 53.2677 158.276H47.9277V157.28H52.4757L51.8877 157.592C51.8957 157.224 51.8197 156.9 51.6597 156.62C51.4997 156.34 51.2797 156.12 50.9997 155.96C50.7277 155.8 50.4117 155.72 50.0517 155.72C49.6837 155.72 49.3597 155.8 49.0797 155.96C48.8077 156.12 48.5917 156.344 48.4317 156.632C48.2797 156.912 48.2037 157.244 48.2037 157.628V157.868C48.2037 158.252 48.2917 158.592 48.4677 158.888C48.6437 159.184 48.8917 159.412 49.2117 159.572C49.5317 159.732 49.8997 159.812 50.3157 159.812C50.6757 159.812 50.9997 159.756 51.2877 159.644C51.5757 159.532 51.8317 159.356 52.0557 159.116L52.8597 160.04C52.5717 160.376 52.2077 160.636 51.7677 160.82C51.3357 160.996 50.8397 161.084 50.2797 161.084ZM54.7325 161V152.096H56.2325V161H54.7325ZM60.1813 161.084C59.6453 161.084 59.1293 161.016 58.6333 160.88C58.1453 160.736 57.7573 160.564 57.4693 160.364L58.0453 159.224C58.3333 159.408 58.6773 159.56 59.0773 159.68C59.4773 159.8 59.8773 159.86 60.2773 159.86C60.7493 159.86 61.0893 159.796 61.2973 159.668C61.5133 159.54 61.6213 159.368 61.6213 159.152C61.6213 158.976 61.5493 158.844 61.4053 158.756C61.2613 158.66 61.0733 158.588 60.8413 158.54C60.6093 158.492 60.3493 158.448 60.0613 158.408C59.7813 158.368 59.4973 158.316 59.2093 158.252C58.9293 158.18 58.6733 158.08 58.4413 157.952C58.2093 157.816 58.0213 157.636 57.8773 157.412C57.7333 157.188 57.6613 156.892 57.6613 156.524C57.6613 156.116 57.7773 155.764 58.0093 155.468C58.2413 155.164 58.5653 154.932 58.9813 154.772C59.4053 154.604 59.9053 154.52 60.4813 154.52C60.9133 154.52 61.3493 154.568 61.7893 154.664C62.2293 154.76 62.5933 154.896 62.8813 155.072L62.3053 156.212C62.0013 156.028 61.6933 155.904 61.3813 155.84C61.0773 155.768 60.7733 155.732 60.4693 155.732C60.0133 155.732 59.6733 155.8 59.4493 155.936C59.2333 156.072 59.1253 156.244 59.1253 156.452C59.1253 156.644 59.1973 156.788 59.3413 156.884C59.4853 156.98 59.6733 157.056 59.9053 157.112C60.1373 157.168 60.3933 157.216 60.6733 157.256C60.9613 157.288 61.2453 157.34 61.5253 157.412C61.8053 157.484 62.0613 157.584 62.2933 157.712C62.5333 157.832 62.7253 158.004 62.8693 158.228C63.0133 158.452 63.0853 158.744 63.0853 159.104C63.0853 159.504 62.9653 159.852 62.7253 160.148C62.4933 160.444 62.1613 160.676 61.7293 160.844C61.2973 161.004 60.7813 161.084 60.1813 161.084Z" fill="#95D6CD"/>
<path d="M126.127 162.44V151.16H126.895V162.44H126.127ZM126.427 161.096C125.787 161.096 125.175 161 124.591 160.808C124.007 160.608 123.547 160.352 123.211 160.04L123.655 159.104C123.975 159.384 124.383 159.616 124.879 159.8C125.375 159.984 125.891 160.076 126.427 160.076C126.915 160.076 127.311 160.02 127.615 159.908C127.919 159.796 128.143 159.644 128.287 159.452C128.431 159.252 128.503 159.028 128.503 158.78C128.503 158.492 128.407 158.26 128.215 158.084C128.031 157.908 127.787 157.768 127.483 157.664C127.187 157.552 126.859 157.456 126.499 157.376C126.139 157.296 125.775 157.204 125.407 157.1C125.047 156.988 124.715 156.848 124.411 156.68C124.115 156.512 123.875 156.288 123.691 156.008C123.507 155.72 123.415 155.352 123.415 154.904C123.415 154.472 123.527 154.076 123.751 153.716C123.983 153.348 124.335 153.056 124.807 152.84C125.287 152.616 125.895 152.504 126.631 152.504C127.119 152.504 127.603 152.568 128.083 152.696C128.563 152.824 128.979 153.008 129.331 153.248L128.935 154.208C128.575 153.968 128.195 153.796 127.795 153.692C127.395 153.58 127.007 153.524 126.631 153.524C126.159 153.524 125.771 153.584 125.467 153.704C125.163 153.824 124.939 153.984 124.795 154.184C124.659 154.384 124.591 154.608 124.591 154.856C124.591 155.152 124.683 155.388 124.867 155.564C125.059 155.74 125.303 155.88 125.599 155.984C125.903 156.088 126.235 156.184 126.595 156.272C126.955 156.352 127.315 156.444 127.675 156.548C128.043 156.652 128.375 156.788 128.671 156.956C128.975 157.124 129.219 157.348 129.403 157.628C129.587 157.908 129.679 158.268 129.679 158.708C129.679 159.132 129.563 159.528 129.331 159.896C129.099 160.256 128.739 160.548 128.251 160.772C127.771 160.988 127.163 161.096 126.427 161.096ZM130.746 158.936V158.096L135.042 152.6H136.338L132.078 158.096L131.466 157.904H138.174V158.936H130.746ZM135.414 161V158.936L135.45 157.904V156.08H136.578V161H135.414ZM139.919 161.072C139.695 161.072 139.503 160.996 139.343 160.844C139.183 160.684 139.103 160.484 139.103 160.244C139.103 160.004 139.183 159.808 139.343 159.656C139.503 159.504 139.695 159.428 139.919 159.428C140.135 159.428 140.319 159.504 140.471 159.656C140.631 159.808 140.711 160.004 140.711 160.244C140.711 160.484 140.631 160.684 140.471 160.844C140.319 160.996 140.135 161.072 139.919 161.072ZM141.621 158.936V158.096L145.917 152.6H147.213L142.953 158.096L142.341 157.904H149.049V158.936H141.621ZM146.289 161V158.936L146.325 157.904V156.08H147.453V161H146.289ZM153.2 161.096C152.544 161.096 151.956 160.928 151.436 160.592C150.924 160.256 150.516 159.768 150.212 159.128C149.916 158.488 149.768 157.712 149.768 156.8C149.768 155.888 149.916 155.112 150.212 154.472C150.516 153.832 150.924 153.344 151.436 153.008C151.956 152.672 152.544 152.504 153.2 152.504C153.848 152.504 154.432 152.672 154.952 153.008C155.472 153.344 155.88 153.832 156.176 154.472C156.472 155.112 156.62 155.888 156.62 156.8C156.62 157.712 156.472 158.488 156.176 159.128C155.88 159.768 155.472 160.256 154.952 160.592C154.432 160.928 153.848 161.096 153.2 161.096ZM153.2 160.028C153.64 160.028 154.024 159.908 154.352 159.668C154.688 159.428 154.948 159.068 155.132 158.588C155.324 158.108 155.42 157.512 155.42 156.8C155.42 156.088 155.324 155.492 155.132 155.012C154.948 154.532 154.688 154.172 154.352 153.932C154.024 153.692 153.64 153.572 153.2 153.572C152.76 153.572 152.372 153.692 152.036 153.932C151.7 154.172 151.436 154.532 151.244 155.012C151.06 155.492 150.968 156.088 150.968 156.8C150.968 157.512 151.06 158.108 151.244 158.588C151.436 159.068 151.7 159.428 152.036 159.668C152.372 159.908 152.76 160.028 153.2 160.028Z" fill="#95D6CD"/>
<path d="M179.729 161V153.08L180.245 153.644H177.833V152.6H180.917V161H179.729Z" fill="#95D6CD"/>
<path d="M26.9618 186.12C26.3218 186.12 25.7258 186.016 25.1738 185.808C24.6298 185.592 24.1538 185.292 23.7458 184.908C23.3458 184.516 23.0338 184.056 22.8098 183.528C22.5858 183 22.4738 182.424 22.4738 181.8C22.4738 181.176 22.5858 180.6 22.8098 180.072C23.0338 179.544 23.3498 179.088 23.7578 178.704C24.1658 178.312 24.6418 178.012 25.1858 177.804C25.7298 177.588 26.3258 177.48 26.9738 177.48C27.6618 177.48 28.2898 177.6 28.8578 177.84C29.4258 178.072 29.9058 178.42 30.2978 178.884L29.2898 179.832C28.9858 179.504 28.6458 179.26 28.2698 179.1C27.8938 178.932 27.4858 178.848 27.0458 178.848C26.6058 178.848 26.2018 178.92 25.8338 179.064C25.4738 179.208 25.1578 179.412 24.8858 179.676C24.6218 179.94 24.4138 180.252 24.2618 180.612C24.1178 180.972 24.0458 181.368 24.0458 181.8C24.0458 182.232 24.1178 182.628 24.2618 182.988C24.4138 183.348 24.6218 183.66 24.8858 183.924C25.1578 184.188 25.4738 184.392 25.8338 184.536C26.2018 184.68 26.6058 184.752 27.0458 184.752C27.4858 184.752 27.8938 184.672 28.2698 184.512C28.6458 184.344 28.9858 184.092 29.2898 183.756L30.2978 184.716C29.9058 185.172 29.4258 185.52 28.8578 185.76C28.2898 186 27.6578 186.12 26.9618 186.12ZM34.4145 186.084C33.7025 186.084 33.0785 185.944 32.5425 185.664C32.0145 185.376 31.6025 184.984 31.3065 184.488C31.0185 183.992 30.8745 183.428 30.8745 182.796C30.8745 182.156 31.0145 181.592 31.2945 181.104C31.5825 180.608 31.9745 180.22 32.4705 179.94C32.9745 179.66 33.5465 179.52 34.1865 179.52C34.8105 179.52 35.3665 179.656 35.8545 179.928C36.3425 180.2 36.7265 180.584 37.0065 181.08C37.2865 181.576 37.4265 182.16 37.4265 182.832C37.4265 182.896 37.4225 182.968 37.4145 183.048C37.4145 183.128 37.4105 183.204 37.4025 183.276H32.0625V182.28H36.6105L36.0225 182.592C36.0305 182.224 35.9545 181.9 35.7945 181.62C35.6345 181.34 35.4145 181.12 35.1345 180.96C34.8625 180.8 34.5465 180.72 34.1865 180.72C33.8185 180.72 33.4945 180.8 33.2145 180.96C32.9425 181.12 32.7265 181.344 32.5665 181.632C32.4145 181.912 32.3385 182.244 32.3385 182.628V182.868C32.3385 183.252 32.4265 183.592 32.6025 183.888C32.7785 184.184 33.0265 184.412 33.3465 184.572C33.6665 184.732 34.0345 184.812 34.4505 184.812C34.8105 184.812 35.1345 184.756 35.4225 184.644C35.7105 184.532 35.9665 184.356 36.1905 184.116L36.9945 185.04C36.7065 185.376 36.3425 185.636 35.9025 185.82C35.4705 185.996 34.9745 186.084 34.4145 186.084ZM38.8673 186V177.096H40.3673V186H38.8673ZM45.3481 186.084C44.6361 186.084 44.0121 185.944 43.4761 185.664C42.9481 185.376 42.5361 184.984 42.2401 184.488C41.9521 183.992 41.8081 183.428 41.8081 182.796C41.8081 182.156 41.9481 181.592 42.2281 181.104C42.5161 180.608 42.9081 180.22 43.4041 179.94C43.9081 179.66 44.4801 179.52 45.1201 179.52C45.7441 179.52 46.3001 179.656 46.7881 179.928C47.2761 180.2 47.6601 180.584 47.9401 181.08C48.2201 181.576 48.3601 182.16 48.3601 182.832C48.3601 182.896 48.3561 182.968 48.3481 183.048C48.3481 183.128 48.3441 183.204 48.3361 183.276H42.9961V182.28H47.5441L46.9561 182.592C46.9641 182.224 46.8881 181.9 46.7281 181.62C46.5681 181.34 46.3481 181.12 46.0681 180.96C45.7961 180.8 45.4801 180.72 45.1201 180.72C44.7521 180.72 44.4281 180.8 44.1481 180.96C43.8761 181.12 43.6601 181.344 43.5001 181.632C43.3481 181.912 43.2721 182.244 43.2721 182.628V182.868C43.2721 183.252 43.3601 183.592 43.5361 183.888C43.7121 184.184 43.9601 184.412 44.2801 184.572C44.6001 184.732 44.9681 184.812 45.3841 184.812C45.7441 184.812 46.0681 184.756 46.3561 184.644C46.6441 184.532 46.9001 184.356 47.1241 184.116L47.9281 185.04C47.6401 185.376 47.2761 185.636 46.8361 185.82C46.4041 185.996 45.9081 186.084 45.3481 186.084ZM49.8009 186V179.592H51.2289V181.356L51.0609 180.84C51.2529 180.408 51.5529 180.08 51.9609 179.856C52.3769 179.632 52.8929 179.52 53.5089 179.52V180.948C53.4449 180.932 53.3849 180.924 53.3289 180.924C53.2729 180.916 53.2169 180.912 53.1609 180.912C52.5929 180.912 52.1409 181.08 51.8049 181.416C51.4689 181.744 51.3009 182.236 51.3009 182.892V186H49.8009ZM55.5437 188.412C55.2317 188.412 54.9197 188.36 54.6077 188.256C54.2957 188.152 54.0357 188.008 53.8277 187.824L54.4277 186.72C54.5797 186.856 54.7517 186.964 54.9437 187.044C55.1357 187.124 55.3317 187.164 55.5317 187.164C55.8037 187.164 56.0237 187.096 56.1917 186.96C56.3597 186.824 56.5157 186.596 56.6597 186.276L57.0317 185.436L57.1517 185.256L59.5757 179.592H61.0157L58.0157 186.516C57.8157 186.996 57.5917 187.376 57.3437 187.656C57.1037 187.936 56.8317 188.132 56.5277 188.244C56.2317 188.356 55.9037 188.412 55.5437 188.412ZM56.8637 186.228L53.9717 179.592H55.5317L57.8837 185.124L56.8637 186.228Z" fill="#95D6CD"/>
<path d="M125.887 187.44V176.16H126.655V187.44H125.887ZM126.187 186.096C125.547 186.096 124.935 186 124.351 185.808C123.767 185.608 123.307 185.352 122.971 185.04L123.415 184.104C123.735 184.384 124.143 184.616 124.639 184.8C125.135 184.984 125.651 185.076 126.187 185.076C126.675 185.076 127.071 185.02 127.375 184.908C127.679 184.796 127.903 184.644 128.047 184.452C128.191 184.252 128.263 184.028 128.263 183.78C128.263 183.492 128.167 183.26 127.975 183.084C127.791 182.908 127.547 182.768 127.243 182.664C126.947 182.552 126.619 182.456 126.259 182.376C125.899 182.296 125.535 182.204 125.167 182.1C124.807 181.988 124.475 181.848 124.171 181.68C123.875 181.512 123.635 181.288 123.451 181.008C123.267 180.72 123.175 180.352 123.175 179.904C123.175 179.472 123.287 179.076 123.511 178.716C123.743 178.348 124.095 178.056 124.567 177.84C125.047 177.616 125.655 177.504 126.391 177.504C126.879 177.504 127.363 177.568 127.843 177.696C128.323 177.824 128.739 178.008 129.091 178.248L128.695 179.208C128.335 178.968 127.955 178.796 127.555 178.692C127.155 178.58 126.767 178.524 126.391 178.524C125.919 178.524 125.531 178.584 125.227 178.704C124.923 178.824 124.699 178.984 124.555 179.184C124.419 179.384 124.351 179.608 124.351 179.856C124.351 180.152 124.443 180.388 124.627 180.564C124.819 180.74 125.063 180.88 125.359 180.984C125.663 181.088 125.995 181.184 126.355 181.272C126.715 181.352 127.075 181.444 127.435 181.548C127.803 181.652 128.135 181.788 128.431 181.956C128.735 182.124 128.979 182.348 129.163 182.628C129.347 182.908 129.439 183.268 129.439 183.708C129.439 184.132 129.323 184.528 129.091 184.896C128.859 185.256 128.499 185.548 128.011 185.772C127.531 185.988 126.923 186.096 126.187 186.096ZM132.994 186.096C132.402 186.096 131.826 186.004 131.266 185.82C130.714 185.636 130.262 185.388 129.91 185.076L130.462 184.128C130.742 184.392 131.106 184.608 131.554 184.776C132.002 184.944 132.482 185.028 132.994 185.028C133.618 185.028 134.102 184.896 134.446 184.632C134.798 184.36 134.974 183.996 134.974 183.54C134.974 183.1 134.806 182.748 134.47 182.484C134.142 182.212 133.618 182.076 132.898 182.076H132.226V181.236L134.722 178.164L134.89 178.644H130.294V177.6H135.838V178.416L133.354 181.476L132.73 181.104H133.126C134.142 181.104 134.902 181.332 135.406 181.788C135.918 182.244 136.174 182.824 136.174 183.528C136.174 184 136.058 184.432 135.826 184.824C135.594 185.216 135.242 185.528 134.77 185.76C134.306 185.984 133.714 186.096 132.994 186.096ZM138.085 186.072C137.861 186.072 137.669 185.996 137.509 185.844C137.349 185.684 137.269 185.484 137.269 185.244C137.269 185.004 137.349 184.808 137.509 184.656C137.669 184.504 137.861 184.428 138.085 184.428C138.301 184.428 138.485 184.504 138.637 184.656C138.797 184.808 138.877 185.004 138.877 185.244C138.877 185.484 138.797 185.684 138.637 185.844C138.485 185.996 138.301 186.072 138.085 186.072ZM139.997 186V185.184L143.417 181.884C143.721 181.596 143.945 181.344 144.089 181.128C144.241 180.904 144.341 180.7 144.389 180.516C144.445 180.324 144.473 180.14 144.473 179.964C144.473 179.532 144.321 179.192 144.017 178.944C143.713 178.696 143.269 178.572 142.685 178.572C142.237 178.572 141.833 178.648 141.473 178.8C141.113 178.944 140.801 179.172 140.537 179.484L139.721 178.776C140.041 178.368 140.469 178.056 141.005 177.84C141.549 177.616 142.145 177.504 142.793 177.504C143.377 177.504 143.885 177.6 144.317 177.792C144.749 177.976 145.081 178.244 145.313 178.596C145.553 178.948 145.673 179.364 145.673 179.844C145.673 180.116 145.637 180.384 145.565 180.648C145.493 180.912 145.357 181.192 145.157 181.488C144.957 181.784 144.669 182.116 144.293 182.484L141.245 185.424L140.957 184.956H146.033V186H139.997ZM150.44 186.096C149.784 186.096 149.196 185.928 148.676 185.592C148.164 185.256 147.756 184.768 147.452 184.128C147.156 183.488 147.008 182.712 147.008 181.8C147.008 180.888 147.156 180.112 147.452 179.472C147.756 178.832 148.164 178.344 148.676 178.008C149.196 177.672 149.784 177.504 150.44 177.504C151.088 177.504 151.672 177.672 152.192 178.008C152.712 178.344 153.12 178.832 153.416 179.472C153.712 180.112 153.86 180.888 153.86 181.8C153.86 182.712 153.712 183.488 153.416 184.128C153.12 184.768 152.712 185.256 152.192 185.592C151.672 185.928 151.088 186.096 150.44 186.096ZM150.44 185.028C150.88 185.028 151.264 184.908 151.592 184.668C151.928 184.428 152.188 184.068 152.372 183.588C152.564 183.108 152.66 182.512 152.66 181.8C152.66 181.088 152.564 180.492 152.372 180.012C152.188 179.532 151.928 179.172 151.592 178.932C151.264 178.692 150.88 178.572 150.44 178.572C150 178.572 149.612 178.692 149.276 178.932C148.94 179.172 148.676 179.532 148.484 180.012C148.3 180.492 148.208 181.088 148.208 181.8C148.208 182.512 148.3 183.108 148.484 183.588C148.676 184.068 148.94 184.428 149.276 184.668C149.612 184.908 150 185.028 150.44 185.028Z" fill="#95D6CD"/>
<path d="M179.729 186V178.08L180.245 178.644H177.833V177.6H180.917V186H179.729Z" fill="#95D6CD"/>
<path d="M56.7175 91V82.6H60.2575C61.1535 82.6 61.9415 82.776 62.6215 83.128C63.3095 83.48 63.8415 83.972 64.2175 84.604C64.6015 85.236 64.7935 85.968 64.7935 86.8C64.7935 87.632 64.6015 88.364 64.2175 88.996C63.8415 89.628 63.3095 90.12 62.6215 90.472C61.9415 90.824 61.1535 91 60.2575 91H56.7175ZM57.9175 89.956H60.1855C60.8815 89.956 61.4815 89.824 61.9855 89.56C62.4975 89.296 62.8935 88.928 63.1735 88.456C63.4535 87.976 63.5935 87.424 63.5935 86.8C63.5935 86.168 63.4535 85.616 63.1735 85.144C62.8935 84.672 62.4975 84.304 61.9855 84.04C61.4815 83.776 60.8815 83.644 60.1855 83.644H57.9175V89.956ZM70.4116 91V89.656L70.3516 89.404V87.112C70.3516 86.624 70.2076 86.248 69.9196 85.984C69.6396 85.712 69.2156 85.576 68.6476 85.576C68.2716 85.576 67.9036 85.64 67.5436 85.768C67.1836 85.888 66.8796 86.052 66.6316 86.26L66.1516 85.396C66.4796 85.132 66.8716 84.932 67.3276 84.796C67.7916 84.652 68.2756 84.58 68.7796 84.58C69.6516 84.58 70.3236 84.792 70.7956 85.216C71.2676 85.64 71.5036 86.288 71.5036 87.16V91H70.4116ZM68.3236 91.072C67.8516 91.072 67.4356 90.992 67.0756 90.832C66.7236 90.672 66.4516 90.452 66.2596 90.172C66.0676 89.884 65.9716 89.56 65.9716 89.2C65.9716 88.856 66.0516 88.544 66.2116 88.264C66.3796 87.984 66.6476 87.76 67.0156 87.592C67.3916 87.424 67.8956 87.34 68.5276 87.34H70.5436V88.168H68.5756C67.9996 88.168 67.6116 88.264 67.4116 88.456C67.2116 88.648 67.1116 88.88 67.1116 89.152C67.1116 89.464 67.2356 89.716 67.4836 89.908C67.7316 90.092 68.0756 90.184 68.5156 90.184C68.9476 90.184 69.3236 90.088 69.6436 89.896C69.9716 89.704 70.2076 89.424 70.3516 89.056L70.5796 89.848C70.4276 90.224 70.1596 90.524 69.7756 90.748C69.3916 90.964 68.9076 91.072 68.3236 91.072ZM75.8195 91.072C75.1795 91.072 74.6835 90.9 74.3315 90.556C73.9795 90.212 73.8035 89.72 73.8035 89.08V83.248H74.9555V89.032C74.9555 89.376 75.0395 89.64 75.2075 89.824C75.3835 90.008 75.6315 90.1 75.9515 90.1C76.3115 90.1 76.6115 90 76.8515 89.8L77.2115 90.628C77.0355 90.78 76.8235 90.892 76.5755 90.964C76.3355 91.036 76.0835 91.072 75.8195 91.072ZM72.7235 85.588V84.64H76.7795V85.588H72.7235ZM81.2253 91.072C80.5453 91.072 79.9453 90.932 79.4253 90.652C78.9133 90.372 78.5133 89.988 78.2253 89.5C77.9453 89.012 77.8053 88.452 77.8053 87.82C77.8053 87.188 77.9413 86.628 78.2133 86.14C78.4933 85.652 78.8733 85.272 79.3533 85C79.8413 84.72 80.3893 84.58 80.9973 84.58C81.6133 84.58 82.1573 84.716 82.6293 84.988C83.1013 85.26 83.4693 85.644 83.7333 86.14C84.0053 86.628 84.1413 87.2 84.1413 87.856C84.1413 87.904 84.1373 87.96 84.1293 88.024C84.1293 88.088 84.1253 88.148 84.1173 88.204H78.7053V87.376H83.5173L83.0493 87.664C83.0573 87.256 82.9733 86.892 82.7973 86.572C82.6213 86.252 82.3773 86.004 82.0653 85.828C81.7613 85.644 81.4053 85.552 80.9973 85.552C80.5973 85.552 80.2413 85.644 79.9293 85.828C79.6173 86.004 79.3733 86.256 79.1973 86.584C79.0213 86.904 78.9333 87.272 78.9333 87.688V87.88C78.9333 88.304 79.0293 88.684 79.2213 89.02C79.4213 89.348 79.6973 89.604 80.0493 89.788C80.4013 89.972 80.8053 90.064 81.2613 90.064C81.6373 90.064 81.9773 90 82.2813 89.872C82.5933 89.744 82.8653 89.552 83.0973 89.296L83.7333 90.04C83.4453 90.376 83.0853 90.632 82.6533 90.808C82.2293 90.984 81.7533 91.072 81.2253 91.072ZM86.0169 86.224C85.7929 86.224 85.6009 86.148 85.4409 85.996C85.2809 85.836 85.2009 85.636 85.2009 85.396C85.2009 85.156 85.2809 84.96 85.4409 84.808C85.6009 84.656 85.7929 84.58 86.0169 84.58C86.2329 84.58 86.4169 84.656 86.5689 84.808C86.7289 84.96 86.8089 85.156 86.8089 85.396C86.8089 85.636 86.7289 85.836 86.5689 85.996C86.4169 86.148 86.2329 86.224 86.0169 86.224ZM86.0169 91.072C85.7929 91.072 85.6009 90.996 85.4409 90.844C85.2809 90.684 85.2009 90.484 85.2009 90.244C85.2009 90.004 85.2809 89.808 85.4409 89.656C85.6009 89.504 85.7929 89.428 86.0169 89.428C86.2329 89.428 86.4169 89.504 86.5689 89.656C86.7289 89.808 86.8089 90.004 86.8089 90.244C86.8089 90.484 86.7289 90.684 86.5689 90.844C86.4169 90.996 86.2329 91.072 86.0169 91.072ZM94.5983 91.096C93.9423 91.096 93.3543 90.928 92.8343 90.592C92.3223 90.256 91.9143 89.768 91.6103 89.128C91.3143 88.488 91.1663 87.712 91.1663 86.8C91.1663 85.888 91.3143 85.112 91.6103 84.472C91.9143 83.832 92.3223 83.344 92.8343 83.008C93.3543 82.672 93.9423 82.504 94.5983 82.504C95.2463 82.504 95.8303 82.672 96.3503 83.008C96.8703 83.344 97.2783 83.832 97.5743 84.472C97.8703 85.112 98.0183 85.888 98.0183 86.8C98.0183 87.712 97.8703 88.488 97.5743 89.128C97.2783 89.768 96.8703 90.256 96.3503 90.592C95.8303 90.928 95.2463 91.096 94.5983 91.096ZM94.5983 90.028C95.0383 90.028 95.4223 89.908 95.7503 89.668C96.0863 89.428 96.3463 89.068 96.5303 88.588C96.7223 88.108 96.8183 87.512 96.8183 86.8C96.8183 86.088 96.7223 85.492 96.5303 85.012C96.3463 84.532 96.0863 84.172 95.7503 83.932C95.4223 83.692 95.0383 83.572 94.5983 83.572C94.1583 83.572 93.7703 83.692 93.4343 83.932C93.0983 84.172 92.8343 84.532 92.6423 85.012C92.4583 85.492 92.3663 86.088 92.3663 86.8C92.3663 87.512 92.4583 88.108 92.6423 88.588C92.8343 89.068 93.0983 89.428 93.4343 89.668C93.7703 89.908 94.1583 90.028 94.5983 90.028ZM99.0382 91V90.184L102.458 86.884C102.762 86.596 102.986 86.344 103.13 86.128C103.282 85.904 103.382 85.7 103.43 85.516C103.486 85.324 103.514 85.14 103.514 84.964C103.514 84.532 103.362 84.192 103.058 83.944C102.754 83.696 102.31 83.572 101.726 83.572C101.278 83.572 100.874 83.648 100.514 83.8C100.154 83.944 99.8422 84.172 99.5782 84.484L98.7622 83.776C99.0822 83.368 99.5102 83.056 100.046 82.84C100.59 82.616 101.186 82.504 101.834 82.504C102.418 82.504 102.926 82.6 103.358 82.792C103.79 82.976 104.122 83.244 104.354 83.596C104.594 83.948 104.714 84.364 104.714 84.844C104.714 85.116 104.678 85.384 104.606 85.648C104.534 85.912 104.398 86.192 104.198 86.488C103.998 86.784 103.71 87.116 103.334 87.484L100.286 90.424L99.9982 89.956H105.074V91H99.0382ZM105.266 92.2L109.226 80.896H110.27L106.31 92.2H105.266ZM113.594 91.096C112.938 91.096 112.35 90.928 111.83 90.592C111.318 90.256 110.91 89.768 110.606 89.128C110.31 88.488 110.162 87.712 110.162 86.8C110.162 85.888 110.31 85.112 110.606 84.472C110.91 83.832 111.318 83.344 111.83 83.008C112.35 82.672 112.938 82.504 113.594 82.504C114.242 82.504 114.826 82.672 115.346 83.008C115.866 83.344 116.274 83.832 116.57 84.472C116.866 85.112 117.014 85.888 117.014 86.8C117.014 87.712 116.866 88.488 116.57 89.128C116.274 89.768 115.866 90.256 115.346 90.592C114.826 90.928 114.242 91.096 113.594 91.096ZM113.594 90.028C114.034 90.028 114.418 89.908 114.746 89.668C115.082 89.428 115.342 89.068 115.526 88.588C115.718 88.108 115.814 87.512 115.814 86.8C115.814 86.088 115.718 85.492 115.526 85.012C115.342 84.532 115.082 84.172 114.746 83.932C114.418 83.692 114.034 83.572 113.594 83.572C113.154 83.572 112.766 83.692 112.43 83.932C112.094 84.172 111.83 84.532 111.638 85.012C111.454 85.492 111.362 86.088 111.362 86.8C111.362 87.512 111.454 88.108 111.638 88.588C111.83 89.068 112.094 89.428 112.43 89.668C112.766 89.908 113.154 90.028 113.594 90.028ZM120.89 82.504C121.65 82.504 122.29 82.668 122.81 82.996C123.338 83.324 123.738 83.8 124.01 84.424C124.282 85.04 124.418 85.796 124.418 86.692C124.418 87.644 124.25 88.448 123.914 89.104C123.578 89.76 123.114 90.256 122.522 90.592C121.93 90.928 121.238 91.096 120.446 91.096C120.054 91.096 119.674 91.056 119.306 90.976C118.946 90.896 118.63 90.772 118.358 90.604L118.814 89.668C119.038 89.812 119.286 89.916 119.558 89.98C119.838 90.036 120.13 90.064 120.434 90.064C121.282 90.064 121.958 89.8 122.462 89.272C122.966 88.736 123.218 87.944 123.218 86.896C123.218 86.728 123.21 86.528 123.194 86.296C123.178 86.064 123.142 85.836 123.086 85.612L123.482 86.02C123.37 86.388 123.182 86.7 122.918 86.956C122.662 87.204 122.35 87.392 121.982 87.52C121.622 87.64 121.226 87.7 120.794 87.7C120.242 87.7 119.75 87.596 119.318 87.388C118.886 87.18 118.546 86.888 118.298 86.512C118.05 86.128 117.926 85.676 117.926 85.156C117.926 84.612 118.054 84.144 118.31 83.752C118.574 83.352 118.93 83.044 119.378 82.828C119.834 82.612 120.338 82.504 120.89 82.504ZM120.938 83.476C120.578 83.476 120.258 83.544 119.978 83.68C119.698 83.816 119.478 84.004 119.318 84.244C119.166 84.484 119.09 84.772 119.09 85.108C119.09 85.604 119.262 86 119.606 86.296C119.95 86.584 120.414 86.728 120.998 86.728C121.382 86.728 121.718 86.656 122.006 86.512C122.302 86.368 122.53 86.172 122.69 85.924C122.858 85.676 122.942 85.4 122.942 85.096C122.942 84.8 122.866 84.532 122.714 84.292C122.562 84.052 122.338 83.856 122.042 83.704C121.746 83.552 121.378 83.476 120.938 83.476ZM124.426 92.2L128.386 80.896H129.43L125.47 92.2H124.426ZM129.425 91V90.184L132.845 86.884C133.149 86.596 133.373 86.344 133.517 86.128C133.669 85.904 133.769 85.7 133.817 85.516C133.873 85.324 133.901 85.14 133.901 84.964C133.901 84.532 133.749 84.192 133.445 83.944C133.141 83.696 132.697 83.572 132.113 83.572C131.665 83.572 131.261 83.648 130.901 83.8C130.541 83.944 130.229 84.172 129.965 84.484L129.149 83.776C129.469 83.368 129.897 83.056 130.433 82.84C130.977 82.616 131.573 82.504 132.221 82.504C132.805 82.504 133.313 82.6 133.745 82.792C134.177 82.976 134.509 83.244 134.741 83.596C134.981 83.948 135.101 84.364 135.101 84.844C135.101 85.116 135.065 85.384 134.993 85.648C134.921 85.912 134.785 86.192 134.585 86.488C134.385 86.784 134.097 87.116 133.721 87.484L130.673 90.424L130.385 89.956H135.461V91H129.425ZM139.868 91.096C139.212 91.096 138.624 90.928 138.104 90.592C137.592 90.256 137.184 89.768 136.88 89.128C136.584 88.488 136.436 87.712 136.436 86.8C136.436 85.888 136.584 85.112 136.88 84.472C137.184 83.832 137.592 83.344 138.104 83.008C138.624 82.672 139.212 82.504 139.868 82.504C140.516 82.504 141.1 82.672 141.62 83.008C142.14 83.344 142.548 83.832 142.844 84.472C143.14 85.112 143.288 85.888 143.288 86.8C143.288 87.712 143.14 88.488 142.844 89.128C142.548 89.768 142.14 90.256 141.62 90.592C141.1 90.928 140.516 91.096 139.868 91.096ZM139.868 90.028C140.308 90.028 140.692 89.908 141.02 89.668C141.356 89.428 141.616 89.068 141.8 88.588C141.992 88.108 142.088 87.512 142.088 86.8C142.088 86.088 141.992 85.492 141.8 85.012C141.616 84.532 141.356 84.172 141.02 83.932C140.692 83.692 140.308 83.572 139.868 83.572C139.428 83.572 139.04 83.692 138.704 83.932C138.368 84.172 138.104 84.532 137.912 85.012C137.728 85.492 137.636 86.088 137.636 86.8C137.636 87.512 137.728 88.108 137.912 88.588C138.104 89.068 138.368 89.428 138.704 89.668C139.04 89.908 139.428 90.028 139.868 90.028ZM144.308 91V90.184L147.728 86.884C148.032 86.596 148.256 86.344 148.4 86.128C148.552 85.904 148.652 85.7 148.7 85.516C148.756 85.324 148.784 85.14 148.784 84.964C148.784 84.532 148.632 84.192 148.328 83.944C148.024 83.696 147.58 83.572 146.996 83.572C146.548 83.572 146.144 83.648 145.784 83.8C145.424 83.944 145.112 84.172 144.848 84.484L144.032 83.776C144.352 83.368 144.78 83.056 145.316 82.84C145.86 82.616 146.456 82.504 147.104 82.504C147.688 82.504 148.196 82.6 148.628 82.792C149.06 82.976 149.392 83.244 149.624 83.596C149.864 83.948 149.984 84.364 149.984 84.844C149.984 85.116 149.948 85.384 149.876 85.648C149.804 85.912 149.668 86.192 149.468 86.488C149.268 86.784 148.98 87.116 148.604 87.484L145.556 90.424L145.268 89.956H150.344V91H144.308ZM153.898 91.096C153.306 91.096 152.73 91.004 152.17 90.82C151.618 90.636 151.166 90.388 150.814 90.076L151.366 89.128C151.646 89.392 152.01 89.608 152.458 89.776C152.906 89.944 153.386 90.028 153.898 90.028C154.522 90.028 155.006 89.896 155.35 89.632C155.702 89.36 155.878 88.996 155.878 88.54C155.878 88.1 155.71 87.748 155.374 87.484C155.046 87.212 154.522 87.076 153.802 87.076H153.13V86.236L155.626 83.164L155.794 83.644H151.198V82.6H156.742V83.416L154.258 86.476L153.634 86.104H154.03C155.046 86.104 155.806 86.332 156.31 86.788C156.822 87.244 157.078 87.824 157.078 88.528C157.078 89 156.962 89.432 156.73 89.824C156.498 90.216 156.146 90.528 155.674 90.76C155.21 90.984 154.618 91.096 153.898 91.096Z" fill="#95D6CD"/>
<path d="M48.7615 66V57.74H45.5135V56.2H53.8295V57.74H50.5815V66H48.7615ZM59.2694 58.44C59.8667 58.44 60.3987 58.5567 60.8654 58.79C61.3414 59.0233 61.7147 59.3827 61.9854 59.868C62.2561 60.344 62.3914 60.96 62.3914 61.716V66H60.6414V61.94C60.6414 61.2773 60.4827 60.7827 60.1654 60.456C59.8574 60.1293 59.4234 59.966 58.8634 59.966C58.4527 59.966 58.0887 60.05 57.7714 60.218C57.4541 60.386 57.2067 60.638 57.0294 60.974C56.8614 61.3007 56.7774 61.716 56.7774 62.22V66H55.0274V55.612H56.7774V60.54L56.3994 59.924C56.6607 59.448 57.0387 59.084 57.5334 58.832C58.0374 58.5707 58.6161 58.44 59.2694 58.44ZM68.1391 66.098C67.3084 66.098 66.5804 65.9347 65.9551 65.608C65.3391 65.272 64.8584 64.8147 64.5131 64.236C64.1771 63.6573 64.0091 62.9993 64.0091 62.262C64.0091 61.5153 64.1724 60.8573 64.4991 60.288C64.8351 59.7093 65.2924 59.2567 65.8711 58.93C66.4591 58.6033 67.1264 58.44 67.8731 58.44C68.6011 58.44 69.2497 58.5987 69.8191 58.916C70.3884 59.2333 70.8364 59.6813 71.1631 60.26C71.4897 60.8387 71.6531 61.52 71.6531 62.304C71.6531 62.3787 71.6484 62.4627 71.6391 62.556C71.6391 62.6493 71.6344 62.738 71.6251 62.822H65.3951V61.66H70.7011L70.0151 62.024C70.0244 61.5947 69.9357 61.2167 69.7491 60.89C69.5624 60.5633 69.3057 60.3067 68.9791 60.12C68.6617 59.9333 68.2931 59.84 67.8731 59.84C67.4437 59.84 67.0657 59.9333 66.7391 60.12C66.4217 60.3067 66.1697 60.568 65.9831 60.904C65.8057 61.2307 65.7171 61.618 65.7171 62.066V62.346C65.7171 62.794 65.8197 63.1907 66.0251 63.536C66.2304 63.8813 66.5197 64.1473 66.8931 64.334C67.2664 64.5207 67.6957 64.614 68.1811 64.614C68.6011 64.614 68.9791 64.5487 69.3151 64.418C69.6511 64.2873 69.9497 64.082 70.2111 63.802L71.1491 64.88C70.8131 65.272 70.3884 65.5753 69.8751 65.79C69.3711 65.9953 68.7924 66.098 68.1391 66.098ZM81.9072 66.14C81.1605 66.14 80.4652 66.0187 79.8212 65.776C79.1865 65.524 78.6312 65.174 78.1552 64.726C77.6885 64.2687 77.3245 63.732 77.0632 63.116C76.8018 62.5 76.6712 61.828 76.6712 61.1C76.6712 60.372 76.8018 59.7 77.0632 59.084C77.3245 58.468 77.6932 57.936 78.1692 57.488C78.6452 57.0307 79.2005 56.6807 79.8352 56.438C80.4698 56.186 81.1652 56.06 81.9212 56.06C82.7238 56.06 83.4565 56.2 84.1192 56.48C84.7818 56.7507 85.3418 57.1567 85.7992 57.698L84.6232 58.804C84.2685 58.4213 83.8718 58.1367 83.4332 57.95C82.9945 57.754 82.5185 57.656 82.0052 57.656C81.4918 57.656 81.0205 57.74 80.5912 57.908C80.1712 58.076 79.8025 58.314 79.4852 58.622C79.1772 58.93 78.9345 59.294 78.7572 59.714C78.5892 60.134 78.5052 60.596 78.5052 61.1C78.5052 61.604 78.5892 62.066 78.7572 62.486C78.9345 62.906 79.1772 63.27 79.4852 63.578C79.8025 63.886 80.1712 64.124 80.5912 64.292C81.0205 64.46 81.4918 64.544 82.0052 64.544C82.5185 64.544 82.9945 64.4507 83.4332 64.264C83.8718 64.068 84.2685 63.774 84.6232 63.382L85.7992 64.502C85.3418 65.034 84.7818 65.44 84.1192 65.72C83.4565 66 82.7192 66.14 81.9072 66.14ZM90.4479 66.098C89.6826 66.098 89.0013 65.9347 88.4039 65.608C87.8066 65.272 87.3353 64.8147 86.9899 64.236C86.6446 63.6573 86.4719 62.9993 86.4719 62.262C86.4719 61.5153 86.6446 60.8573 86.9899 60.288C87.3353 59.7093 87.8066 59.2567 88.4039 58.93C89.0013 58.6033 89.6826 58.44 90.4479 58.44C91.2226 58.44 91.9086 58.6033 92.5059 58.93C93.1126 59.2567 93.5839 59.7047 93.9199 60.274C94.2653 60.8433 94.4379 61.506 94.4379 62.262C94.4379 62.9993 94.2653 63.6573 93.9199 64.236C93.5839 64.8147 93.1126 65.272 92.5059 65.608C91.9086 65.9347 91.2226 66.098 90.4479 66.098ZM90.4479 64.6C90.8773 64.6 91.2599 64.5067 91.5959 64.32C91.9319 64.1333 92.1933 63.8627 92.3799 63.508C92.5759 63.1533 92.6739 62.738 92.6739 62.262C92.6739 61.7767 92.5759 61.3613 92.3799 61.016C92.1933 60.6613 91.9319 60.3907 91.5959 60.204C91.2599 60.0173 90.8819 59.924 90.4619 59.924C90.0326 59.924 89.6499 60.0173 89.3139 60.204C88.9873 60.3907 88.7259 60.6613 88.5299 61.016C88.3339 61.3613 88.2359 61.7767 88.2359 62.262C88.2359 62.738 88.3339 63.1533 88.5299 63.508C88.7259 63.8627 88.9873 64.1333 89.3139 64.32C89.6499 64.5067 90.0279 64.6 90.4479 64.6ZM96.1114 66V58.524H97.7774V60.582L97.5814 59.98C97.8054 59.476 98.1554 59.0933 98.6314 58.832C99.1167 58.5707 99.7187 58.44 100.437 58.44V60.106C100.363 60.0873 100.293 60.078 100.227 60.078C100.162 60.0687 100.097 60.064 100.031 60.064C99.3687 60.064 98.8414 60.26 98.4494 60.652C98.0574 61.0347 97.8614 61.6087 97.8614 62.374V66H96.1114ZM106.164 58.44C106.761 58.44 107.293 58.5567 107.76 58.79C108.236 59.0233 108.609 59.3827 108.88 59.868C109.151 60.344 109.286 60.96 109.286 61.716V66H107.536V61.94C107.536 61.2773 107.377 60.7827 107.06 60.456C106.752 60.1293 106.318 59.966 105.758 59.966C105.347 59.966 104.983 60.05 104.666 60.218C104.349 60.386 104.101 60.638 103.924 60.974C103.756 61.3007 103.672 61.716 103.672 62.22V66H101.922V58.524H103.588V60.54L103.294 59.924C103.555 59.448 103.933 59.084 104.428 58.832C104.932 58.5707 105.511 58.44 106.164 58.44ZM115.034 66.098C114.203 66.098 113.475 65.9347 112.85 65.608C112.234 65.272 111.753 64.8147 111.408 64.236C111.072 63.6573 110.904 62.9993 110.904 62.262C110.904 61.5153 111.067 60.8573 111.394 60.288C111.73 59.7093 112.187 59.2567 112.766 58.93C113.354 58.6033 114.021 58.44 114.768 58.44C115.496 58.44 116.144 58.5987 116.714 58.916C117.283 59.2333 117.731 59.6813 118.058 60.26C118.384 60.8387 118.548 61.52 118.548 62.304C118.548 62.3787 118.543 62.4627 118.534 62.556C118.534 62.6493 118.529 62.738 118.52 62.822H112.29V61.66H117.596L116.91 62.024C116.919 61.5947 116.83 61.2167 116.644 60.89C116.457 60.5633 116.2 60.3067 115.874 60.12C115.556 59.9333 115.188 59.84 114.768 59.84C114.338 59.84 113.96 59.9333 113.634 60.12C113.316 60.3067 113.064 60.568 112.878 60.904C112.7 61.2307 112.612 61.618 112.612 62.066V62.346C112.612 62.794 112.714 63.1907 112.92 63.536C113.125 63.8813 113.414 64.1473 113.788 64.334C114.161 64.5207 114.59 64.614 115.076 64.614C115.496 64.614 115.874 64.5487 116.21 64.418C116.546 64.2873 116.844 64.082 117.106 63.802L118.044 64.88C117.708 65.272 117.283 65.5753 116.77 65.79C116.266 65.9953 115.687 66.098 115.034 66.098ZM120.229 66V58.524H121.895V60.582L121.699 59.98C121.923 59.476 122.273 59.0933 122.749 58.832C123.234 58.5707 123.836 58.44 124.555 58.44V60.106C124.48 60.0873 124.41 60.078 124.345 60.078C124.279 60.0687 124.214 60.064 124.149 60.064C123.486 60.064 122.959 60.26 122.567 60.652C122.175 61.0347 121.979 61.6087 121.979 62.374V66H120.229ZM133.183 66.14C132.417 66.14 131.685 66.0327 130.985 65.818C130.285 65.594 129.729 65.3093 129.319 64.964L129.949 63.55C130.341 63.858 130.826 64.1147 131.405 64.32C131.983 64.5253 132.576 64.628 133.183 64.628C133.696 64.628 134.111 64.572 134.429 64.46C134.746 64.348 134.979 64.1987 135.129 64.012C135.278 63.816 135.353 63.5967 135.353 63.354C135.353 63.0553 135.245 62.8173 135.031 62.64C134.816 62.4533 134.536 62.3087 134.191 62.206C133.855 62.094 133.477 61.9913 133.057 61.898C132.646 61.8047 132.231 61.6973 131.811 61.576C131.4 61.4453 131.022 61.282 130.677 61.086C130.341 60.8807 130.065 60.61 129.851 60.274C129.636 59.938 129.529 59.5087 129.529 58.986C129.529 58.454 129.669 57.9687 129.949 57.53C130.238 57.082 130.672 56.7273 131.251 56.466C131.839 56.1953 132.581 56.06 133.477 56.06C134.065 56.06 134.648 56.1347 135.227 56.284C135.805 56.4333 136.309 56.648 136.739 56.928L136.165 58.342C135.726 58.0807 135.273 57.8893 134.807 57.768C134.34 57.6373 133.892 57.572 133.463 57.572C132.959 57.572 132.548 57.6327 132.231 57.754C131.923 57.8753 131.694 58.034 131.545 58.23C131.405 58.426 131.335 58.65 131.335 58.902C131.335 59.2007 131.437 59.4433 131.643 59.63C131.857 59.8073 132.133 59.9473 132.469 60.05C132.814 60.1527 133.197 60.2553 133.617 60.358C134.037 60.4513 134.452 60.5587 134.863 60.68C135.283 60.8013 135.661 60.96 135.997 61.156C136.342 61.352 136.617 61.618 136.823 61.954C137.037 62.29 137.145 62.7147 137.145 63.228C137.145 63.7507 137 64.236 136.711 64.684C136.431 65.1227 135.997 65.4773 135.409 65.748C134.821 66.0093 134.079 66.14 133.183 66.14ZM141.595 66.098C140.774 66.098 140.139 65.888 139.691 65.468C139.243 65.0387 139.019 64.4087 139.019 63.578V56.872H140.769V63.536C140.769 63.8907 140.858 64.166 141.035 64.362C141.222 64.558 141.479 64.656 141.805 64.656C142.197 64.656 142.524 64.5533 142.785 64.348L143.275 65.594C143.07 65.762 142.818 65.888 142.519 65.972C142.221 66.056 141.913 66.098 141.595 66.098ZM137.787 59.98V58.58H142.771V59.98H137.787ZM147.829 66.098C147.063 66.098 146.382 65.9347 145.785 65.608C145.187 65.272 144.716 64.8147 144.371 64.236C144.025 63.6573 143.853 62.9993 143.853 62.262C143.853 61.5153 144.025 60.8573 144.371 60.288C144.716 59.7093 145.187 59.2567 145.785 58.93C146.382 58.6033 147.063 58.44 147.829 58.44C148.603 58.44 149.289 58.6033 149.887 58.93C150.493 59.2567 150.965 59.7047 151.301 60.274C151.646 60.8433 151.819 61.506 151.819 62.262C151.819 62.9993 151.646 63.6573 151.301 64.236C150.965 64.8147 150.493 65.272 149.887 65.608C149.289 65.9347 148.603 66.098 147.829 66.098ZM147.829 64.6C148.258 64.6 148.641 64.5067 148.977 64.32C149.313 64.1333 149.574 63.8627 149.761 63.508C149.957 63.1533 150.055 62.738 150.055 62.262C150.055 61.7767 149.957 61.3613 149.761 61.016C149.574 60.6613 149.313 60.3907 148.977 60.204C148.641 60.0173 148.263 59.924 147.843 59.924C147.413 59.924 147.031 60.0173 146.695 60.204C146.368 60.3907 146.107 60.6613 145.911 61.016C145.715 61.3613 145.617 61.7767 145.617 62.262C145.617 62.738 145.715 63.1533 145.911 63.508C146.107 63.8627 146.368 64.1333 146.695 64.32C147.031 64.5067 147.409 64.6 147.829 64.6ZM153.492 66V58.524H155.158V60.582L154.962 59.98C155.186 59.476 155.536 59.0933 156.012 58.832C156.498 58.5707 157.1 58.44 157.818 58.44V60.106C157.744 60.0873 157.674 60.078 157.608 60.078C157.543 60.0687 157.478 60.064 157.412 60.064C156.75 60.064 156.222 60.26 155.83 60.652C155.438 61.0347 155.242 61.6087 155.242 62.374V66H153.492ZM162.748 66.098C161.918 66.098 161.19 65.9347 160.564 65.608C159.948 65.272 159.468 64.8147 159.122 64.236C158.786 63.6573 158.618 62.9993 158.618 62.262C158.618 61.5153 158.782 60.8573 159.108 60.288C159.444 59.7093 159.902 59.2567 160.48 58.93C161.068 58.6033 161.736 58.44 162.482 58.44C163.21 58.44 163.859 58.5987 164.428 58.916C164.998 59.2333 165.446 59.6813 165.772 60.26C166.099 60.8387 166.262 61.52 166.262 62.304C166.262 62.3787 166.258 62.4627 166.248 62.556C166.248 62.6493 166.244 62.738 166.234 62.822H160.004V61.66H165.31L164.624 62.024C164.634 61.5947 164.545 61.2167 164.358 60.89C164.172 60.5633 163.915 60.3067 163.588 60.12C163.271 59.9333 162.902 59.84 162.482 59.84C162.053 59.84 161.675 59.9333 161.348 60.12C161.031 60.3067 160.779 60.568 160.592 60.904C160.415 61.2307 160.326 61.618 160.326 62.066V62.346C160.326 62.794 160.429 63.1907 160.634 63.536C160.84 63.8813 161.129 64.1473 161.502 64.334C161.876 64.5207 162.305 64.614 162.79 64.614C163.21 64.614 163.588 64.5487 163.924 64.418C164.26 64.2873 164.559 64.082 164.82 63.802L165.758 64.88C165.422 65.272 164.998 65.5753 164.484 65.79C163.98 65.9953 163.402 66.098 162.748 66.098Z" fill="#95D6CD"/>
<path d="M156.252 232.44V221.16H157.02V232.44H156.252ZM156.552 231.096C155.912 231.096 155.3 231 154.716 230.808C154.132 230.608 153.672 230.352 153.336 230.04L153.78 229.104C154.1 229.384 154.508 229.616 155.004 229.8C155.5 229.984 156.016 230.076 156.552 230.076C157.04 230.076 157.436 230.02 157.74 229.908C158.044 229.796 158.268 229.644 158.412 229.452C158.556 229.252 158.628 229.028 158.628 228.78C158.628 228.492 158.532 228.26 158.34 228.084C158.156 227.908 157.912 227.768 157.608 227.664C157.312 227.552 156.984 227.456 156.624 227.376C156.264 227.296 155.9 227.204 155.532 227.1C155.172 226.988 154.84 226.848 154.536 226.68C154.24 226.512 154 226.288 153.816 226.008C153.632 225.72 153.54 225.352 153.54 224.904C153.54 224.472 153.652 224.076 153.876 223.716C154.108 223.348 154.46 223.056 154.932 222.84C155.412 222.616 156.02 222.504 156.756 222.504C157.244 222.504 157.728 222.568 158.208 222.696C158.688 222.824 159.104 223.008 159.456 223.248L159.06 224.208C158.7 223.968 158.32 223.796 157.92 223.692C157.52 223.58 157.132 223.524 156.756 223.524C156.284 223.524 155.896 223.584 155.592 223.704C155.288 223.824 155.064 223.984 154.92 224.184C154.784 224.384 154.716 224.608 154.716 224.856C154.716 225.152 154.808 225.388 154.992 225.564C155.184 225.74 155.428 225.88 155.724 225.984C156.028 226.088 156.36 226.184 156.72 226.272C157.08 226.352 157.44 226.444 157.8 226.548C158.168 226.652 158.5 226.788 158.796 226.956C159.1 227.124 159.344 227.348 159.528 227.628C159.712 227.908 159.804 228.268 159.804 228.708C159.804 229.132 159.688 229.528 159.456 229.896C159.224 230.256 158.864 230.548 158.376 230.772C157.896 230.988 157.288 231.096 156.552 231.096ZM163.48 222.504C164.24 222.504 164.88 222.668 165.4 222.996C165.928 223.324 166.328 223.8 166.6 224.424C166.872 225.04 167.008 225.796 167.008 226.692C167.008 227.644 166.84 228.448 166.504 229.104C166.168 229.76 165.704 230.256 165.112 230.592C164.52 230.928 163.828 231.096 163.036 231.096C162.644 231.096 162.264 231.056 161.896 230.976C161.536 230.896 161.22 230.772 160.948 230.604L161.404 229.668C161.628 229.812 161.876 229.916 162.148 229.98C162.428 230.036 162.72 230.064 163.024 230.064C163.872 230.064 164.548 229.8 165.052 229.272C165.556 228.736 165.808 227.944 165.808 226.896C165.808 226.728 165.8 226.528 165.784 226.296C165.768 226.064 165.732 225.836 165.676 225.612L166.072 226.02C165.96 226.388 165.772 226.7 165.508 226.956C165.252 227.204 164.94 227.392 164.572 227.52C164.212 227.64 163.816 227.7 163.384 227.7C162.832 227.7 162.34 227.596 161.908 227.388C161.476 227.18 161.136 226.888 160.888 226.512C160.64 226.128 160.516 225.676 160.516 225.156C160.516 224.612 160.644 224.144 160.9 223.752C161.164 223.352 161.52 223.044 161.968 222.828C162.424 222.612 162.928 222.504 163.48 222.504ZM163.528 223.476C163.168 223.476 162.848 223.544 162.568 223.68C162.288 223.816 162.068 224.004 161.908 224.244C161.756 224.484 161.68 224.772 161.68 225.108C161.68 225.604 161.852 226 162.196 226.296C162.54 226.584 163.004 226.728 163.588 226.728C163.972 226.728 164.308 226.656 164.596 226.512C164.892 226.368 165.12 226.172 165.28 225.924C165.448 225.676 165.532 225.4 165.532 225.096C165.532 224.8 165.456 224.532 165.304 224.292C165.152 224.052 164.928 223.856 164.632 223.704C164.336 223.552 163.968 223.476 163.528 223.476ZM168.814 231.072C168.59 231.072 168.398 230.996 168.238 230.844C168.078 230.684 167.998 230.484 167.998 230.244C167.998 230.004 168.078 229.808 168.238 229.656C168.398 229.504 168.59 229.428 168.814 229.428C169.03 229.428 169.214 229.504 169.366 229.656C169.526 229.808 169.606 230.004 169.606 230.244C169.606 230.484 169.526 230.684 169.366 230.844C169.214 230.996 169.03 231.072 168.814 231.072ZM172.004 231V223.08L172.52 223.644H170.108V222.6H173.192V231H172.004ZM178.462 231.096C177.806 231.096 177.218 230.928 176.698 230.592C176.186 230.256 175.778 229.768 175.474 229.128C175.178 228.488 175.03 227.712 175.03 226.8C175.03 225.888 175.178 225.112 175.474 224.472C175.778 223.832 176.186 223.344 176.698 223.008C177.218 222.672 177.806 222.504 178.462 222.504C179.11 222.504 179.694 222.672 180.214 223.008C180.734 223.344 181.142 223.832 181.438 224.472C181.734 225.112 181.882 225.888 181.882 226.8C181.882 227.712 181.734 228.488 181.438 229.128C181.142 229.768 180.734 230.256 180.214 230.592C179.694 230.928 179.11 231.096 178.462 231.096ZM178.462 230.028C178.902 230.028 179.286 229.908 179.614 229.668C179.95 229.428 180.21 229.068 180.394 228.588C180.586 228.108 180.682 227.512 180.682 226.8C180.682 226.088 180.586 225.492 180.394 225.012C180.21 224.532 179.95 224.172 179.614 223.932C179.286 223.692 178.902 223.572 178.462 223.572C178.022 223.572 177.634 223.692 177.298 223.932C176.962 224.172 176.698 224.532 176.506 225.012C176.322 225.492 176.23 226.088 176.23 226.8C176.23 227.512 176.322 228.108 176.506 228.588C176.698 229.068 176.962 229.428 177.298 229.668C177.634 229.908 178.022 230.028 178.462 230.028Z" fill="#95D6CD"/>
<path d="M107.219 231V223.92H104.435V222.6H111.563V223.92H108.779V231H107.219ZM114.814 231.084C114.158 231.084 113.574 230.944 113.062 230.664C112.55 230.376 112.146 229.984 111.85 229.488C111.554 228.992 111.406 228.428 111.406 227.796C111.406 227.156 111.554 226.592 111.85 226.104C112.146 225.608 112.55 225.22 113.062 224.94C113.574 224.66 114.158 224.52 114.814 224.52C115.478 224.52 116.066 224.66 116.578 224.94C117.098 225.22 117.502 225.604 117.79 226.092C118.086 226.58 118.234 227.148 118.234 227.796C118.234 228.428 118.086 228.992 117.79 229.488C117.502 229.984 117.098 230.376 116.578 230.664C116.066 230.944 115.478 231.084 114.814 231.084ZM114.814 229.8C115.182 229.8 115.51 229.72 115.798 229.56C116.086 229.4 116.31 229.168 116.47 228.864C116.638 228.56 116.722 228.204 116.722 227.796C116.722 227.38 116.638 227.024 116.47 226.728C116.31 226.424 116.086 226.192 115.798 226.032C115.51 225.872 115.186 225.792 114.826 225.792C114.458 225.792 114.13 225.872 113.842 226.032C113.562 226.192 113.338 226.424 113.17 226.728C113.002 227.024 112.918 227.38 112.918 227.796C112.918 228.204 113.002 228.56 113.17 228.864C113.338 229.168 113.562 229.4 113.842 229.56C114.13 229.72 114.454 229.8 114.814 229.8ZM122.08 231.084C121.376 231.084 120.832 230.904 120.448 230.544C120.064 230.176 119.872 229.636 119.872 228.924V223.176H121.372V228.888C121.372 229.192 121.448 229.428 121.6 229.596C121.76 229.764 121.98 229.848 122.26 229.848C122.596 229.848 122.876 229.76 123.1 229.584L123.52 230.652C123.344 230.796 123.128 230.904 122.872 230.976C122.616 231.048 122.352 231.084 122.08 231.084ZM118.816 225.84V224.64H123.088V225.84H118.816ZM128.702 231V229.704L128.618 229.428V227.16C128.618 226.72 128.486 226.38 128.222 226.14C127.958 225.892 127.558 225.768 127.022 225.768C126.662 225.768 126.306 225.824 125.954 225.936C125.61 226.048 125.318 226.204 125.078 226.404L124.49 225.312C124.834 225.048 125.242 224.852 125.714 224.724C126.194 224.588 126.69 224.52 127.202 224.52C128.13 224.52 128.846 224.744 129.35 225.192C129.862 225.632 130.118 226.316 130.118 227.244V231H128.702ZM126.686 231.084C126.206 231.084 125.786 231.004 125.426 230.844C125.066 230.676 124.786 230.448 124.586 230.16C124.394 229.864 124.298 229.532 124.298 229.164C124.298 228.804 124.382 228.48 124.55 228.192C124.726 227.904 125.01 227.676 125.402 227.508C125.794 227.34 126.314 227.256 126.962 227.256H128.822V228.252H127.07C126.558 228.252 126.214 228.336 126.038 228.504C125.862 228.664 125.774 228.864 125.774 229.104C125.774 229.376 125.882 229.592 126.098 229.752C126.314 229.912 126.614 229.992 126.998 229.992C127.366 229.992 127.694 229.908 127.982 229.74C128.278 229.572 128.49 229.324 128.618 228.996L128.87 229.896C128.726 230.272 128.466 230.564 128.09 230.772C127.722 230.98 127.254 231.084 126.686 231.084ZM132.043 231V222.096H133.543V231H132.043ZM135.992 226.512C135.72 226.512 135.488 226.42 135.296 226.236C135.104 226.044 135.008 225.804 135.008 225.516C135.008 225.212 135.104 224.972 135.296 224.796C135.488 224.612 135.72 224.52 135.992 224.52C136.264 224.52 136.496 224.612 136.688 224.796C136.88 224.972 136.976 225.212 136.976 225.516C136.976 225.804 136.88 226.044 136.688 226.236C136.496 226.42 136.264 226.512 135.992 226.512ZM135.992 231.084C135.72 231.084 135.488 230.992 135.296 230.808C135.104 230.616 135.008 230.376 135.008 230.088C135.008 229.784 135.104 229.544 135.296 229.368C135.488 229.184 135.72 229.092 135.992 229.092C136.264 229.092 136.496 229.184 136.688 229.368C136.88 229.544 136.976 229.784 136.976 230.088C136.976 230.376 136.88 230.616 136.688 230.808C136.496 230.992 136.264 231.084 135.992 231.084Z" fill="#95D6CD"/>
<path d="M21.4575 109L192.458 109" stroke="#95D6CD"/>
<path d="M21.4575 204L192.458 204" stroke="#95D6CD"/>
</svg>
