<?xml version="1.0" encoding="utf-8"?>
<!-- Generator: Adobe Illustrator 28.0.0, SVG Export Plug-In . SVG Version: 6.00 Build 0)  -->
<svg version="1.1" id="Layer_1" xmlns="http://www.w3.org/2000/svg" xmlns:xlink="http://www.w3.org/1999/xlink" x="0px" y="0px"
	 viewBox="0 0 24 24" style="enable-background:new 0 0 24 24;" xml:space="preserve">
<style type="text/css">
	.st0{fill:#4285F4;}
	.st1{fill:#34A853;}
	.st2{fill:#FBBC05;}
	.st3{fill:#EA4335;}
</style>
<path class="st0" d="M22.6,12.2c0-0.8-0.1-1.5-0.2-2.2H12v4.3h5.9c-0.3,1.4-1,2.5-2.2,3.3v2.8h3.6C21.4,18.4,22.6,15.6,22.6,12.2z"
	/>
<path class="st0" d="M22.6,12.2c0-0.8-0.1-1.5-0.2-2.2H12v4.3h5.9c-0.3,1.4-1,2.5-2.2,3.3v2.8h3.6C21.4,18.4,22.6,15.6,22.6,12.2z"
	/>
<path class="st1" d="M12,23c3,0,5.5-1,7.3-2.7l-3.6-2.8c-1,0.7-2.2,1.1-3.7,1.1c-2.9,0-5.3-1.9-6.2-4.5H2.2v2.8C4,20.5,7.7,23,12,23
	z"/>
<path class="st1" d="M12,23c3,0,5.5-1,7.3-2.7l-3.6-2.8c-1,0.7-2.2,1.1-3.7,1.1c-2.9,0-5.3-1.9-6.2-4.5H2.2v2.8C4,20.5,7.7,23,12,23
	z"/>
<path class="st2" d="M5.8,14.1c-0.2-0.7-0.4-1.4-0.4-2.1c0-0.7,0.1-1.4,0.4-2.1V7.1H2.2C1.4,8.5,1,10.2,1,12s0.4,3.4,1.2,4.9L5,14.7
	L5.8,14.1z"/>
<path class="st2" d="M5.8,14.1c-0.2-0.7-0.4-1.4-0.4-2.1c0-0.7,0.1-1.4,0.4-2.1V7.1H2.2C1.4,8.5,1,10.2,1,12s0.4,3.4,1.2,4.9L5,14.7
	L5.8,14.1z"/>
<path class="st3" d="M12,5.4c1.6,0,3.1,0.6,4.2,1.6l3.1-3.2C17.4,2.1,15,1,12,1C7.7,1,4,3.5,2.2,7.1l3.7,2.8C6.7,7.3,9.1,5.4,12,5.4
	z"/>
<path class="st3" d="M12,5.4c1.6,0,3.1,0.6,4.2,1.6l3.1-3.2C17.4,2.1,15,1,12,1C7.7,1,4,3.5,2.2,7.1l3.7,2.8C6.7,7.3,9.1,5.4,12,5.4
	z"/>
</svg>
